ISO-10303-21;
HEADER;
/* Generated by software containing ST-Developer
 * from STEP Tools, Inc. (www.steptools.com) 
 */

FILE_DESCRIPTION(
/* description */ (''),
/* implementation_level */ '2;1');

FILE_NAME(
/* name */ 'bottom case.step',
/* time_stamp */ '2026-08-28T00:48:57+05:30',
/* author */ (''),
/* organization */ (''),
/* preprocessor_version */ 'ST-DEVELOPER v20.1',
/* originating_system */ 'Autodesk Translation Framework v15.8.0.0',
/* authorisation */ '');

FILE_SCHEMA (('AUTOMOTIVE_DESIGN { 1 0 10303 214 3 1 1 }'));
ENDSEC;

DATA;
#10=MECHANICAL_DESIGN_GEOMETRIC_PRESENTATION_REPRESENTATION('',(#13),#743);
#11=SHAPE_REPRESENTATION_RELATIONSHIP('SRR','None',#750,#12);
#12=ADVANCED_BREP_SHAPE_REPRESENTATION('',(#14),#742);
#13=STYLED_ITEM('',(#759),#14);
#14=MANIFOLD_SOLID_BREP('Body1',#443);
#15=FACE_BOUND('',#79,.T.);
#16=FACE_BOUND('',#80,.T.);
#17=FACE_BOUND('',#81,.T.);
#18=FACE_BOUND('',#82,.T.);
#19=FACE_BOUND('',#85,.T.);
#20=FACE_BOUND('',#86,.T.);
#21=FACE_BOUND('',#87,.T.);
#22=FACE_BOUND('',#88,.T.);
#23=PLANE('',#460);
#24=PLANE('',#470);
#25=PLANE('',#471);
#26=PLANE('',#472);
#27=PLANE('',#473);
#28=PLANE('',#474);
#29=PLANE('',#475);
#30=PLANE('',#476);
#31=PLANE('',#483);
#32=PLANE('',#487);
#33=PLANE('',#491);
#34=PLANE('',#492);
#35=PLANE('',#493);
#36=PLANE('',#494);
#37=FACE_OUTER_BOUND('',#59,.T.);
#38=FACE_OUTER_BOUND('',#60,.T.);
#39=FACE_OUTER_BOUND('',#61,.T.);
#40=FACE_OUTER_BOUND('',#62,.T.);
#41=FACE_OUTER_BOUND('',#63,.T.);
#42=FACE_OUTER_BOUND('',#64,.T.);
#43=FACE_OUTER_BOUND('',#65,.T.);
#44=FACE_OUTER_BOUND('',#66,.T.);
#45=FACE_OUTER_BOUND('',#67,.T.);
#46=FACE_OUTER_BOUND('',#68,.T.);
#47=FACE_OUTER_BOUND('',#69,.T.);
#48=FACE_OUTER_BOUND('',#70,.T.);
#49=FACE_OUTER_BOUND('',#71,.T.);
#50=FACE_OUTER_BOUND('',#72,.T.);
#51=FACE_OUTER_BOUND('',#73,.T.);
#52=FACE_OUTER_BOUND('',#74,.T.);
#53=FACE_OUTER_BOUND('',#75,.T.);
#54=FACE_OUTER_BOUND('',#76,.T.);
#55=FACE_OUTER_BOUND('',#77,.T.);
#56=FACE_OUTER_BOUND('',#78,.T.);
#57=FACE_OUTER_BOUND('',#83,.T.);
#58=FACE_OUTER_BOUND('',#84,.T.);
#59=EDGE_LOOP('',(#293,#294,#295,#296));
#60=EDGE_LOOP('',(#297,#298,#299,#300,#301,#302,#303,#304));
#61=EDGE_LOOP('',(#305,#306,#307,#308));
#62=EDGE_LOOP('',(#309,#310,#311,#312));
#63=EDGE_LOOP('',(#313,#314,#315,#316));
#64=EDGE_LOOP('',(#317,#318,#319,#320));
#65=EDGE_LOOP('',(#321,#322,#323,#324));
#66=EDGE_LOOP('',(#325,#326,#327,#328));
#67=EDGE_LOOP('',(#329,#330,#331,#332));
#68=EDGE_LOOP('',(#333,#334,#335,#336,#337,#338,#339,#340));
#69=EDGE_LOOP('',(#341,#342,#343,#344));
#70=EDGE_LOOP('',(#345,#346,#347,#348));
#71=EDGE_LOOP('',(#349,#350,#351,#352));
#72=EDGE_LOOP('',(#353,#354,#355,#356));
#73=EDGE_LOOP('',(#357,#358,#359,#360));
#74=EDGE_LOOP('',(#361,#362,#363,#364));
#75=EDGE_LOOP('',(#365,#366,#367,#368));
#76=EDGE_LOOP('',(#369,#370,#371,#372));
#77=EDGE_LOOP('',(#373,#374,#375,#376));
#78=EDGE_LOOP('',(#377,#378,#379,#380,#381,#382,#383,#384,#385,#386,#387,
#388,#389,#390,#391,#392));
#79=EDGE_LOOP('',(#393));
#80=EDGE_LOOP('',(#394));
#81=EDGE_LOOP('',(#395));
#82=EDGE_LOOP('',(#396));
#83=EDGE_LOOP('',(#397,#398,#399,#400));
#84=EDGE_LOOP('',(#401,#402,#403,#404,#405,#406,#407,#408));
#85=EDGE_LOOP('',(#409));
#86=EDGE_LOOP('',(#410));
#87=EDGE_LOOP('',(#411));
#88=EDGE_LOOP('',(#412));
#89=LINE('',#622,#133);
#90=LINE('',#627,#134);
#91=LINE('',#629,#135);
#92=LINE('',#631,#136);
#93=LINE('',#633,#137);
#94=LINE('',#635,#138);
#95=LINE('',#637,#139);
#96=LINE('',#639,#140);
#97=LINE('',#640,#141);
#98=LINE('',#645,#142);
#99=LINE('',#651,#143);
#100=LINE('',#657,#144);
#101=LINE('',#661,#145);
#102=LINE('',#663,#146);
#103=LINE('',#664,#147);
#104=LINE('',#667,#148);
#105=LINE('',#669,#149);
#106=LINE('',#670,#150);
#107=LINE('',#672,#151);
#108=LINE('',#676,#152);
#109=LINE('',#678,#153);
#110=LINE('',#680,#154);
#111=LINE('',#681,#155);
#112=LINE('',#683,#156);
#113=LINE('',#685,#157);
#114=LINE('',#687,#158);
#115=LINE('',#688,#159);
#116=LINE('',#691,#160);
#117=LINE('',#693,#161);
#118=LINE('',#694,#162);
#119=LINE('',#696,#163);
#120=LINE('',#697,#164);
#121=LINE('',#702,#165);
#122=LINE('',#709,#166);
#123=LINE('',#712,#167);
#124=LINE('',#714,#168);
#125=LINE('',#715,#169);
#126=LINE('',#721,#170);
#127=LINE('',#724,#171);
#128=LINE('',#726,#172);
#129=LINE('',#727,#173);
#130=LINE('',#733,#174);
#131=LINE('',#735,#175);
#132=LINE('',#736,#176);
#133=VECTOR('',#501,1.35);
#134=VECTOR('',#506,10.);
#135=VECTOR('',#507,10.);
#136=VECTOR('',#508,10.);
#137=VECTOR('',#509,10.);
#138=VECTOR('',#510,10.);
#139=VECTOR('',#511,10.);
#140=VECTOR('',#512,10.);
#141=VECTOR('',#513,10.);
#142=VECTOR('',#518,1.35);
#143=VECTOR('',#525,1.35);
#144=VECTOR('',#532,1.35);
#145=VECTOR('',#537,10.);
#146=VECTOR('',#538,10.);
#147=VECTOR('',#539,10.);
#148=VECTOR('',#542,10.);
#149=VECTOR('',#543,10.);
#150=VECTOR('',#544,10.);
#151=VECTOR('',#547,10.);
#152=VECTOR('',#550,10.);
#153=VECTOR('',#551,10.);
#154=VECTOR('',#552,10.);
#155=VECTOR('',#553,10.);
#156=VECTOR('',#556,10.);
#157=VECTOR('',#557,10.);
#158=VECTOR('',#558,10.);
#159=VECTOR('',#559,10.);
#160=VECTOR('',#562,10.);
#161=VECTOR('',#563,10.);
#162=VECTOR('',#564,10.);
#163=VECTOR('',#567,10.);
#164=VECTOR('',#568,10.);
#165=VECTOR('',#573,10.);
#166=VECTOR('',#582,10.);
#167=VECTOR('',#585,10.);
#168=VECTOR('',#586,10.);
#169=VECTOR('',#587,10.);
#170=VECTOR('',#594,10.);
#171=VECTOR('',#597,10.);
#172=VECTOR('',#598,10.);
#173=VECTOR('',#599,10.);
#174=VECTOR('',#606,10.);
#175=VECTOR('',#609,10.);
#176=VECTOR('',#610,10.);
#177=CIRCLE('',#458,1.35);
#178=CIRCLE('',#459,1.35);
#179=CIRCLE('',#462,1.35);
#180=CIRCLE('',#463,1.35);
#181=CIRCLE('',#465,1.35);
#182=CIRCLE('',#466,1.35);
#183=CIRCLE('',#468,1.35);
#184=CIRCLE('',#469,1.35);
#185=CIRCLE('',#478,5.5);
#186=CIRCLE('',#479,5.5);
#187=CIRCLE('',#481,5.50000000000001);
#188=CIRCLE('',#482,5.50000000000001);
#189=CIRCLE('',#485,5.5);
#190=CIRCLE('',#486,5.5);
#191=CIRCLE('',#489,5.5);
#192=CIRCLE('',#490,5.5);
#193=VERTEX_POINT('',#619);
#194=VERTEX_POINT('',#621);
#195=VERTEX_POINT('',#625);
#196=VERTEX_POINT('',#626);
#197=VERTEX_POINT('',#628);
#198=VERTEX_POINT('',#630);
#199=VERTEX_POINT('',#632);
#200=VERTEX_POINT('',#634);
#201=VERTEX_POINT('',#636);
#202=VERTEX_POINT('',#638);
#203=VERTEX_POINT('',#642);
#204=VERTEX_POINT('',#644);
#205=VERTEX_POINT('',#648);
#206=VERTEX_POINT('',#650);
#207=VERTEX_POINT('',#654);
#208=VERTEX_POINT('',#656);
#209=VERTEX_POINT('',#660);
#210=VERTEX_POINT('',#662);
#211=VERTEX_POINT('',#666);
#212=VERTEX_POINT('',#668);
#213=VERTEX_POINT('',#674);
#214=VERTEX_POINT('',#675);
#215=VERTEX_POINT('',#677);
#216=VERTEX_POINT('',#679);
#217=VERTEX_POINT('',#684);
#218=VERTEX_POINT('',#686);
#219=VERTEX_POINT('',#690);
#220=VERTEX_POINT('',#692);
#221=VERTEX_POINT('',#699);
#222=VERTEX_POINT('',#701);
#223=VERTEX_POINT('',#705);
#224=VERTEX_POINT('',#707);
#225=VERTEX_POINT('',#711);
#226=VERTEX_POINT('',#713);
#227=VERTEX_POINT('',#717);
#228=VERTEX_POINT('',#719);
#229=VERTEX_POINT('',#723);
#230=VERTEX_POINT('',#725);
#231=VERTEX_POINT('',#729);
#232=VERTEX_POINT('',#731);
#233=EDGE_CURVE('',#193,#193,#177,.T.);
#234=EDGE_CURVE('',#193,#194,#89,.T.);
#235=EDGE_CURVE('',#194,#194,#178,.T.);
#236=EDGE_CURVE('',#195,#196,#90,.T.);
#237=EDGE_CURVE('',#196,#197,#91,.T.);
#238=EDGE_CURVE('',#197,#198,#92,.T.);
#239=EDGE_CURVE('',#199,#198,#93,.T.);
#240=EDGE_CURVE('',#200,#199,#94,.T.);
#241=EDGE_CURVE('',#201,#200,#95,.T.);
#242=EDGE_CURVE('',#201,#202,#96,.T.);
#243=EDGE_CURVE('',#195,#202,#97,.T.);
#244=EDGE_CURVE('',#203,#203,#179,.T.);
#245=EDGE_CURVE('',#203,#204,#98,.T.);
#246=EDGE_CURVE('',#204,#204,#180,.T.);
#247=EDGE_CURVE('',#205,#205,#181,.T.);
#248=EDGE_CURVE('',#205,#206,#99,.T.);
#249=EDGE_CURVE('',#206,#206,#182,.T.);
#250=EDGE_CURVE('',#207,#207,#183,.T.);
#251=EDGE_CURVE('',#207,#208,#100,.T.);
#252=EDGE_CURVE('',#208,#208,#184,.T.);
#253=EDGE_CURVE('',#209,#195,#101,.T.);
#254=EDGE_CURVE('',#210,#209,#102,.T.);
#255=EDGE_CURVE('',#196,#210,#103,.T.);
#256=EDGE_CURVE('',#197,#211,#104,.T.);
#257=EDGE_CURVE('',#212,#211,#105,.T.);
#258=EDGE_CURVE('',#198,#212,#106,.T.);
#259=EDGE_CURVE('',#211,#210,#107,.T.);
#260=EDGE_CURVE('',#213,#214,#108,.T.);
#261=EDGE_CURVE('',#213,#215,#109,.T.);
#262=EDGE_CURVE('',#216,#215,#110,.T.);
#263=EDGE_CURVE('',#214,#216,#111,.T.);
#264=EDGE_CURVE('',#215,#209,#112,.T.);
#265=EDGE_CURVE('',#217,#213,#113,.T.);
#266=EDGE_CURVE('',#217,#218,#114,.T.);
#267=EDGE_CURVE('',#212,#218,#115,.T.);
#268=EDGE_CURVE('',#214,#219,#116,.T.);
#269=EDGE_CURVE('',#220,#216,#117,.T.);
#270=EDGE_CURVE('',#219,#220,#118,.T.);
#271=EDGE_CURVE('',#219,#217,#119,.T.);
#272=EDGE_CURVE('',#218,#220,#120,.T.);
#273=EDGE_CURVE('',#201,#221,#185,.T.);
#274=EDGE_CURVE('',#221,#222,#121,.T.);
#275=EDGE_CURVE('',#202,#222,#186,.T.);
#276=EDGE_CURVE('',#223,#200,#187,.T.);
#277=EDGE_CURVE('',#224,#199,#188,.T.);
#278=EDGE_CURVE('',#223,#224,#122,.T.);
#279=EDGE_CURVE('',#223,#225,#123,.T.);
#280=EDGE_CURVE('',#226,#224,#124,.T.);
#281=EDGE_CURVE('',#225,#226,#125,.T.);
#282=EDGE_CURVE('',#227,#225,#189,.T.);
#283=EDGE_CURVE('',#228,#226,#190,.T.);
#284=EDGE_CURVE('',#227,#228,#126,.T.);
#285=EDGE_CURVE('',#229,#227,#127,.T.);
#286=EDGE_CURVE('',#230,#228,#128,.T.);
#287=EDGE_CURVE('',#229,#230,#129,.T.);
#288=EDGE_CURVE('',#231,#229,#191,.T.);
#289=EDGE_CURVE('',#232,#230,#192,.T.);
#290=EDGE_CURVE('',#231,#232,#130,.T.);
#291=EDGE_CURVE('',#231,#221,#131,.T.);
#292=EDGE_CURVE('',#222,#232,#132,.T.);
#293=ORIENTED_EDGE('',*,*,#233,.F.);
#294=ORIENTED_EDGE('',*,*,#234,.T.);
#295=ORIENTED_EDGE('',*,*,#235,.F.);
#296=ORIENTED_EDGE('',*,*,#234,.F.);
#297=ORIENTED_EDGE('',*,*,#236,.T.);
#298=ORIENTED_EDGE('',*,*,#237,.T.);
#299=ORIENTED_EDGE('',*,*,#238,.T.);
#300=ORIENTED_EDGE('',*,*,#239,.F.);
#301=ORIENTED_EDGE('',*,*,#240,.F.);
#302=ORIENTED_EDGE('',*,*,#241,.F.);
#303=ORIENTED_EDGE('',*,*,#242,.T.);
#304=ORIENTED_EDGE('',*,*,#243,.F.);
#305=ORIENTED_EDGE('',*,*,#244,.F.);
#306=ORIENTED_EDGE('',*,*,#245,.T.);
#307=ORIENTED_EDGE('',*,*,#246,.F.);
#308=ORIENTED_EDGE('',*,*,#245,.F.);
#309=ORIENTED_EDGE('',*,*,#247,.F.);
#310=ORIENTED_EDGE('',*,*,#248,.T.);
#311=ORIENTED_EDGE('',*,*,#249,.F.);
#312=ORIENTED_EDGE('',*,*,#248,.F.);
#313=ORIENTED_EDGE('',*,*,#250,.F.);
#314=ORIENTED_EDGE('',*,*,#251,.T.);
#315=ORIENTED_EDGE('',*,*,#252,.F.);
#316=ORIENTED_EDGE('',*,*,#251,.F.);
#317=ORIENTED_EDGE('',*,*,#236,.F.);
#318=ORIENTED_EDGE('',*,*,#253,.F.);
#319=ORIENTED_EDGE('',*,*,#254,.F.);
#320=ORIENTED_EDGE('',*,*,#255,.F.);
#321=ORIENTED_EDGE('',*,*,#238,.F.);
#322=ORIENTED_EDGE('',*,*,#256,.T.);
#323=ORIENTED_EDGE('',*,*,#257,.F.);
#324=ORIENTED_EDGE('',*,*,#258,.F.);
#325=ORIENTED_EDGE('',*,*,#237,.F.);
#326=ORIENTED_EDGE('',*,*,#255,.T.);
#327=ORIENTED_EDGE('',*,*,#259,.F.);
#328=ORIENTED_EDGE('',*,*,#256,.F.);
#329=ORIENTED_EDGE('',*,*,#260,.F.);
#330=ORIENTED_EDGE('',*,*,#261,.T.);
#331=ORIENTED_EDGE('',*,*,#262,.F.);
#332=ORIENTED_EDGE('',*,*,#263,.F.);
#333=ORIENTED_EDGE('',*,*,#254,.T.);
#334=ORIENTED_EDGE('',*,*,#264,.F.);
#335=ORIENTED_EDGE('',*,*,#261,.F.);
#336=ORIENTED_EDGE('',*,*,#265,.F.);
#337=ORIENTED_EDGE('',*,*,#266,.T.);
#338=ORIENTED_EDGE('',*,*,#267,.F.);
#339=ORIENTED_EDGE('',*,*,#257,.T.);
#340=ORIENTED_EDGE('',*,*,#259,.T.);
#341=ORIENTED_EDGE('',*,*,#268,.F.);
#342=ORIENTED_EDGE('',*,*,#263,.T.);
#343=ORIENTED_EDGE('',*,*,#269,.F.);
#344=ORIENTED_EDGE('',*,*,#270,.F.);
#345=ORIENTED_EDGE('',*,*,#271,.F.);
#346=ORIENTED_EDGE('',*,*,#270,.T.);
#347=ORIENTED_EDGE('',*,*,#272,.F.);
#348=ORIENTED_EDGE('',*,*,#266,.F.);
#349=ORIENTED_EDGE('',*,*,#273,.T.);
#350=ORIENTED_EDGE('',*,*,#274,.T.);
#351=ORIENTED_EDGE('',*,*,#275,.F.);
#352=ORIENTED_EDGE('',*,*,#242,.F.);
#353=ORIENTED_EDGE('',*,*,#276,.T.);
#354=ORIENTED_EDGE('',*,*,#240,.T.);
#355=ORIENTED_EDGE('',*,*,#277,.F.);
#356=ORIENTED_EDGE('',*,*,#278,.F.);
#357=ORIENTED_EDGE('',*,*,#279,.F.);
#358=ORIENTED_EDGE('',*,*,#278,.T.);
#359=ORIENTED_EDGE('',*,*,#280,.F.);
#360=ORIENTED_EDGE('',*,*,#281,.F.);
#361=ORIENTED_EDGE('',*,*,#282,.T.);
#362=ORIENTED_EDGE('',*,*,#281,.T.);
#363=ORIENTED_EDGE('',*,*,#283,.F.);
#364=ORIENTED_EDGE('',*,*,#284,.F.);
#365=ORIENTED_EDGE('',*,*,#285,.T.);
#366=ORIENTED_EDGE('',*,*,#284,.T.);
#367=ORIENTED_EDGE('',*,*,#286,.F.);
#368=ORIENTED_EDGE('',*,*,#287,.F.);
#369=ORIENTED_EDGE('',*,*,#288,.T.);
#370=ORIENTED_EDGE('',*,*,#287,.T.);
#371=ORIENTED_EDGE('',*,*,#289,.F.);
#372=ORIENTED_EDGE('',*,*,#290,.F.);
#373=ORIENTED_EDGE('',*,*,#291,.F.);
#374=ORIENTED_EDGE('',*,*,#290,.T.);
#375=ORIENTED_EDGE('',*,*,#292,.F.);
#376=ORIENTED_EDGE('',*,*,#274,.F.);
#377=ORIENTED_EDGE('',*,*,#253,.T.);
#378=ORIENTED_EDGE('',*,*,#243,.T.);
#379=ORIENTED_EDGE('',*,*,#275,.T.);
#380=ORIENTED_EDGE('',*,*,#292,.T.);
#381=ORIENTED_EDGE('',*,*,#289,.T.);
#382=ORIENTED_EDGE('',*,*,#286,.T.);
#383=ORIENTED_EDGE('',*,*,#283,.T.);
#384=ORIENTED_EDGE('',*,*,#280,.T.);
#385=ORIENTED_EDGE('',*,*,#277,.T.);
#386=ORIENTED_EDGE('',*,*,#239,.T.);
#387=ORIENTED_EDGE('',*,*,#258,.T.);
#388=ORIENTED_EDGE('',*,*,#267,.T.);
#389=ORIENTED_EDGE('',*,*,#272,.T.);
#390=ORIENTED_EDGE('',*,*,#269,.T.);
#391=ORIENTED_EDGE('',*,*,#262,.T.);
#392=ORIENTED_EDGE('',*,*,#264,.T.);
#393=ORIENTED_EDGE('',*,*,#233,.T.);
#394=ORIENTED_EDGE('',*,*,#246,.T.);
#395=ORIENTED_EDGE('',*,*,#249,.T.);
#396=ORIENTED_EDGE('',*,*,#252,.T.);
#397=ORIENTED_EDGE('',*,*,#265,.T.);
#398=ORIENTED_EDGE('',*,*,#260,.T.);
#399=ORIENTED_EDGE('',*,*,#268,.T.);
#400=ORIENTED_EDGE('',*,*,#271,.T.);
#401=ORIENTED_EDGE('',*,*,#291,.T.);
#402=ORIENTED_EDGE('',*,*,#273,.F.);
#403=ORIENTED_EDGE('',*,*,#241,.T.);
#404=ORIENTED_EDGE('',*,*,#276,.F.);
#405=ORIENTED_EDGE('',*,*,#279,.T.);
#406=ORIENTED_EDGE('',*,*,#282,.F.);
#407=ORIENTED_EDGE('',*,*,#285,.F.);
#408=ORIENTED_EDGE('',*,*,#288,.F.);
#409=ORIENTED_EDGE('',*,*,#235,.T.);
#410=ORIENTED_EDGE('',*,*,#244,.T.);
#411=ORIENTED_EDGE('',*,*,#247,.T.);
#412=ORIENTED_EDGE('',*,*,#250,.T.);
#413=CYLINDRICAL_SURFACE('',#457,1.35);
#414=CYLINDRICAL_SURFACE('',#461,1.35);
#415=CYLINDRICAL_SURFACE('',#464,1.35);
#416=CYLINDRICAL_SURFACE('',#467,1.35);
#417=CYLINDRICAL_SURFACE('',#477,5.5);
#418=CYLINDRICAL_SURFACE('',#480,5.50000000000001);
#419=CYLINDRICAL_SURFACE('',#484,5.5);
#420=CYLINDRICAL_SURFACE('',#488,5.5);
#421=ADVANCED_FACE('',(#37),#413,.F.);
#422=ADVANCED_FACE('',(#38),#23,.T.);
#423=ADVANCED_FACE('',(#39),#414,.F.);
#424=ADVANCED_FACE('',(#40),#415,.F.);
#425=ADVANCED_FACE('',(#41),#416,.F.);
#426=ADVANCED_FACE('',(#42),#24,.F.);
#427=ADVANCED_FACE('',(#43),#25,.F.);
#428=ADVANCED_FACE('',(#44),#26,.F.);
#429=ADVANCED_FACE('',(#45),#27,.T.);
#430=ADVANCED_FACE('',(#46),#28,.T.);
#431=ADVANCED_FACE('',(#47),#29,.T.);
#432=ADVANCED_FACE('',(#48),#30,.T.);
#433=ADVANCED_FACE('',(#49),#417,.T.);
#434=ADVANCED_FACE('',(#50),#418,.T.);
#435=ADVANCED_FACE('',(#51),#31,.T.);
#436=ADVANCED_FACE('',(#52),#419,.T.);
#437=ADVANCED_FACE('',(#53),#32,.T.);
#438=ADVANCED_FACE('',(#54),#420,.T.);
#439=ADVANCED_FACE('',(#55),#33,.T.);
#440=ADVANCED_FACE('',(#56,#15,#16,#17,#18),#34,.T.);
#441=ADVANCED_FACE('',(#57),#35,.T.);
#442=ADVANCED_FACE('',(#58,#19,#20,#21,#22),#36,.F.);
#443=CLOSED_SHELL('',(#421,#422,#423,#424,#425,#426,#427,#428,#429,#430,
#431,#432,#433,#434,#435,#436,#437,#438,#439,#440,#441,#442));
#444=DERIVED_UNIT_ELEMENT(#446,1.);
#445=DERIVED_UNIT_ELEMENT(#745,-3.);
#446=(
MASS_UNIT()
NAMED_UNIT(*)
SI_UNIT(.KILO.,.GRAM.)
);
#447=DERIVED_UNIT((#444,#445));
#448=MEASURE_REPRESENTATION_ITEM('density measure',
POSITIVE_RATIO_MEASURE(7850.),#447);
#449=PROPERTY_DEFINITION_REPRESENTATION(#454,#451);
#450=PROPERTY_DEFINITION_REPRESENTATION(#455,#452);
#451=REPRESENTATION('material name',(#453),#742);
#452=REPRESENTATION('density',(#448),#742);
#453=DESCRIPTIVE_REPRESENTATION_ITEM('Steel','Steel');
#454=PROPERTY_DEFINITION('material property','material name',#752);
#455=PROPERTY_DEFINITION('material property','density of part',#752);
#456=AXIS2_PLACEMENT_3D('',#617,#495,#496);
#457=AXIS2_PLACEMENT_3D('',#618,#497,#498);
#458=AXIS2_PLACEMENT_3D('',#620,#499,#500);
#459=AXIS2_PLACEMENT_3D('',#623,#502,#503);
#460=AXIS2_PLACEMENT_3D('',#624,#504,#505);
#461=AXIS2_PLACEMENT_3D('',#641,#514,#515);
#462=AXIS2_PLACEMENT_3D('',#643,#516,#517);
#463=AXIS2_PLACEMENT_3D('',#646,#519,#520);
#464=AXIS2_PLACEMENT_3D('',#647,#521,#522);
#465=AXIS2_PLACEMENT_3D('',#649,#523,#524);
#466=AXIS2_PLACEMENT_3D('',#652,#526,#527);
#467=AXIS2_PLACEMENT_3D('',#653,#528,#529);
#468=AXIS2_PLACEMENT_3D('',#655,#530,#531);
#469=AXIS2_PLACEMENT_3D('',#658,#533,#534);
#470=AXIS2_PLACEMENT_3D('',#659,#535,#536);
#471=AXIS2_PLACEMENT_3D('',#665,#540,#541);
#472=AXIS2_PLACEMENT_3D('',#671,#545,#546);
#473=AXIS2_PLACEMENT_3D('',#673,#548,#549);
#474=AXIS2_PLACEMENT_3D('',#682,#554,#555);
#475=AXIS2_PLACEMENT_3D('',#689,#560,#561);
#476=AXIS2_PLACEMENT_3D('',#695,#565,#566);
#477=AXIS2_PLACEMENT_3D('',#698,#569,#570);
#478=AXIS2_PLACEMENT_3D('',#700,#571,#572);
#479=AXIS2_PLACEMENT_3D('',#703,#574,#575);
#480=AXIS2_PLACEMENT_3D('',#704,#576,#577);
#481=AXIS2_PLACEMENT_3D('',#706,#578,#579);
#482=AXIS2_PLACEMENT_3D('',#708,#580,#581);
#483=AXIS2_PLACEMENT_3D('',#710,#583,#584);
#484=AXIS2_PLACEMENT_3D('',#716,#588,#589);
#485=AXIS2_PLACEMENT_3D('',#718,#590,#591);
#486=AXIS2_PLACEMENT_3D('',#720,#592,#593);
#487=AXIS2_PLACEMENT_3D('',#722,#595,#596);
#488=AXIS2_PLACEMENT_3D('',#728,#600,#601);
#489=AXIS2_PLACEMENT_3D('',#730,#602,#603);
#490=AXIS2_PLACEMENT_3D('',#732,#604,#605);
#491=AXIS2_PLACEMENT_3D('',#734,#607,#608);
#492=AXIS2_PLACEMENT_3D('',#737,#611,#612);
#493=AXIS2_PLACEMENT_3D('',#738,#613,#614);
#494=AXIS2_PLACEMENT_3D('',#739,#615,#616);
#495=DIRECTION('axis',(0.,0.,1.));
#496=DIRECTION('refdir',(1.,0.,0.));
#497=DIRECTION('center_axis',(0.,-1.,0.));
#498=DIRECTION('ref_axis',(-1.,0.,0.));
#499=DIRECTION('center_axis',(0.,-1.,0.));
#500=DIRECTION('ref_axis',(-1.,0.,0.));
#501=DIRECTION('',(0.,-1.,0.));
#502=DIRECTION('center_axis',(0.,1.,0.));
#503=DIRECTION('ref_axis',(-1.,0.,0.));
#504=DIRECTION('center_axis',(1.,0.,0.));
#505=DIRECTION('ref_axis',(0.,0.,-1.));
#506=DIRECTION('',(0.,-1.,0.));
#507=DIRECTION('',(0.,0.,1.));
#508=DIRECTION('',(0.,1.,0.));
#509=DIRECTION('',(0.,0.,-1.));
#510=DIRECTION('',(0.,1.,0.));
#511=DIRECTION('',(0.,0.,1.));
#512=DIRECTION('',(0.,1.,0.));
#513=DIRECTION('',(0.,0.,-1.));
#514=DIRECTION('center_axis',(0.,1.,0.));
#515=DIRECTION('ref_axis',(1.,0.,0.));
#516=DIRECTION('center_axis',(0.,1.,0.));
#517=DIRECTION('ref_axis',(1.,0.,0.));
#518=DIRECTION('',(0.,1.,0.));
#519=DIRECTION('center_axis',(0.,-1.,0.));
#520=DIRECTION('ref_axis',(1.,0.,0.));
#521=DIRECTION('center_axis',(0.,1.,0.));
#522=DIRECTION('ref_axis',(1.,0.,0.));
#523=DIRECTION('center_axis',(0.,1.,0.));
#524=DIRECTION('ref_axis',(1.,0.,0.));
#525=DIRECTION('',(0.,1.,0.));
#526=DIRECTION('center_axis',(0.,-1.,0.));
#527=DIRECTION('ref_axis',(1.,0.,0.));
#528=DIRECTION('center_axis',(0.,1.,0.));
#529=DIRECTION('ref_axis',(1.,0.,0.));
#530=DIRECTION('center_axis',(0.,1.,0.));
#531=DIRECTION('ref_axis',(1.,0.,0.));
#532=DIRECTION('',(0.,1.,0.));
#533=DIRECTION('center_axis',(0.,-1.,0.));
#534=DIRECTION('ref_axis',(1.,0.,0.));
#535=DIRECTION('center_axis',(0.,0.,-1.));
#536=DIRECTION('ref_axis',(0.,-1.,0.));
#537=DIRECTION('',(1.,0.,0.));
#538=DIRECTION('',(0.,1.,0.));
#539=DIRECTION('',(-1.,0.,0.));
#540=DIRECTION('center_axis',(0.,0.,1.));
#541=DIRECTION('ref_axis',(0.,1.,0.));
#542=DIRECTION('',(-1.,0.,0.));
#543=DIRECTION('',(0.,-1.,0.));
#544=DIRECTION('',(-1.,0.,0.));
#545=DIRECTION('center_axis',(0.,-1.,0.));
#546=DIRECTION('ref_axis',(0.,0.,1.));
#547=DIRECTION('',(0.,0.,-1.));
#548=DIRECTION('center_axis',(0.,0.,1.));
#549=DIRECTION('ref_axis',(1.,0.,0.));
#550=DIRECTION('',(-1.,0.,0.));
#551=DIRECTION('',(0.,1.,0.));
#552=DIRECTION('',(1.,0.,0.));
#553=DIRECTION('',(0.,1.,0.));
#554=DIRECTION('center_axis',(-1.,0.,0.));
#555=DIRECTION('ref_axis',(0.,0.,1.));
#556=DIRECTION('',(0.,0.,1.));
#557=DIRECTION('',(0.,0.,-1.));
#558=DIRECTION('',(0.,1.,0.));
#559=DIRECTION('',(0.,0.,1.));
#560=DIRECTION('center_axis',(1.,0.,0.));
#561=DIRECTION('ref_axis',(0.,0.,-1.));
#562=DIRECTION('',(0.,0.,1.));
#563=DIRECTION('',(0.,0.,-1.));
#564=DIRECTION('',(0.,1.,0.));
#565=DIRECTION('center_axis',(0.,0.,-1.));
#566=DIRECTION('ref_axis',(-1.,0.,0.));
#567=DIRECTION('',(1.,0.,0.));
#568=DIRECTION('',(-1.,0.,0.));
#569=DIRECTION('center_axis',(0.,1.,0.));
#570=DIRECTION('ref_axis',(1.,0.,0.));
#571=DIRECTION('center_axis',(0.,1.,0.));
#572=DIRECTION('ref_axis',(1.,0.,0.));
#573=DIRECTION('',(0.,1.,0.));
#574=DIRECTION('center_axis',(0.,1.,0.));
#575=DIRECTION('ref_axis',(1.,0.,0.));
#576=DIRECTION('center_axis',(0.,1.,0.));
#577=DIRECTION('ref_axis',(1.,0.,0.));
#578=DIRECTION('center_axis',(0.,1.,0.));
#579=DIRECTION('ref_axis',(1.,0.,0.));
#580=DIRECTION('center_axis',(0.,1.,0.));
#581=DIRECTION('ref_axis',(1.,0.,0.));
#582=DIRECTION('',(0.,1.,0.));
#583=DIRECTION('center_axis',(0.,0.,1.));
#584=DIRECTION('ref_axis',(1.,0.,0.));
#585=DIRECTION('',(-1.,0.,0.));
#586=DIRECTION('',(1.,0.,0.));
#587=DIRECTION('',(0.,1.,0.));
#588=DIRECTION('center_axis',(0.,1.,0.));
#589=DIRECTION('ref_axis',(1.,0.,0.));
#590=DIRECTION('center_axis',(0.,1.,0.));
#591=DIRECTION('ref_axis',(1.,0.,0.));
#592=DIRECTION('center_axis',(0.,1.,0.));
#593=DIRECTION('ref_axis',(1.,0.,0.));
#594=DIRECTION('',(0.,1.,0.));
#595=DIRECTION('center_axis',(-1.,0.,0.));
#596=DIRECTION('ref_axis',(0.,0.,1.));
#597=DIRECTION('',(0.,0.,1.));
#598=DIRECTION('',(0.,0.,1.));
#599=DIRECTION('',(0.,1.,0.));
#600=DIRECTION('center_axis',(0.,1.,0.));
#601=DIRECTION('ref_axis',(1.,0.,0.));
#602=DIRECTION('center_axis',(0.,1.,0.));
#603=DIRECTION('ref_axis',(1.,0.,0.));
#604=DIRECTION('center_axis',(0.,1.,0.));
#605=DIRECTION('ref_axis',(1.,0.,0.));
#606=DIRECTION('',(0.,1.,0.));
#607=DIRECTION('center_axis',(0.,0.,-1.));
#608=DIRECTION('ref_axis',(-1.,0.,0.));
#609=DIRECTION('',(1.,0.,0.));
#610=DIRECTION('',(-1.,0.,0.));
#611=DIRECTION('center_axis',(0.,1.,0.));
#612=DIRECTION('ref_axis',(1.,0.,0.));
#613=DIRECTION('center_axis',(0.,1.,0.));
#614=DIRECTION('ref_axis',(1.,0.,0.));
#615=DIRECTION('center_axis',(0.,1.,0.));
#616=DIRECTION('ref_axis',(1.,0.,0.));
#617=CARTESIAN_POINT('',(0.,0.,0.));
#618=CARTESIAN_POINT('Origin',(-70.9999984465539,13.,-1.5));
#619=CARTESIAN_POINT('',(-69.649998446554,13.,-1.5));
#620=CARTESIAN_POINT('Origin',(-70.9999984465539,13.,-1.5));
#621=CARTESIAN_POINT('',(-69.649998446554,0.,-1.5));
#622=CARTESIAN_POINT('',(-69.649998446554,13.,-1.5));
#623=CARTESIAN_POINT('Origin',(-70.9999984465539,0.,-1.5));
#624=CARTESIAN_POINT('Origin',(5.5,0.,101.999997720122));
#625=CARTESIAN_POINT('',(5.5,13.,79.4999977201223));
#626=CARTESIAN_POINT('',(5.5,5.,79.4999977201223));
#627=CARTESIAN_POINT('',(5.5,5.5,79.4999977201223));
#628=CARTESIAN_POINT('',(5.5,5.,94.4999977201223));
#629=CARTESIAN_POINT('',(5.5,5.,90.7499977201223));
#630=CARTESIAN_POINT('',(5.5,13.,94.4999977201223));
#631=CARTESIAN_POINT('',(5.5,5.5,94.4999977201223));
#632=CARTESIAN_POINT('',(5.49999999999869,13.,101.999997720122));
#633=CARTESIAN_POINT('',(5.5,13.,0.));
#634=CARTESIAN_POINT('',(5.49999999999869,0.,101.999997720122));
#635=CARTESIAN_POINT('',(5.49999999999869,0.,101.999997720122));
#636=CARTESIAN_POINT('',(5.5,0.,0.));
#637=CARTESIAN_POINT('',(5.5,0.,0.));
#638=CARTESIAN_POINT('',(5.5,13.,0.));
#639=CARTESIAN_POINT('',(5.5,0.,0.));
#640=CARTESIAN_POINT('',(5.5,13.,0.));
#641=CARTESIAN_POINT('Origin',(1.52734572831829,0.,103.499997686595));
#642=CARTESIAN_POINT('',(0.177345728318294,0.,103.499997686595));
#643=CARTESIAN_POINT('Origin',(1.52734572831829,0.,103.499997686595));
#644=CARTESIAN_POINT('',(0.177345728318294,13.,103.499997686595));
#645=CARTESIAN_POINT('',(0.177345728318294,0.,103.499997686595));
#646=CARTESIAN_POINT('Origin',(1.52734572831829,13.,103.499997686595));
#647=CARTESIAN_POINT('Origin',(-70.9999984465539,0.,103.499997720122));
#648=CARTESIAN_POINT('',(-72.3499984465539,0.,103.499997720122));
#649=CARTESIAN_POINT('Origin',(-70.9999984465539,0.,103.499997720122));
#650=CARTESIAN_POINT('',(-72.3499984465539,13.,103.499997720122));
#651=CARTESIAN_POINT('',(-72.3499984465539,0.,103.499997720122));
#652=CARTESIAN_POINT('Origin',(-70.9999984465539,13.,103.499997720122));
#653=CARTESIAN_POINT('Origin',(1.5,0.,-1.5));
#654=CARTESIAN_POINT('',(0.15,0.,-1.5));
#655=CARTESIAN_POINT('Origin',(1.5,0.,-1.5));
#656=CARTESIAN_POINT('',(0.15,13.,-1.5));
#657=CARTESIAN_POINT('',(0.15,0.,-1.5));
#658=CARTESIAN_POINT('Origin',(1.5,13.,-1.5));
#659=CARTESIAN_POINT('Origin',(5.5,11.,79.4999977201223));
#660=CARTESIAN_POINT('',(-1.11022302462516E-15,13.,79.4999977201223));
#661=CARTESIAN_POINT('',(2.75,13.,79.4999977201223));
#662=CARTESIAN_POINT('',(0.,5.,79.4999977201223));
#663=CARTESIAN_POINT('',(0.,5.5,79.4999977201223));
#664=CARTESIAN_POINT('',(5.5,5.,79.4999977201223));
#665=CARTESIAN_POINT('Origin',(5.5,5.,94.4999977201223));
#666=CARTESIAN_POINT('',(0.,5.,94.4999977201223));
#667=CARTESIAN_POINT('',(5.5,5.,94.4999977201223));
#668=CARTESIAN_POINT('',(-1.11022302462516E-15,13.,94.4999977201223));
#669=CARTESIAN_POINT('',(0.,5.5,94.4999977201223));
#670=CARTESIAN_POINT('',(2.75,13.,94.4999977201223));
#671=CARTESIAN_POINT('Origin',(5.5,5.,79.4999977201223));
#672=CARTESIAN_POINT('',(0.,5.,39.7499988600612));
#673=CARTESIAN_POINT('Origin',(-69.4999984465539,0.,0.));
#674=CARTESIAN_POINT('',(0.,3.,0.));
#675=CARTESIAN_POINT('',(-69.5,3.,0.));
#676=CARTESIAN_POINT('',(0.,3.,0.));
#677=CARTESIAN_POINT('',(0.,13.,0.));
#678=CARTESIAN_POINT('',(0.,0.,0.));
#679=CARTESIAN_POINT('',(-69.4999984465539,13.,0.));
#680=CARTESIAN_POINT('',(0.,13.,0.));
#681=CARTESIAN_POINT('',(-69.4999984465539,0.,0.));
#682=CARTESIAN_POINT('Origin',(0.,0.,0.));
#683=CARTESIAN_POINT('',(0.,13.,101.999997720122));
#684=CARTESIAN_POINT('',(0.,3.,102.));
#685=CARTESIAN_POINT('',(0.,3.,102.));
#686=CARTESIAN_POINT('',(0.,13.,102.000001519918));
#687=CARTESIAN_POINT('',(0.,0.,102.000001519918));
#688=CARTESIAN_POINT('',(0.,13.,101.999997720122));
#689=CARTESIAN_POINT('Origin',(-69.4999984465539,0.,102.000001519918));
#690=CARTESIAN_POINT('',(-69.5,3.,102.));
#691=CARTESIAN_POINT('',(-69.5,3.,0.));
#692=CARTESIAN_POINT('',(-69.4999984465539,13.,102.000001519918));
#693=CARTESIAN_POINT('',(-69.4999984465539,13.,102.000001519918));
#694=CARTESIAN_POINT('',(-69.4999984465539,0.,102.000001519918));
#695=CARTESIAN_POINT('Origin',(0.,0.,102.000001519918));
#696=CARTESIAN_POINT('',(-69.5,3.,102.));
#697=CARTESIAN_POINT('',(-69.4999984465539,13.,102.000001519918));
#698=CARTESIAN_POINT('Origin',(0.,0.,0.));
#699=CARTESIAN_POINT('',(1.68388934882761E-15,0.,-5.5));
#700=CARTESIAN_POINT('Origin',(0.,0.,0.));
#701=CARTESIAN_POINT('',(0.,13.,-5.5));
#702=CARTESIAN_POINT('',(1.68388934882761E-15,0.,-5.5));
#703=CARTESIAN_POINT('Origin',(0.,13.,0.));
#704=CARTESIAN_POINT('Origin',(0.,0.,102.000001519918));
#705=CARTESIAN_POINT('',(-1.01033360929657E-15,0.,107.500001519918));
#706=CARTESIAN_POINT('Origin',(0.,0.,102.000001519918));
#707=CARTESIAN_POINT('',(0.,13.,107.500001519918));
#708=CARTESIAN_POINT('Origin',(0.,13.,102.000001519918));
#709=CARTESIAN_POINT('',(-1.01033360929657E-15,0.,107.500001519918));
#710=CARTESIAN_POINT('Origin',(-69.4999984465539,0.,107.500001519918));
#711=CARTESIAN_POINT('',(-69.4999984465539,0.,107.500001519918));
#712=CARTESIAN_POINT('',(0.,0.,107.500001519918));
#713=CARTESIAN_POINT('',(-69.4999984465539,13.,107.500001519918));
#714=CARTESIAN_POINT('',(0.,13.,107.500001519918));
#715=CARTESIAN_POINT('',(-69.4999984465539,0.,107.500001519918));
#716=CARTESIAN_POINT('Origin',(-69.4999984465539,0.,102.000001519918));
#717=CARTESIAN_POINT('',(-74.9999984465539,0.,102.000001519918));
#718=CARTESIAN_POINT('Origin',(-69.4999984465539,0.,102.000001519918));
#719=CARTESIAN_POINT('',(-74.9999984465539,13.,102.000001519918));
#720=CARTESIAN_POINT('Origin',(-69.4999984465539,13.,102.000001519918));
#721=CARTESIAN_POINT('',(-74.9999984465539,0.,102.000001519918));
#722=CARTESIAN_POINT('Origin',(-74.9999984465539,0.,0.));
#723=CARTESIAN_POINT('',(-74.9999984465539,0.,-6.73555739531044E-16));
#724=CARTESIAN_POINT('',(-74.9999984465539,0.,0.));
#725=CARTESIAN_POINT('',(-74.9999984465539,13.,-1.11022302462516E-15));
#726=CARTESIAN_POINT('',(-74.9999984465539,13.,0.));
#727=CARTESIAN_POINT('',(-74.9999984465539,0.,-6.73555739531044E-16));
#728=CARTESIAN_POINT('Origin',(-69.4999984465539,0.,0.));
#729=CARTESIAN_POINT('',(-69.4999984465539,0.,-5.5));
#730=CARTESIAN_POINT('Origin',(-69.4999984465539,0.,0.));
#731=CARTESIAN_POINT('',(-69.4999984465539,13.,-5.5));
#732=CARTESIAN_POINT('Origin',(-69.4999984465539,13.,0.));
#733=CARTESIAN_POINT('',(-69.4999984465539,0.,-5.5));
#734=CARTESIAN_POINT('Origin',(0.,0.,-5.5));
#735=CARTESIAN_POINT('',(-69.4999984465539,0.,-5.5));
#736=CARTESIAN_POINT('',(-69.4999984465539,13.,-5.5));
#737=CARTESIAN_POINT('Origin',(0.,13.,51.0000007599592));
#738=CARTESIAN_POINT('Origin',(-34.75,3.,51.));
#739=CARTESIAN_POINT('Origin',(-34.75,0.,51.));
#740=UNCERTAINTY_MEASURE_WITH_UNIT(LENGTH_MEASURE(0.01),#744,
'DISTANCE_ACCURACY_VALUE',
'Maximum model space distance between geometric entities at asserted c
onnectivities');
#741=UNCERTAINTY_MEASURE_WITH_UNIT(LENGTH_MEASURE(0.01),#744,
'DISTANCE_ACCURACY_VALUE',
'Maximum model space distance between geometric entities at asserted c
onnectivities');
#742=(
GEOMETRIC_REPRESENTATION_CONTEXT(3)
GLOBAL_UNCERTAINTY_ASSIGNED_CONTEXT((#740))
GLOBAL_UNIT_ASSIGNED_CONTEXT((#744,#746,#747))
REPRESENTATION_CONTEXT('','3D')
);
#743=(
GEOMETRIC_REPRESENTATION_CONTEXT(3)
GLOBAL_UNCERTAINTY_ASSIGNED_CONTEXT((#741))
GLOBAL_UNIT_ASSIGNED_CONTEXT((#744,#746,#747))
REPRESENTATION_CONTEXT('','3D')
);
#744=(
LENGTH_UNIT()
NAMED_UNIT(*)
SI_UNIT(.MILLI.,.METRE.)
);
#745=(
LENGTH_UNIT()
NAMED_UNIT(*)
SI_UNIT($,.METRE.)
);
#746=(
NAMED_UNIT(*)
PLANE_ANGLE_UNIT()
SI_UNIT($,.RADIAN.)
);
#747=(
NAMED_UNIT(*)
SI_UNIT($,.STERADIAN.)
SOLID_ANGLE_UNIT()
);
#748=SHAPE_DEFINITION_REPRESENTATION(#749,#750);
#749=PRODUCT_DEFINITION_SHAPE('',$,#752);
#750=SHAPE_REPRESENTATION('',(#456),#742);
#751=PRODUCT_DEFINITION_CONTEXT('part definition',#756,'design');
#752=PRODUCT_DEFINITION('2026-08-25-04-12-35-498','bottom case',#753,#751);
#753=PRODUCT_DEFINITION_FORMATION('',$,#758);
#754=PRODUCT_RELATED_PRODUCT_CATEGORY('bottom case','bottom case',(#758));
#755=APPLICATION_PROTOCOL_DEFINITION('international standard',
'automotive_design',2009,#756);
#756=APPLICATION_CONTEXT(
'Core Data for Automotive Mechanical Design Process');
#757=PRODUCT_CONTEXT('part definition',#756,'mechanical');
#758=PRODUCT('2026-08-25-04-12-35-498','bottom case',$,(#757));
#759=PRESENTATION_STYLE_ASSIGNMENT((#760));
#760=SURFACE_STYLE_USAGE(.BOTH.,#761);
#761=SURFACE_SIDE_STYLE('',(#762));
#762=SURFACE_STYLE_FILL_AREA(#763);
#763=FILL_AREA_STYLE('Steel - Satin',(#764));
#764=FILL_AREA_STYLE_COLOUR('Steel - Satin',#765);
#765=COLOUR_RGB('Steel - Satin',0.627450980392157,0.627450980392157,0.627450980392157);
ENDSEC;
END-ISO-10303-21;
