ISO-10303-21;
HEADER;
/* Generated by software containing ST-Developer
 * from STEP Tools, Inc. (www.steptools.com) 
 */

FILE_DESCRIPTION(
/* description */ (''),
/* implementation_level */ '2;1');

FILE_NAME(
/* name */ 'top case.step',
/* time_stamp */ '2026-08-25T22:33:43+05:30',
/* author */ (''),
/* organization */ (''),
/* preprocessor_version */ 'ST-DEVELOPER v20.1',
/* originating_system */ 'Autodesk Translation Framework v15.8.0.0',
/* authorisation */ '');

FILE_SCHEMA (('AUTOMOTIVE_DESIGN { 1 0 10303 214 3 1 1 }'));
ENDSEC;

DATA;
#10=MECHANICAL_DESIGN_GEOMETRIC_PRESENTATION_REPRESENTATION('',(#13),#2114);
#11=SHAPE_REPRESENTATION_RELATIONSHIP('SRR','None',#2121,#12);
#12=ADVANCED_BREP_SHAPE_REPRESENTATION('',(#14),#2113);
#13=STYLED_ITEM('',(#2130),#14);
#14=MANIFOLD_SOLID_BREP('Body1',#1160);
#15=B_SPLINE_CURVE_WITH_KNOTS('',3,(#1922,#1923,#1924,#1925,#1926,#1927),
 .UNSPECIFIED.,.F.,.F.,(4,2,4),(2.76526598149997,2.8555316747827,2.8975813619694),
 .UNSPECIFIED.);
#16=B_SPLINE_CURVE_WITH_KNOTS('',3,(#1928,#1929,#1930,#1931,#1932,#1933,
#1934,#1935,#1936,#1937,#1938,#1939,#1940,#1941,#1942,#1943),
 .UNSPECIFIED.,.F.,.F.,(4,2,2,2,2,2,2,4),(2.8975813619694,2.94923000598671,
3.03986123072319,3.11896999806772,3.21123521876961,3.29628386137569,3.38154475774003,
3.40049923389479),.UNSPECIFIED.);
#17=B_SPLINE_CURVE_WITH_KNOTS('',3,(#1953,#1954,#1955,#1956,#1957,#1958,
#1959,#1960,#1961,#1962,#1963,#1964,#1965,#1966),.UNSPECIFIED.,.F.,.F.,
(4,2,2,2,2,2,4),(2.76526577436161,2.8555314772243,2.94922980433331,3.03986100859037,
3.11896984682253,3.21123508163093,3.26827181909379),.UNSPECIFIED.);
#18=B_SPLINE_CURVE_WITH_KNOTS('',3,(#1967,#1968,#1969,#1970,#1971,#1972,
#1973,#1974),.UNSPECIFIED.,.F.,.F.,(4,2,2,4),(3.26827181909379,3.29628373109147,
3.38154461763183,3.40049871309338),.UNSPECIFIED.);
#19=B_SPLINE_CURVE_WITH_KNOTS('',3,(#1983,#1984,#1985,#1986,#1987,#1988,
#1989,#1990,#1991,#1992,#1993,#1994,#1995,#1996,#1997,#1998,#1999,#2000),
 .UNSPECIFIED.,.F.,.F.,(4,2,2,2,2,2,2,2,4),(2.13215809455121,2.18371975540313,
2.27684398359804,2.36976186571959,2.4517828348281,2.53676070541118,2.62105388813521,
2.69925608738368,2.76766752295467),.UNSPECIFIED.);
#20=B_SPLINE_CURVE_WITH_KNOTS('',3,(#2009,#2010,#2011,#2012,#2013,#2014,
#2015,#2016,#2017,#2018,#2019,#2020,#2021,#2022,#2023,#2024,#2025,#2026),
 .UNSPECIFIED.,.F.,.F.,(4,2,2,2,2,2,2,2,4),(2.13215809455051,2.18371975540241,
2.27684398359729,2.3697618657188,2.45178283482731,2.53676070541037,2.62105388813435,
2.69925608738278,2.76766752295376),.UNSPECIFIED.);
#21=ELLIPSE('',#1257,1.4142135623731,1.);
#22=ELLIPSE('',#1258,1.41421356237309,1.);
#23=ELLIPSE('',#1260,1.4142135623731,1.);
#24=ELLIPSE('',#1262,1.41421356237309,1.);
#25=CYLINDRICAL_SURFACE('',#1202,5.);
#26=CYLINDRICAL_SURFACE('',#1204,1.);
#27=CYLINDRICAL_SURFACE('',#1210,1.);
#28=CYLINDRICAL_SURFACE('',#1215,1.);
#29=CYLINDRICAL_SURFACE('',#1220,1.);
#30=CYLINDRICAL_SURFACE('',#1224,5.);
#31=CYLINDRICAL_SURFACE('',#1227,5.);
#32=CYLINDRICAL_SURFACE('',#1230,1.);
#33=CYLINDRICAL_SURFACE('',#1236,1.);
#34=CYLINDRICAL_SURFACE('',#1241,1.);
#35=CYLINDRICAL_SURFACE('',#1246,1.);
#36=CYLINDRICAL_SURFACE('',#1250,1.);
#37=CYLINDRICAL_SURFACE('',#1253,1.);
#38=CYLINDRICAL_SURFACE('',#1256,1.);
#39=CYLINDRICAL_SURFACE('',#1259,1.);
#40=CYLINDRICAL_SURFACE('',#1261,1.);
#41=CYLINDRICAL_SURFACE('',#1263,1.);
#42=CYLINDRICAL_SURFACE('',#1266,2.);
#43=CYLINDRICAL_SURFACE('',#1272,2.);
#44=CYLINDRICAL_SURFACE('',#1277,2.);
#45=CYLINDRICAL_SURFACE('',#1282,2.);
#46=CYLINDRICAL_SURFACE('',#1286,5.5);
#47=CYLINDRICAL_SURFACE('',#1289,5.5);
#48=CYLINDRICAL_SURFACE('',#1292,2.35);
#49=CYLINDRICAL_SURFACE('',#1294,2.35);
#50=CYLINDRICAL_SURFACE('',#1297,1.49999999999999);
#51=CYLINDRICAL_SURFACE('',#1300,0.999999999999996);
#52=CYLINDRICAL_SURFACE('',#1304,4.00000000000001);
#53=CYLINDRICAL_SURFACE('',#1307,5.);
#54=CYLINDRICAL_SURFACE('',#1310,2.35);
#55=CYLINDRICAL_SURFACE('',#1312,2.35);
#56=CYLINDRICAL_SURFACE('',#1315,5.5);
#57=CYLINDRICAL_SURFACE('',#1318,5.5);
#58=FACE_BOUND('',#316,.T.);
#59=FACE_BOUND('',#317,.T.);
#60=FACE_BOUND('',#318,.T.);
#61=FACE_BOUND('',#319,.T.);
#62=FACE_BOUND('',#382,.T.);
#63=FACE_BOUND('',#383,.T.);
#64=FACE_BOUND('',#384,.T.);
#65=FACE_BOUND('',#385,.T.);
#66=FACE_BOUND('',#386,.T.);
#67=FACE_BOUND('',#387,.T.);
#68=FACE_BOUND('',#388,.T.);
#69=FACE_BOUND('',#389,.T.);
#70=LINE('',#1712,#151);
#71=LINE('',#1722,#152);
#72=LINE('',#1732,#153);
#73=LINE('',#1740,#154);
#74=LINE('',#1746,#155);
#75=LINE('',#1750,#156);
#76=LINE('',#1754,#157);
#77=LINE('',#1758,#158);
#78=LINE('',#1762,#159);
#79=LINE('',#1764,#160);
#80=LINE('',#1766,#161);
#81=LINE('',#1767,#162);
#82=LINE('',#1770,#163);
#83=LINE('',#1774,#164);
#84=LINE('',#1778,#165);
#85=LINE('',#1782,#166);
#86=LINE('',#1786,#167);
#87=LINE('',#1792,#168);
#88=LINE('',#1801,#169);
#89=LINE('',#1809,#170);
#90=LINE('',#1817,#171);
#91=LINE('',#1822,#172);
#92=LINE('',#1825,#173);
#93=LINE('',#1828,#174);
#94=LINE('',#1829,#175);
#95=LINE('',#1832,#176);
#96=LINE('',#1836,#177);
#97=LINE('',#1837,#178);
#98=LINE('',#1842,#179);
#99=LINE('',#1851,#180);
#100=LINE('',#1859,#181);
#101=LINE('',#1867,#182);
#102=LINE('',#1872,#183);
#103=LINE('',#1875,#184);
#104=LINE('',#1878,#185);
#105=LINE('',#1879,#186);
#106=LINE('',#1882,#187);
#107=LINE('',#1886,#188);
#108=LINE('',#1887,#189);
#109=LINE('',#1892,#190);
#110=LINE('',#1897,#191);
#111=LINE('',#1900,#192);
#112=LINE('',#1903,#193);
#113=LINE('',#1906,#194);
#114=LINE('',#1908,#195);
#115=LINE('',#1909,#196);
#116=LINE('',#1912,#197);
#117=LINE('',#1913,#198);
#118=LINE('',#1918,#199);
#119=LINE('',#1950,#200);
#120=LINE('',#1981,#201);
#121=LINE('',#2007,#202);
#122=LINE('',#2030,#203);
#123=LINE('',#2033,#204);
#124=LINE('',#2036,#205);
#125=LINE('',#2037,#206);
#126=LINE('',#2040,#207);
#127=LINE('',#2044,#208);
#128=LINE('',#2045,#209);
#129=LINE('',#2048,#210);
#130=LINE('',#2052,#211);
#131=LINE('',#2056,#212);
#132=LINE('',#2058,#213);
#133=LINE('',#2059,#214);
#134=LINE('',#2062,#215);
#135=LINE('',#2065,#216);
#136=LINE('',#2070,#217);
#137=LINE('',#2071,#218);
#138=LINE('',#2073,#219);
#139=LINE('',#2076,#220);
#140=LINE('',#2080,#221);
#141=LINE('',#2081,#222);
#142=LINE('',#2084,#223);
#143=LINE('',#2087,#224);
#144=LINE('',#2090,#225);
#145=LINE('',#2094,#226);
#146=LINE('',#2098,#227);
#147=LINE('',#2099,#228);
#148=LINE('',#2102,#229);
#149=LINE('',#2106,#230);
#150=LINE('',#2107,#231);
#151=VECTOR('',#1337,10.);
#152=VECTOR('',#1346,10.);
#153=VECTOR('',#1355,10.);
#154=VECTOR('',#1362,10.);
#155=VECTOR('',#1367,10.);
#156=VECTOR('',#1370,10.);
#157=VECTOR('',#1373,10.);
#158=VECTOR('',#1376,10.);
#159=VECTOR('',#1379,10.);
#160=VECTOR('',#1380,10.);
#161=VECTOR('',#1381,10.);
#162=VECTOR('',#1382,10.);
#163=VECTOR('',#1383,10.);
#164=VECTOR('',#1386,10.);
#165=VECTOR('',#1389,10.);
#166=VECTOR('',#1392,10.);
#167=VECTOR('',#1397,5.);
#168=VECTOR('',#1404,10.);
#169=VECTOR('',#1417,10.);
#170=VECTOR('',#1428,10.);
#171=VECTOR('',#1439,10.);
#172=VECTOR('',#1446,10.);
#173=VECTOR('',#1449,10.);
#174=VECTOR('',#1452,10.);
#175=VECTOR('',#1453,10.);
#176=VECTOR('',#1456,10.);
#177=VECTOR('',#1461,10.);
#178=VECTOR('',#1462,10.);
#179=VECTOR('',#1467,10.);
#180=VECTOR('',#1480,10.);
#181=VECTOR('',#1491,10.);
#182=VECTOR('',#1502,10.);
#183=VECTOR('',#1509,10.);
#184=VECTOR('',#1512,10.);
#185=VECTOR('',#1515,10.);
#186=VECTOR('',#1516,10.);
#187=VECTOR('',#1519,10.);
#188=VECTOR('',#1524,10.);
#189=VECTOR('',#1525,10.);
#190=VECTOR('',#1530,10.);
#191=VECTOR('',#1537,10.);
#192=VECTOR('',#1540,10.);
#193=VECTOR('',#1545,10.);
#194=VECTOR('',#1548,10.);
#195=VECTOR('',#1549,10.);
#196=VECTOR('',#1550,10.);
#197=VECTOR('',#1553,10.);
#198=VECTOR('',#1554,10.);
#199=VECTOR('',#1559,10.);
#200=VECTOR('',#1572,10.);
#201=VECTOR('',#1583,10.);
#202=VECTOR('',#1594,10.);
#203=VECTOR('',#1601,10.);
#204=VECTOR('',#1604,10.);
#205=VECTOR('',#1607,10.);
#206=VECTOR('',#1608,10.);
#207=VECTOR('',#1611,10.);
#208=VECTOR('',#1616,10.);
#209=VECTOR('',#1617,10.);
#210=VECTOR('',#1620,2.35);
#211=VECTOR('',#1625,2.35);
#212=VECTOR('',#1630,10.);
#213=VECTOR('',#1631,10.);
#214=VECTOR('',#1632,10.);
#215=VECTOR('',#1635,10.);
#216=VECTOR('',#1640,10.);
#217=VECTOR('',#1647,10.);
#218=VECTOR('',#1648,10.);
#219=VECTOR('',#1651,10.);
#220=VECTOR('',#1654,10.);
#221=VECTOR('',#1659,10.);
#222=VECTOR('',#1660,10.);
#223=VECTOR('',#1663,10.);
#224=VECTOR('',#1668,10.);
#225=VECTOR('',#1671,2.35);
#226=VECTOR('',#1676,2.35);
#227=VECTOR('',#1681,10.);
#228=VECTOR('',#1682,10.);
#229=VECTOR('',#1685,10.);
#230=VECTOR('',#1690,10.);
#231=VECTOR('',#1691,10.);
#232=PLANE('',#1179);
#233=PLANE('',#1226);
#234=PLANE('',#1229);
#235=PLANE('',#1252);
#236=PLANE('',#1255);
#237=PLANE('',#1264);
#238=PLANE('',#1265);
#239=PLANE('',#1288);
#240=PLANE('',#1291);
#241=PLANE('',#1296);
#242=PLANE('',#1299);
#243=PLANE('',#1302);
#244=PLANE('',#1303);
#245=PLANE('',#1306);
#246=PLANE('',#1309);
#247=PLANE('',#1314);
#248=PLANE('',#1317);
#249=PLANE('',#1320);
#250=FACE_OUTER_BOUND('',#314,.T.);
#251=FACE_OUTER_BOUND('',#315,.T.);
#252=FACE_OUTER_BOUND('',#320,.T.);
#253=FACE_OUTER_BOUND('',#321,.T.);
#254=FACE_OUTER_BOUND('',#322,.T.);
#255=FACE_OUTER_BOUND('',#323,.T.);
#256=FACE_OUTER_BOUND('',#324,.T.);
#257=FACE_OUTER_BOUND('',#325,.T.);
#258=FACE_OUTER_BOUND('',#326,.T.);
#259=FACE_OUTER_BOUND('',#327,.T.);
#260=FACE_OUTER_BOUND('',#328,.T.);
#261=FACE_OUTER_BOUND('',#329,.T.);
#262=FACE_OUTER_BOUND('',#330,.T.);
#263=FACE_OUTER_BOUND('',#331,.T.);
#264=FACE_OUTER_BOUND('',#332,.T.);
#265=FACE_OUTER_BOUND('',#333,.T.);
#266=FACE_OUTER_BOUND('',#334,.T.);
#267=FACE_OUTER_BOUND('',#335,.T.);
#268=FACE_OUTER_BOUND('',#336,.T.);
#269=FACE_OUTER_BOUND('',#337,.T.);
#270=FACE_OUTER_BOUND('',#338,.T.);
#271=FACE_OUTER_BOUND('',#339,.T.);
#272=FACE_OUTER_BOUND('',#340,.T.);
#273=FACE_OUTER_BOUND('',#341,.T.);
#274=FACE_OUTER_BOUND('',#342,.T.);
#275=FACE_OUTER_BOUND('',#343,.T.);
#276=FACE_OUTER_BOUND('',#344,.T.);
#277=FACE_OUTER_BOUND('',#345,.T.);
#278=FACE_OUTER_BOUND('',#346,.T.);
#279=FACE_OUTER_BOUND('',#347,.T.);
#280=FACE_OUTER_BOUND('',#348,.T.);
#281=FACE_OUTER_BOUND('',#349,.T.);
#282=FACE_OUTER_BOUND('',#350,.T.);
#283=FACE_OUTER_BOUND('',#351,.T.);
#284=FACE_OUTER_BOUND('',#352,.T.);
#285=FACE_OUTER_BOUND('',#353,.T.);
#286=FACE_OUTER_BOUND('',#354,.T.);
#287=FACE_OUTER_BOUND('',#355,.T.);
#288=FACE_OUTER_BOUND('',#356,.T.);
#289=FACE_OUTER_BOUND('',#357,.T.);
#290=FACE_OUTER_BOUND('',#358,.T.);
#291=FACE_OUTER_BOUND('',#359,.T.);
#292=FACE_OUTER_BOUND('',#360,.T.);
#293=FACE_OUTER_BOUND('',#361,.T.);
#294=FACE_OUTER_BOUND('',#362,.T.);
#295=FACE_OUTER_BOUND('',#363,.T.);
#296=FACE_OUTER_BOUND('',#364,.T.);
#297=FACE_OUTER_BOUND('',#365,.T.);
#298=FACE_OUTER_BOUND('',#366,.T.);
#299=FACE_OUTER_BOUND('',#367,.T.);
#300=FACE_OUTER_BOUND('',#368,.T.);
#301=FACE_OUTER_BOUND('',#369,.T.);
#302=FACE_OUTER_BOUND('',#370,.T.);
#303=FACE_OUTER_BOUND('',#371,.T.);
#304=FACE_OUTER_BOUND('',#372,.T.);
#305=FACE_OUTER_BOUND('',#373,.T.);
#306=FACE_OUTER_BOUND('',#374,.T.);
#307=FACE_OUTER_BOUND('',#375,.T.);
#308=FACE_OUTER_BOUND('',#376,.T.);
#309=FACE_OUTER_BOUND('',#377,.T.);
#310=FACE_OUTER_BOUND('',#378,.T.);
#311=FACE_OUTER_BOUND('',#379,.T.);
#312=FACE_OUTER_BOUND('',#380,.T.);
#313=FACE_OUTER_BOUND('',#381,.T.);
#314=EDGE_LOOP('',(#743,#744,#745,#746,#747));
#315=EDGE_LOOP('',(#748,#749,#750,#751,#752,#753,#754,#755,#756,#757,#758,
#759,#760,#761,#762,#763,#764,#765));
#316=EDGE_LOOP('',(#766,#767,#768,#769,#770,#771,#772,#773));
#317=EDGE_LOOP('',(#774,#775,#776,#777));
#318=EDGE_LOOP('',(#778,#779,#780,#781,#782,#783,#784,#785));
#319=EDGE_LOOP('',(#786));
#320=EDGE_LOOP('',(#787,#788,#789,#790,#791));
#321=EDGE_LOOP('',(#792,#793,#794,#795));
#322=EDGE_LOOP('',(#796,#797,#798,#799));
#323=EDGE_LOOP('',(#800,#801,#802,#803));
#324=EDGE_LOOP('',(#804,#805,#806,#807));
#325=EDGE_LOOP('',(#808,#809,#810,#811));
#326=EDGE_LOOP('',(#812,#813,#814,#815));
#327=EDGE_LOOP('',(#816,#817,#818,#819));
#328=EDGE_LOOP('',(#820,#821,#822,#823));
#329=EDGE_LOOP('',(#824,#825,#826,#827));
#330=EDGE_LOOP('',(#828,#829,#830,#831));
#331=EDGE_LOOP('',(#832,#833,#834,#835));
#332=EDGE_LOOP('',(#836,#837,#838,#839));
#333=EDGE_LOOP('',(#840,#841,#842,#843));
#334=EDGE_LOOP('',(#844,#845,#846,#847));
#335=EDGE_LOOP('',(#848,#849,#850,#851));
#336=EDGE_LOOP('',(#852,#853,#854,#855));
#337=EDGE_LOOP('',(#856,#857,#858,#859));
#338=EDGE_LOOP('',(#860,#861,#862,#863));
#339=EDGE_LOOP('',(#864,#865,#866,#867));
#340=EDGE_LOOP('',(#868,#869,#870,#871));
#341=EDGE_LOOP('',(#872,#873,#874,#875));
#342=EDGE_LOOP('',(#876,#877,#878,#879));
#343=EDGE_LOOP('',(#880,#881,#882,#883));
#344=EDGE_LOOP('',(#884,#885,#886,#887));
#345=EDGE_LOOP('',(#888,#889,#890,#891));
#346=EDGE_LOOP('',(#892,#893,#894,#895));
#347=EDGE_LOOP('',(#896,#897,#898,#899));
#348=EDGE_LOOP('',(#900,#901,#902,#903));
#349=EDGE_LOOP('',(#904,#905,#906,#907));
#350=EDGE_LOOP('',(#908,#909,#910,#911));
#351=EDGE_LOOP('',(#912,#913,#914,#915));
#352=EDGE_LOOP('',(#916,#917,#918,#919,#920,#921,#922));
#353=EDGE_LOOP('',(#923,#924,#925,#926));
#354=EDGE_LOOP('',(#927,#928,#929,#930,#931,#932,#933));
#355=EDGE_LOOP('',(#934,#935,#936,#937));
#356=EDGE_LOOP('',(#938,#939,#940,#941,#942,#943));
#357=EDGE_LOOP('',(#944,#945,#946,#947));
#358=EDGE_LOOP('',(#948,#949,#950,#951,#952,#953));
#359=EDGE_LOOP('',(#954,#955,#956,#957));
#360=EDGE_LOOP('',(#958,#959,#960,#961));
#361=EDGE_LOOP('',(#962,#963,#964,#965));
#362=EDGE_LOOP('',(#966,#967,#968,#969));
#363=EDGE_LOOP('',(#970,#971,#972,#973,#974,#975));
#364=EDGE_LOOP('',(#976,#977,#978,#979,#980,#981));
#365=EDGE_LOOP('',(#982,#983,#984,#985));
#366=EDGE_LOOP('',(#986,#987,#988,#989));
#367=EDGE_LOOP('',(#990,#991,#992,#993));
#368=EDGE_LOOP('',(#994,#995,#996,#997));
#369=EDGE_LOOP('',(#998,#999,#1000,#1001));
#370=EDGE_LOOP('',(#1002,#1003,#1004,#1005));
#371=EDGE_LOOP('',(#1006,#1007,#1008,#1009));
#372=EDGE_LOOP('',(#1010,#1011,#1012,#1013));
#373=EDGE_LOOP('',(#1014,#1015,#1016,#1017));
#374=EDGE_LOOP('',(#1018,#1019,#1020,#1021));
#375=EDGE_LOOP('',(#1022,#1023,#1024,#1025,#1026,#1027));
#376=EDGE_LOOP('',(#1028,#1029,#1030,#1031,#1032,#1033));
#377=EDGE_LOOP('',(#1034,#1035,#1036,#1037));
#378=EDGE_LOOP('',(#1038,#1039,#1040,#1041));
#379=EDGE_LOOP('',(#1042,#1043,#1044,#1045));
#380=EDGE_LOOP('',(#1046,#1047,#1048,#1049));
#381=EDGE_LOOP('',(#1050,#1051,#1052,#1053,#1054,#1055,#1056,#1057));
#382=EDGE_LOOP('',(#1058));
#383=EDGE_LOOP('',(#1059));
#384=EDGE_LOOP('',(#1060));
#385=EDGE_LOOP('',(#1061));
#386=EDGE_LOOP('',(#1062));
#387=EDGE_LOOP('',(#1063,#1064,#1065,#1066,#1067,#1068,#1069,#1070));
#388=EDGE_LOOP('',(#1071,#1072,#1073,#1074));
#389=EDGE_LOOP('',(#1075,#1076,#1077,#1078,#1079,#1080,#1081,#1082));
#390=CIRCLE('',#1175,6.);
#391=CIRCLE('',#1176,1.);
#392=CIRCLE('',#1177,5.);
#393=CIRCLE('',#1178,5.);
#394=CIRCLE('',#1180,3.5);
#395=CIRCLE('',#1181,3.5);
#396=CIRCLE('',#1182,2.35);
#397=CIRCLE('',#1183,2.35);
#398=CIRCLE('',#1184,3.5);
#399=CIRCLE('',#1185,3.5);
#400=CIRCLE('',#1186,2.35);
#401=CIRCLE('',#1187,2.35);
#402=CIRCLE('',#1188,3.5);
#403=CIRCLE('',#1189,3.5);
#404=CIRCLE('',#1190,2.35);
#405=CIRCLE('',#1191,3.5);
#406=CIRCLE('',#1192,3.5);
#407=CIRCLE('',#1193,2.35);
#408=CIRCLE('',#1194,6.);
#409=CIRCLE('',#1195,6.);
#410=CIRCLE('',#1196,6.);
#411=CIRCLE('',#1197,5.00000000000001);
#412=CIRCLE('',#1198,2.);
#413=CIRCLE('',#1199,2.);
#414=CIRCLE('',#1200,2.49999999999999);
#415=CIRCLE('',#1201,2.);
#416=CIRCLE('',#1203,5.);
#417=CIRCLE('',#1205,1.);
#418=CIRCLE('',#1206,0.999999999999998);
#419=CIRCLE('',#1208,1.);
#420=CIRCLE('',#1209,5.);
#421=CIRCLE('',#1211,1.);
#422=CIRCLE('',#1213,1.00000000000001);
#423=CIRCLE('',#1214,5.);
#424=CIRCLE('',#1216,0.999999999999996);
#425=CIRCLE('',#1218,1.);
#426=CIRCLE('',#1219,5.);
#427=CIRCLE('',#1221,0.999999999999996);
#428=CIRCLE('',#1223,4.00000000000001);
#429=CIRCLE('',#1225,5.);
#430=CIRCLE('',#1228,5.);
#431=CIRCLE('',#1231,1.);
#432=CIRCLE('',#1232,0.999999999999996);
#433=CIRCLE('',#1234,1.);
#434=CIRCLE('',#1235,1.);
#435=CIRCLE('',#1237,0.999999999999996);
#436=CIRCLE('',#1239,0.999999999999999);
#437=CIRCLE('',#1240,1.);
#438=CIRCLE('',#1242,1.);
#439=CIRCLE('',#1244,1.);
#440=CIRCLE('',#1245,1.49999999999999);
#441=CIRCLE('',#1247,1.00000000000001);
#442=CIRCLE('',#1249,0.999999999999996);
#443=CIRCLE('',#1251,1.);
#444=CIRCLE('',#1254,1.);
#445=CIRCLE('',#1267,2.);
#446=CIRCLE('',#1268,1.99999999999999);
#447=CIRCLE('',#1270,5.5);
#448=CIRCLE('',#1271,1.99999999999999);
#449=CIRCLE('',#1273,2.);
#450=CIRCLE('',#1275,5.5);
#451=CIRCLE('',#1276,2.);
#452=CIRCLE('',#1278,2.);
#453=CIRCLE('',#1280,5.5);
#454=CIRCLE('',#1281,2.);
#455=CIRCLE('',#1283,2.);
#456=CIRCLE('',#1285,5.5);
#457=CIRCLE('',#1287,5.5);
#458=CIRCLE('',#1290,5.5);
#459=CIRCLE('',#1293,2.35);
#460=CIRCLE('',#1295,2.35);
#461=CIRCLE('',#1298,1.49999999999999);
#462=CIRCLE('',#1301,0.999999999999996);
#463=CIRCLE('',#1305,4.00000000000001);
#464=CIRCLE('',#1308,5.);
#465=CIRCLE('',#1311,2.35);
#466=CIRCLE('',#1313,2.35);
#467=CIRCLE('',#1316,5.5);
#468=CIRCLE('',#1319,5.5);
#469=VERTEX_POINT('',#1700);
#470=VERTEX_POINT('',#1702);
#471=VERTEX_POINT('',#1704);
#472=VERTEX_POINT('',#1708);
#473=VERTEX_POINT('',#1709);
#474=VERTEX_POINT('',#1711);
#475=VERTEX_POINT('',#1713);
#476=VERTEX_POINT('',#1715);
#477=VERTEX_POINT('',#1717);
#478=VERTEX_POINT('',#1719);
#479=VERTEX_POINT('',#1721);
#480=VERTEX_POINT('',#1723);
#481=VERTEX_POINT('',#1725);
#482=VERTEX_POINT('',#1727);
#483=VERTEX_POINT('',#1729);
#484=VERTEX_POINT('',#1731);
#485=VERTEX_POINT('',#1733);
#486=VERTEX_POINT('',#1735);
#487=VERTEX_POINT('',#1737);
#488=VERTEX_POINT('',#1739);
#489=VERTEX_POINT('',#1741);
#490=VERTEX_POINT('',#1744);
#491=VERTEX_POINT('',#1745);
#492=VERTEX_POINT('',#1747);
#493=VERTEX_POINT('',#1749);
#494=VERTEX_POINT('',#1751);
#495=VERTEX_POINT('',#1753);
#496=VERTEX_POINT('',#1755);
#497=VERTEX_POINT('',#1757);
#498=VERTEX_POINT('',#1760);
#499=VERTEX_POINT('',#1761);
#500=VERTEX_POINT('',#1763);
#501=VERTEX_POINT('',#1765);
#502=VERTEX_POINT('',#1768);
#503=VERTEX_POINT('',#1769);
#504=VERTEX_POINT('',#1771);
#505=VERTEX_POINT('',#1773);
#506=VERTEX_POINT('',#1775);
#507=VERTEX_POINT('',#1777);
#508=VERTEX_POINT('',#1779);
#509=VERTEX_POINT('',#1781);
#510=VERTEX_POINT('',#1785);
#511=VERTEX_POINT('',#1789);
#512=VERTEX_POINT('',#1791);
#513=VERTEX_POINT('',#1795);
#514=VERTEX_POINT('',#1799);
#515=VERTEX_POINT('',#1803);
#516=VERTEX_POINT('',#1807);
#517=VERTEX_POINT('',#1811);
#518=VERTEX_POINT('',#1815);
#519=VERTEX_POINT('',#1821);
#520=VERTEX_POINT('',#1823);
#521=VERTEX_POINT('',#1827);
#522=VERTEX_POINT('',#1831);
#523=VERTEX_POINT('',#1835);
#524=VERTEX_POINT('',#1839);
#525=VERTEX_POINT('',#1841);
#526=VERTEX_POINT('',#1845);
#527=VERTEX_POINT('',#1849);
#528=VERTEX_POINT('',#1853);
#529=VERTEX_POINT('',#1857);
#530=VERTEX_POINT('',#1861);
#531=VERTEX_POINT('',#1865);
#532=VERTEX_POINT('',#1871);
#533=VERTEX_POINT('',#1873);
#534=VERTEX_POINT('',#1877);
#535=VERTEX_POINT('',#1881);
#536=VERTEX_POINT('',#1885);
#537=VERTEX_POINT('',#1889);
#538=VERTEX_POINT('',#1891);
#539=VERTEX_POINT('',#1895);
#540=VERTEX_POINT('',#1899);
#541=VERTEX_POINT('',#1905);
#542=VERTEX_POINT('',#1907);
#543=VERTEX_POINT('',#1911);
#544=VERTEX_POINT('',#1915);
#545=VERTEX_POINT('',#1917);
#546=VERTEX_POINT('',#1921);
#547=VERTEX_POINT('',#1944);
#548=VERTEX_POINT('',#1948);
#549=VERTEX_POINT('',#1952);
#550=VERTEX_POINT('',#1975);
#551=VERTEX_POINT('',#1979);
#552=VERTEX_POINT('',#2001);
#553=VERTEX_POINT('',#2005);
#554=VERTEX_POINT('',#2029);
#555=VERTEX_POINT('',#2031);
#556=VERTEX_POINT('',#2035);
#557=VERTEX_POINT('',#2039);
#558=VERTEX_POINT('',#2043);
#559=VERTEX_POINT('',#2047);
#560=VERTEX_POINT('',#2051);
#561=VERTEX_POINT('',#2055);
#562=VERTEX_POINT('',#2057);
#563=VERTEX_POINT('',#2061);
#564=VERTEX_POINT('',#2069);
#565=VERTEX_POINT('',#2075);
#566=VERTEX_POINT('',#2079);
#567=VERTEX_POINT('',#2083);
#568=VERTEX_POINT('',#2089);
#569=VERTEX_POINT('',#2093);
#570=VERTEX_POINT('',#2097);
#571=VERTEX_POINT('',#2101);
#572=VERTEX_POINT('',#2105);
#573=EDGE_CURVE('',#469,#469,#390,.T.);
#574=EDGE_CURVE('',#469,#470,#391,.T.);
#575=EDGE_CURVE('',#470,#471,#392,.T.);
#576=EDGE_CURVE('',#471,#470,#393,.T.);
#577=EDGE_CURVE('',#472,#473,#394,.T.);
#578=EDGE_CURVE('',#474,#472,#70,.T.);
#579=EDGE_CURVE('',#475,#474,#395,.T.);
#580=EDGE_CURVE('',#475,#476,#396,.T.);
#581=EDGE_CURVE('',#476,#477,#397,.T.);
#582=EDGE_CURVE('',#478,#477,#398,.T.);
#583=EDGE_CURVE('',#479,#478,#71,.T.);
#584=EDGE_CURVE('',#480,#479,#399,.T.);
#585=EDGE_CURVE('',#480,#481,#400,.T.);
#586=EDGE_CURVE('',#481,#482,#401,.T.);
#587=EDGE_CURVE('',#483,#482,#402,.T.);
#588=EDGE_CURVE('',#484,#483,#72,.T.);
#589=EDGE_CURVE('',#485,#484,#403,.T.);
#590=EDGE_CURVE('',#485,#486,#404,.T.);
#591=EDGE_CURVE('',#487,#486,#405,.T.);
#592=EDGE_CURVE('',#488,#487,#73,.T.);
#593=EDGE_CURVE('',#489,#488,#406,.T.);
#594=EDGE_CURVE('',#489,#473,#407,.T.);
#595=EDGE_CURVE('',#490,#491,#74,.T.);
#596=EDGE_CURVE('',#492,#490,#408,.T.);
#597=EDGE_CURVE('',#493,#492,#75,.T.);
#598=EDGE_CURVE('',#494,#493,#409,.T.);
#599=EDGE_CURVE('',#495,#494,#76,.T.);
#600=EDGE_CURVE('',#496,#495,#410,.T.);
#601=EDGE_CURVE('',#497,#496,#77,.T.);
#602=EDGE_CURVE('',#491,#497,#411,.T.);
#603=EDGE_CURVE('',#498,#499,#78,.T.);
#604=EDGE_CURVE('',#500,#498,#79,.T.);
#605=EDGE_CURVE('',#501,#500,#80,.T.);
#606=EDGE_CURVE('',#499,#501,#81,.T.);
#607=EDGE_CURVE('',#502,#503,#82,.T.);
#608=EDGE_CURVE('',#504,#502,#412,.T.);
#609=EDGE_CURVE('',#505,#504,#83,.T.);
#610=EDGE_CURVE('',#506,#505,#413,.T.);
#611=EDGE_CURVE('',#507,#506,#84,.T.);
#612=EDGE_CURVE('',#508,#507,#414,.T.);
#613=EDGE_CURVE('',#509,#508,#85,.T.);
#614=EDGE_CURVE('',#503,#509,#415,.T.);
#615=EDGE_CURVE('',#471,#510,#86,.T.);
#616=EDGE_CURVE('',#510,#510,#416,.T.);
#617=EDGE_CURVE('',#491,#511,#417,.T.);
#618=EDGE_CURVE('',#511,#512,#87,.T.);
#619=EDGE_CURVE('',#512,#490,#418,.T.);
#620=EDGE_CURVE('',#513,#492,#419,.T.);
#621=EDGE_CURVE('',#512,#513,#420,.T.);
#622=EDGE_CURVE('',#514,#493,#421,.T.);
#623=EDGE_CURVE('',#513,#514,#88,.T.);
#624=EDGE_CURVE('',#515,#494,#422,.T.);
#625=EDGE_CURVE('',#514,#515,#423,.T.);
#626=EDGE_CURVE('',#516,#495,#424,.T.);
#627=EDGE_CURVE('',#515,#516,#89,.T.);
#628=EDGE_CURVE('',#517,#496,#425,.T.);
#629=EDGE_CURVE('',#516,#517,#426,.T.);
#630=EDGE_CURVE('',#518,#497,#427,.T.);
#631=EDGE_CURVE('',#517,#518,#90,.T.);
#632=EDGE_CURVE('',#518,#511,#428,.T.);
#633=EDGE_CURVE('',#514,#519,#91,.T.);
#634=EDGE_CURVE('',#520,#519,#429,.T.);
#635=EDGE_CURVE('',#515,#520,#92,.T.);
#636=EDGE_CURVE('',#513,#521,#93,.T.);
#637=EDGE_CURVE('',#519,#521,#94,.T.);
#638=EDGE_CURVE('',#512,#522,#95,.T.);
#639=EDGE_CURVE('',#521,#522,#430,.T.);
#640=EDGE_CURVE('',#511,#523,#96,.T.);
#641=EDGE_CURVE('',#522,#523,#97,.T.);
#642=EDGE_CURVE('',#503,#524,#431,.T.);
#643=EDGE_CURVE('',#524,#525,#98,.T.);
#644=EDGE_CURVE('',#525,#502,#432,.T.);
#645=EDGE_CURVE('',#526,#504,#433,.T.);
#646=EDGE_CURVE('',#525,#526,#434,.T.);
#647=EDGE_CURVE('',#527,#505,#435,.T.);
#648=EDGE_CURVE('',#526,#527,#99,.T.);
#649=EDGE_CURVE('',#528,#506,#436,.T.);
#650=EDGE_CURVE('',#527,#528,#437,.T.);
#651=EDGE_CURVE('',#529,#507,#438,.T.);
#652=EDGE_CURVE('',#528,#529,#100,.T.);
#653=EDGE_CURVE('',#530,#508,#439,.T.);
#654=EDGE_CURVE('',#529,#530,#440,.T.);
#655=EDGE_CURVE('',#531,#509,#441,.T.);
#656=EDGE_CURVE('',#530,#531,#101,.T.);
#657=EDGE_CURVE('',#531,#524,#442,.T.);
#658=EDGE_CURVE('',#527,#532,#102,.T.);
#659=EDGE_CURVE('',#533,#532,#443,.T.);
#660=EDGE_CURVE('',#528,#533,#103,.T.);
#661=EDGE_CURVE('',#526,#534,#104,.T.);
#662=EDGE_CURVE('',#532,#534,#105,.T.);
#663=EDGE_CURVE('',#525,#535,#106,.T.);
#664=EDGE_CURVE('',#534,#535,#444,.T.);
#665=EDGE_CURVE('',#524,#536,#107,.T.);
#666=EDGE_CURVE('',#535,#536,#108,.T.);
#667=EDGE_CURVE('',#499,#537,#21,.T.);
#668=EDGE_CURVE('',#537,#538,#109,.T.);
#669=EDGE_CURVE('',#498,#538,#22,.T.);
#670=EDGE_CURVE('',#501,#539,#23,.T.);
#671=EDGE_CURVE('',#539,#537,#110,.T.);
#672=EDGE_CURVE('',#538,#540,#111,.T.);
#673=EDGE_CURVE('',#540,#500,#24,.T.);
#674=EDGE_CURVE('',#540,#539,#112,.T.);
#675=EDGE_CURVE('',#538,#541,#113,.T.);
#676=EDGE_CURVE('',#542,#541,#114,.T.);
#677=EDGE_CURVE('',#540,#542,#115,.T.);
#678=EDGE_CURVE('',#537,#543,#116,.T.);
#679=EDGE_CURVE('',#541,#543,#117,.T.);
#680=EDGE_CURVE('',#483,#544,#445,.T.);
#681=EDGE_CURVE('',#544,#545,#118,.T.);
#682=EDGE_CURVE('',#545,#484,#446,.T.);
#683=EDGE_CURVE('',#486,#546,#15,.T.);
#684=EDGE_CURVE('',#546,#485,#16,.T.);
#685=EDGE_CURVE('',#545,#547,#447,.T.);
#686=EDGE_CURVE('',#547,#487,#448,.T.);
#687=EDGE_CURVE('',#548,#488,#449,.T.);
#688=EDGE_CURVE('',#547,#548,#119,.T.);
#689=EDGE_CURVE('',#473,#549,#17,.T.);
#690=EDGE_CURVE('',#549,#489,#18,.T.);
#691=EDGE_CURVE('',#548,#550,#450,.T.);
#692=EDGE_CURVE('',#550,#472,#451,.T.);
#693=EDGE_CURVE('',#551,#474,#452,.T.);
#694=EDGE_CURVE('',#550,#551,#120,.T.);
#695=EDGE_CURVE('',#477,#475,#19,.T.);
#696=EDGE_CURVE('',#551,#552,#453,.T.);
#697=EDGE_CURVE('',#552,#478,#454,.T.);
#698=EDGE_CURVE('',#553,#479,#455,.T.);
#699=EDGE_CURVE('',#552,#553,#121,.T.);
#700=EDGE_CURVE('',#482,#480,#20,.T.);
#701=EDGE_CURVE('',#553,#544,#456,.T.);
#702=EDGE_CURVE('',#554,#548,#122,.T.);
#703=EDGE_CURVE('',#554,#555,#457,.T.);
#704=EDGE_CURVE('',#555,#550,#123,.T.);
#705=EDGE_CURVE('',#556,#547,#124,.T.);
#706=EDGE_CURVE('',#554,#556,#125,.T.);
#707=EDGE_CURVE('',#557,#545,#126,.T.);
#708=EDGE_CURVE('',#557,#556,#458,.T.);
#709=EDGE_CURVE('',#558,#544,#127,.T.);
#710=EDGE_CURVE('',#557,#558,#128,.T.);
#711=EDGE_CURVE('',#476,#559,#129,.T.);
#712=EDGE_CURVE('',#559,#559,#459,.T.);
#713=EDGE_CURVE('',#481,#560,#130,.T.);
#714=EDGE_CURVE('',#560,#560,#460,.T.);
#715=EDGE_CURVE('',#530,#561,#131,.T.);
#716=EDGE_CURVE('',#562,#561,#132,.T.);
#717=EDGE_CURVE('',#531,#562,#133,.T.);
#718=EDGE_CURVE('',#529,#563,#134,.T.);
#719=EDGE_CURVE('',#561,#563,#461,.T.);
#720=EDGE_CURVE('',#563,#533,#135,.T.);
#721=EDGE_CURVE('',#536,#562,#462,.T.);
#722=EDGE_CURVE('',#539,#564,#136,.T.);
#723=EDGE_CURVE('',#543,#564,#137,.T.);
#724=EDGE_CURVE('',#564,#542,#138,.T.);
#725=EDGE_CURVE('',#518,#565,#139,.T.);
#726=EDGE_CURVE('',#523,#565,#463,.T.);
#727=EDGE_CURVE('',#517,#566,#140,.T.);
#728=EDGE_CURVE('',#565,#566,#141,.T.);
#729=EDGE_CURVE('',#516,#567,#142,.T.);
#730=EDGE_CURVE('',#566,#567,#464,.T.);
#731=EDGE_CURVE('',#567,#520,#143,.T.);
#732=EDGE_CURVE('',#546,#568,#144,.T.);
#733=EDGE_CURVE('',#568,#568,#465,.T.);
#734=EDGE_CURVE('',#549,#569,#145,.T.);
#735=EDGE_CURVE('',#569,#569,#466,.T.);
#736=EDGE_CURVE('',#570,#555,#146,.T.);
#737=EDGE_CURVE('',#570,#551,#147,.T.);
#738=EDGE_CURVE('',#571,#553,#148,.T.);
#739=EDGE_CURVE('',#571,#558,#467,.T.);
#740=EDGE_CURVE('',#572,#552,#149,.T.);
#741=EDGE_CURVE('',#571,#572,#150,.T.);
#742=EDGE_CURVE('',#570,#572,#468,.T.);
#743=ORIENTED_EDGE('',*,*,#573,.T.);
#744=ORIENTED_EDGE('',*,*,#574,.T.);
#745=ORIENTED_EDGE('',*,*,#575,.T.);
#746=ORIENTED_EDGE('',*,*,#576,.T.);
#747=ORIENTED_EDGE('',*,*,#574,.F.);
#748=ORIENTED_EDGE('',*,*,#577,.F.);
#749=ORIENTED_EDGE('',*,*,#578,.F.);
#750=ORIENTED_EDGE('',*,*,#579,.F.);
#751=ORIENTED_EDGE('',*,*,#580,.T.);
#752=ORIENTED_EDGE('',*,*,#581,.T.);
#753=ORIENTED_EDGE('',*,*,#582,.F.);
#754=ORIENTED_EDGE('',*,*,#583,.F.);
#755=ORIENTED_EDGE('',*,*,#584,.F.);
#756=ORIENTED_EDGE('',*,*,#585,.T.);
#757=ORIENTED_EDGE('',*,*,#586,.T.);
#758=ORIENTED_EDGE('',*,*,#587,.F.);
#759=ORIENTED_EDGE('',*,*,#588,.F.);
#760=ORIENTED_EDGE('',*,*,#589,.F.);
#761=ORIENTED_EDGE('',*,*,#590,.T.);
#762=ORIENTED_EDGE('',*,*,#591,.F.);
#763=ORIENTED_EDGE('',*,*,#592,.F.);
#764=ORIENTED_EDGE('',*,*,#593,.F.);
#765=ORIENTED_EDGE('',*,*,#594,.T.);
#766=ORIENTED_EDGE('',*,*,#595,.F.);
#767=ORIENTED_EDGE('',*,*,#596,.F.);
#768=ORIENTED_EDGE('',*,*,#597,.F.);
#769=ORIENTED_EDGE('',*,*,#598,.F.);
#770=ORIENTED_EDGE('',*,*,#599,.F.);
#771=ORIENTED_EDGE('',*,*,#600,.F.);
#772=ORIENTED_EDGE('',*,*,#601,.F.);
#773=ORIENTED_EDGE('',*,*,#602,.F.);
#774=ORIENTED_EDGE('',*,*,#603,.F.);
#775=ORIENTED_EDGE('',*,*,#604,.F.);
#776=ORIENTED_EDGE('',*,*,#605,.F.);
#777=ORIENTED_EDGE('',*,*,#606,.F.);
#778=ORIENTED_EDGE('',*,*,#607,.F.);
#779=ORIENTED_EDGE('',*,*,#608,.F.);
#780=ORIENTED_EDGE('',*,*,#609,.F.);
#781=ORIENTED_EDGE('',*,*,#610,.F.);
#782=ORIENTED_EDGE('',*,*,#611,.F.);
#783=ORIENTED_EDGE('',*,*,#612,.F.);
#784=ORIENTED_EDGE('',*,*,#613,.F.);
#785=ORIENTED_EDGE('',*,*,#614,.F.);
#786=ORIENTED_EDGE('',*,*,#573,.F.);
#787=ORIENTED_EDGE('',*,*,#576,.F.);
#788=ORIENTED_EDGE('',*,*,#615,.T.);
#789=ORIENTED_EDGE('',*,*,#616,.F.);
#790=ORIENTED_EDGE('',*,*,#615,.F.);
#791=ORIENTED_EDGE('',*,*,#575,.F.);
#792=ORIENTED_EDGE('',*,*,#617,.T.);
#793=ORIENTED_EDGE('',*,*,#618,.T.);
#794=ORIENTED_EDGE('',*,*,#619,.T.);
#795=ORIENTED_EDGE('',*,*,#595,.T.);
#796=ORIENTED_EDGE('',*,*,#620,.T.);
#797=ORIENTED_EDGE('',*,*,#596,.T.);
#798=ORIENTED_EDGE('',*,*,#619,.F.);
#799=ORIENTED_EDGE('',*,*,#621,.T.);
#800=ORIENTED_EDGE('',*,*,#622,.T.);
#801=ORIENTED_EDGE('',*,*,#597,.T.);
#802=ORIENTED_EDGE('',*,*,#620,.F.);
#803=ORIENTED_EDGE('',*,*,#623,.T.);
#804=ORIENTED_EDGE('',*,*,#624,.T.);
#805=ORIENTED_EDGE('',*,*,#598,.T.);
#806=ORIENTED_EDGE('',*,*,#622,.F.);
#807=ORIENTED_EDGE('',*,*,#625,.T.);
#808=ORIENTED_EDGE('',*,*,#626,.T.);
#809=ORIENTED_EDGE('',*,*,#599,.T.);
#810=ORIENTED_EDGE('',*,*,#624,.F.);
#811=ORIENTED_EDGE('',*,*,#627,.T.);
#812=ORIENTED_EDGE('',*,*,#628,.T.);
#813=ORIENTED_EDGE('',*,*,#600,.T.);
#814=ORIENTED_EDGE('',*,*,#626,.F.);
#815=ORIENTED_EDGE('',*,*,#629,.T.);
#816=ORIENTED_EDGE('',*,*,#630,.T.);
#817=ORIENTED_EDGE('',*,*,#601,.T.);
#818=ORIENTED_EDGE('',*,*,#628,.F.);
#819=ORIENTED_EDGE('',*,*,#631,.T.);
#820=ORIENTED_EDGE('',*,*,#617,.F.);
#821=ORIENTED_EDGE('',*,*,#602,.T.);
#822=ORIENTED_EDGE('',*,*,#630,.F.);
#823=ORIENTED_EDGE('',*,*,#632,.T.);
#824=ORIENTED_EDGE('',*,*,#625,.F.);
#825=ORIENTED_EDGE('',*,*,#633,.T.);
#826=ORIENTED_EDGE('',*,*,#634,.F.);
#827=ORIENTED_EDGE('',*,*,#635,.F.);
#828=ORIENTED_EDGE('',*,*,#623,.F.);
#829=ORIENTED_EDGE('',*,*,#636,.T.);
#830=ORIENTED_EDGE('',*,*,#637,.F.);
#831=ORIENTED_EDGE('',*,*,#633,.F.);
#832=ORIENTED_EDGE('',*,*,#621,.F.);
#833=ORIENTED_EDGE('',*,*,#638,.T.);
#834=ORIENTED_EDGE('',*,*,#639,.F.);
#835=ORIENTED_EDGE('',*,*,#636,.F.);
#836=ORIENTED_EDGE('',*,*,#618,.F.);
#837=ORIENTED_EDGE('',*,*,#640,.T.);
#838=ORIENTED_EDGE('',*,*,#641,.F.);
#839=ORIENTED_EDGE('',*,*,#638,.F.);
#840=ORIENTED_EDGE('',*,*,#642,.T.);
#841=ORIENTED_EDGE('',*,*,#643,.T.);
#842=ORIENTED_EDGE('',*,*,#644,.T.);
#843=ORIENTED_EDGE('',*,*,#607,.T.);
#844=ORIENTED_EDGE('',*,*,#645,.T.);
#845=ORIENTED_EDGE('',*,*,#608,.T.);
#846=ORIENTED_EDGE('',*,*,#644,.F.);
#847=ORIENTED_EDGE('',*,*,#646,.T.);
#848=ORIENTED_EDGE('',*,*,#647,.T.);
#849=ORIENTED_EDGE('',*,*,#609,.T.);
#850=ORIENTED_EDGE('',*,*,#645,.F.);
#851=ORIENTED_EDGE('',*,*,#648,.T.);
#852=ORIENTED_EDGE('',*,*,#649,.T.);
#853=ORIENTED_EDGE('',*,*,#610,.T.);
#854=ORIENTED_EDGE('',*,*,#647,.F.);
#855=ORIENTED_EDGE('',*,*,#650,.T.);
#856=ORIENTED_EDGE('',*,*,#651,.T.);
#857=ORIENTED_EDGE('',*,*,#611,.T.);
#858=ORIENTED_EDGE('',*,*,#649,.F.);
#859=ORIENTED_EDGE('',*,*,#652,.T.);
#860=ORIENTED_EDGE('',*,*,#653,.T.);
#861=ORIENTED_EDGE('',*,*,#612,.T.);
#862=ORIENTED_EDGE('',*,*,#651,.F.);
#863=ORIENTED_EDGE('',*,*,#654,.T.);
#864=ORIENTED_EDGE('',*,*,#655,.T.);
#865=ORIENTED_EDGE('',*,*,#613,.T.);
#866=ORIENTED_EDGE('',*,*,#653,.F.);
#867=ORIENTED_EDGE('',*,*,#656,.T.);
#868=ORIENTED_EDGE('',*,*,#642,.F.);
#869=ORIENTED_EDGE('',*,*,#614,.T.);
#870=ORIENTED_EDGE('',*,*,#655,.F.);
#871=ORIENTED_EDGE('',*,*,#657,.T.);
#872=ORIENTED_EDGE('',*,*,#650,.F.);
#873=ORIENTED_EDGE('',*,*,#658,.T.);
#874=ORIENTED_EDGE('',*,*,#659,.F.);
#875=ORIENTED_EDGE('',*,*,#660,.F.);
#876=ORIENTED_EDGE('',*,*,#648,.F.);
#877=ORIENTED_EDGE('',*,*,#661,.T.);
#878=ORIENTED_EDGE('',*,*,#662,.F.);
#879=ORIENTED_EDGE('',*,*,#658,.F.);
#880=ORIENTED_EDGE('',*,*,#646,.F.);
#881=ORIENTED_EDGE('',*,*,#663,.T.);
#882=ORIENTED_EDGE('',*,*,#664,.F.);
#883=ORIENTED_EDGE('',*,*,#661,.F.);
#884=ORIENTED_EDGE('',*,*,#643,.F.);
#885=ORIENTED_EDGE('',*,*,#665,.T.);
#886=ORIENTED_EDGE('',*,*,#666,.F.);
#887=ORIENTED_EDGE('',*,*,#663,.F.);
#888=ORIENTED_EDGE('',*,*,#603,.T.);
#889=ORIENTED_EDGE('',*,*,#667,.T.);
#890=ORIENTED_EDGE('',*,*,#668,.T.);
#891=ORIENTED_EDGE('',*,*,#669,.F.);
#892=ORIENTED_EDGE('',*,*,#606,.T.);
#893=ORIENTED_EDGE('',*,*,#670,.T.);
#894=ORIENTED_EDGE('',*,*,#671,.T.);
#895=ORIENTED_EDGE('',*,*,#667,.F.);
#896=ORIENTED_EDGE('',*,*,#672,.T.);
#897=ORIENTED_EDGE('',*,*,#673,.T.);
#898=ORIENTED_EDGE('',*,*,#604,.T.);
#899=ORIENTED_EDGE('',*,*,#669,.T.);
#900=ORIENTED_EDGE('',*,*,#605,.T.);
#901=ORIENTED_EDGE('',*,*,#673,.F.);
#902=ORIENTED_EDGE('',*,*,#674,.T.);
#903=ORIENTED_EDGE('',*,*,#670,.F.);
#904=ORIENTED_EDGE('',*,*,#672,.F.);
#905=ORIENTED_EDGE('',*,*,#675,.T.);
#906=ORIENTED_EDGE('',*,*,#676,.F.);
#907=ORIENTED_EDGE('',*,*,#677,.F.);
#908=ORIENTED_EDGE('',*,*,#668,.F.);
#909=ORIENTED_EDGE('',*,*,#678,.T.);
#910=ORIENTED_EDGE('',*,*,#679,.F.);
#911=ORIENTED_EDGE('',*,*,#675,.F.);
#912=ORIENTED_EDGE('',*,*,#680,.T.);
#913=ORIENTED_EDGE('',*,*,#681,.T.);
#914=ORIENTED_EDGE('',*,*,#682,.T.);
#915=ORIENTED_EDGE('',*,*,#588,.T.);
#916=ORIENTED_EDGE('',*,*,#683,.T.);
#917=ORIENTED_EDGE('',*,*,#684,.T.);
#918=ORIENTED_EDGE('',*,*,#589,.T.);
#919=ORIENTED_EDGE('',*,*,#682,.F.);
#920=ORIENTED_EDGE('',*,*,#685,.T.);
#921=ORIENTED_EDGE('',*,*,#686,.T.);
#922=ORIENTED_EDGE('',*,*,#591,.T.);
#923=ORIENTED_EDGE('',*,*,#687,.T.);
#924=ORIENTED_EDGE('',*,*,#592,.T.);
#925=ORIENTED_EDGE('',*,*,#686,.F.);
#926=ORIENTED_EDGE('',*,*,#688,.T.);
#927=ORIENTED_EDGE('',*,*,#689,.T.);
#928=ORIENTED_EDGE('',*,*,#690,.T.);
#929=ORIENTED_EDGE('',*,*,#593,.T.);
#930=ORIENTED_EDGE('',*,*,#687,.F.);
#931=ORIENTED_EDGE('',*,*,#691,.T.);
#932=ORIENTED_EDGE('',*,*,#692,.T.);
#933=ORIENTED_EDGE('',*,*,#577,.T.);
#934=ORIENTED_EDGE('',*,*,#693,.T.);
#935=ORIENTED_EDGE('',*,*,#578,.T.);
#936=ORIENTED_EDGE('',*,*,#692,.F.);
#937=ORIENTED_EDGE('',*,*,#694,.T.);
#938=ORIENTED_EDGE('',*,*,#695,.T.);
#939=ORIENTED_EDGE('',*,*,#579,.T.);
#940=ORIENTED_EDGE('',*,*,#693,.F.);
#941=ORIENTED_EDGE('',*,*,#696,.T.);
#942=ORIENTED_EDGE('',*,*,#697,.T.);
#943=ORIENTED_EDGE('',*,*,#582,.T.);
#944=ORIENTED_EDGE('',*,*,#698,.T.);
#945=ORIENTED_EDGE('',*,*,#583,.T.);
#946=ORIENTED_EDGE('',*,*,#697,.F.);
#947=ORIENTED_EDGE('',*,*,#699,.T.);
#948=ORIENTED_EDGE('',*,*,#700,.T.);
#949=ORIENTED_EDGE('',*,*,#584,.T.);
#950=ORIENTED_EDGE('',*,*,#698,.F.);
#951=ORIENTED_EDGE('',*,*,#701,.T.);
#952=ORIENTED_EDGE('',*,*,#680,.F.);
#953=ORIENTED_EDGE('',*,*,#587,.T.);
#954=ORIENTED_EDGE('',*,*,#691,.F.);
#955=ORIENTED_EDGE('',*,*,#702,.F.);
#956=ORIENTED_EDGE('',*,*,#703,.T.);
#957=ORIENTED_EDGE('',*,*,#704,.T.);
#958=ORIENTED_EDGE('',*,*,#688,.F.);
#959=ORIENTED_EDGE('',*,*,#705,.F.);
#960=ORIENTED_EDGE('',*,*,#706,.F.);
#961=ORIENTED_EDGE('',*,*,#702,.T.);
#962=ORIENTED_EDGE('',*,*,#685,.F.);
#963=ORIENTED_EDGE('',*,*,#707,.F.);
#964=ORIENTED_EDGE('',*,*,#708,.T.);
#965=ORIENTED_EDGE('',*,*,#705,.T.);
#966=ORIENTED_EDGE('',*,*,#681,.F.);
#967=ORIENTED_EDGE('',*,*,#709,.F.);
#968=ORIENTED_EDGE('',*,*,#710,.F.);
#969=ORIENTED_EDGE('',*,*,#707,.T.);
#970=ORIENTED_EDGE('',*,*,#695,.F.);
#971=ORIENTED_EDGE('',*,*,#581,.F.);
#972=ORIENTED_EDGE('',*,*,#711,.T.);
#973=ORIENTED_EDGE('',*,*,#712,.F.);
#974=ORIENTED_EDGE('',*,*,#711,.F.);
#975=ORIENTED_EDGE('',*,*,#580,.F.);
#976=ORIENTED_EDGE('',*,*,#700,.F.);
#977=ORIENTED_EDGE('',*,*,#586,.F.);
#978=ORIENTED_EDGE('',*,*,#713,.T.);
#979=ORIENTED_EDGE('',*,*,#714,.F.);
#980=ORIENTED_EDGE('',*,*,#713,.F.);
#981=ORIENTED_EDGE('',*,*,#585,.F.);
#982=ORIENTED_EDGE('',*,*,#656,.F.);
#983=ORIENTED_EDGE('',*,*,#715,.T.);
#984=ORIENTED_EDGE('',*,*,#716,.F.);
#985=ORIENTED_EDGE('',*,*,#717,.F.);
#986=ORIENTED_EDGE('',*,*,#654,.F.);
#987=ORIENTED_EDGE('',*,*,#718,.T.);
#988=ORIENTED_EDGE('',*,*,#719,.F.);
#989=ORIENTED_EDGE('',*,*,#715,.F.);
#990=ORIENTED_EDGE('',*,*,#652,.F.);
#991=ORIENTED_EDGE('',*,*,#660,.T.);
#992=ORIENTED_EDGE('',*,*,#720,.F.);
#993=ORIENTED_EDGE('',*,*,#718,.F.);
#994=ORIENTED_EDGE('',*,*,#657,.F.);
#995=ORIENTED_EDGE('',*,*,#717,.T.);
#996=ORIENTED_EDGE('',*,*,#721,.F.);
#997=ORIENTED_EDGE('',*,*,#665,.F.);
#998=ORIENTED_EDGE('',*,*,#671,.F.);
#999=ORIENTED_EDGE('',*,*,#722,.T.);
#1000=ORIENTED_EDGE('',*,*,#723,.F.);
#1001=ORIENTED_EDGE('',*,*,#678,.F.);
#1002=ORIENTED_EDGE('',*,*,#674,.F.);
#1003=ORIENTED_EDGE('',*,*,#677,.T.);
#1004=ORIENTED_EDGE('',*,*,#724,.F.);
#1005=ORIENTED_EDGE('',*,*,#722,.F.);
#1006=ORIENTED_EDGE('',*,*,#632,.F.);
#1007=ORIENTED_EDGE('',*,*,#725,.T.);
#1008=ORIENTED_EDGE('',*,*,#726,.F.);
#1009=ORIENTED_EDGE('',*,*,#640,.F.);
#1010=ORIENTED_EDGE('',*,*,#631,.F.);
#1011=ORIENTED_EDGE('',*,*,#727,.T.);
#1012=ORIENTED_EDGE('',*,*,#728,.F.);
#1013=ORIENTED_EDGE('',*,*,#725,.F.);
#1014=ORIENTED_EDGE('',*,*,#629,.F.);
#1015=ORIENTED_EDGE('',*,*,#729,.T.);
#1016=ORIENTED_EDGE('',*,*,#730,.F.);
#1017=ORIENTED_EDGE('',*,*,#727,.F.);
#1018=ORIENTED_EDGE('',*,*,#627,.F.);
#1019=ORIENTED_EDGE('',*,*,#635,.T.);
#1020=ORIENTED_EDGE('',*,*,#731,.F.);
#1021=ORIENTED_EDGE('',*,*,#729,.F.);
#1022=ORIENTED_EDGE('',*,*,#683,.F.);
#1023=ORIENTED_EDGE('',*,*,#590,.F.);
#1024=ORIENTED_EDGE('',*,*,#684,.F.);
#1025=ORIENTED_EDGE('',*,*,#732,.T.);
#1026=ORIENTED_EDGE('',*,*,#733,.F.);
#1027=ORIENTED_EDGE('',*,*,#732,.F.);
#1028=ORIENTED_EDGE('',*,*,#689,.F.);
#1029=ORIENTED_EDGE('',*,*,#594,.F.);
#1030=ORIENTED_EDGE('',*,*,#690,.F.);
#1031=ORIENTED_EDGE('',*,*,#734,.T.);
#1032=ORIENTED_EDGE('',*,*,#735,.F.);
#1033=ORIENTED_EDGE('',*,*,#734,.F.);
#1034=ORIENTED_EDGE('',*,*,#694,.F.);
#1035=ORIENTED_EDGE('',*,*,#704,.F.);
#1036=ORIENTED_EDGE('',*,*,#736,.F.);
#1037=ORIENTED_EDGE('',*,*,#737,.T.);
#1038=ORIENTED_EDGE('',*,*,#701,.F.);
#1039=ORIENTED_EDGE('',*,*,#738,.F.);
#1040=ORIENTED_EDGE('',*,*,#739,.T.);
#1041=ORIENTED_EDGE('',*,*,#709,.T.);
#1042=ORIENTED_EDGE('',*,*,#699,.F.);
#1043=ORIENTED_EDGE('',*,*,#740,.F.);
#1044=ORIENTED_EDGE('',*,*,#741,.F.);
#1045=ORIENTED_EDGE('',*,*,#738,.T.);
#1046=ORIENTED_EDGE('',*,*,#696,.F.);
#1047=ORIENTED_EDGE('',*,*,#737,.F.);
#1048=ORIENTED_EDGE('',*,*,#742,.T.);
#1049=ORIENTED_EDGE('',*,*,#740,.T.);
#1050=ORIENTED_EDGE('',*,*,#742,.F.);
#1051=ORIENTED_EDGE('',*,*,#736,.T.);
#1052=ORIENTED_EDGE('',*,*,#703,.F.);
#1053=ORIENTED_EDGE('',*,*,#706,.T.);
#1054=ORIENTED_EDGE('',*,*,#708,.F.);
#1055=ORIENTED_EDGE('',*,*,#710,.T.);
#1056=ORIENTED_EDGE('',*,*,#739,.F.);
#1057=ORIENTED_EDGE('',*,*,#741,.T.);
#1058=ORIENTED_EDGE('',*,*,#735,.T.);
#1059=ORIENTED_EDGE('',*,*,#712,.T.);
#1060=ORIENTED_EDGE('',*,*,#733,.T.);
#1061=ORIENTED_EDGE('',*,*,#714,.T.);
#1062=ORIENTED_EDGE('',*,*,#616,.T.);
#1063=ORIENTED_EDGE('',*,*,#637,.T.);
#1064=ORIENTED_EDGE('',*,*,#639,.T.);
#1065=ORIENTED_EDGE('',*,*,#641,.T.);
#1066=ORIENTED_EDGE('',*,*,#726,.T.);
#1067=ORIENTED_EDGE('',*,*,#728,.T.);
#1068=ORIENTED_EDGE('',*,*,#730,.T.);
#1069=ORIENTED_EDGE('',*,*,#731,.T.);
#1070=ORIENTED_EDGE('',*,*,#634,.T.);
#1071=ORIENTED_EDGE('',*,*,#676,.T.);
#1072=ORIENTED_EDGE('',*,*,#679,.T.);
#1073=ORIENTED_EDGE('',*,*,#723,.T.);
#1074=ORIENTED_EDGE('',*,*,#724,.T.);
#1075=ORIENTED_EDGE('',*,*,#716,.T.);
#1076=ORIENTED_EDGE('',*,*,#719,.T.);
#1077=ORIENTED_EDGE('',*,*,#720,.T.);
#1078=ORIENTED_EDGE('',*,*,#659,.T.);
#1079=ORIENTED_EDGE('',*,*,#662,.T.);
#1080=ORIENTED_EDGE('',*,*,#664,.T.);
#1081=ORIENTED_EDGE('',*,*,#666,.T.);
#1082=ORIENTED_EDGE('',*,*,#721,.T.);
#1083=TOROIDAL_SURFACE('',#1174,6.,1.);
#1084=TOROIDAL_SURFACE('',#1207,6.,1.);
#1085=TOROIDAL_SURFACE('',#1212,6.,1.);
#1086=TOROIDAL_SURFACE('',#1217,6.,1.);
#1087=TOROIDAL_SURFACE('',#1222,5.00000000000001,1.);
#1088=TOROIDAL_SURFACE('',#1233,2.,1.);
#1089=TOROIDAL_SURFACE('',#1238,2.,1.);
#1090=TOROIDAL_SURFACE('',#1243,2.49999999999999,1.);
#1091=TOROIDAL_SURFACE('',#1248,2.,1.);
#1092=TOROIDAL_SURFACE('',#1269,3.5,2.);
#1093=TOROIDAL_SURFACE('',#1274,3.5,2.);
#1094=TOROIDAL_SURFACE('',#1279,3.5,2.);
#1095=TOROIDAL_SURFACE('',#1284,3.5,2.);
#1096=ADVANCED_FACE('',(#250),#1083,.T.);
#1097=ADVANCED_FACE('',(#251,#58,#59,#60,#61),#232,.T.);
#1098=ADVANCED_FACE('',(#252),#25,.F.);
#1099=ADVANCED_FACE('',(#253),#26,.T.);
#1100=ADVANCED_FACE('',(#254),#1084,.T.);
#1101=ADVANCED_FACE('',(#255),#27,.T.);
#1102=ADVANCED_FACE('',(#256),#1085,.T.);
#1103=ADVANCED_FACE('',(#257),#28,.T.);
#1104=ADVANCED_FACE('',(#258),#1086,.T.);
#1105=ADVANCED_FACE('',(#259),#29,.T.);
#1106=ADVANCED_FACE('',(#260),#1087,.T.);
#1107=ADVANCED_FACE('',(#261),#30,.F.);
#1108=ADVANCED_FACE('',(#262),#233,.F.);
#1109=ADVANCED_FACE('',(#263),#31,.F.);
#1110=ADVANCED_FACE('',(#264),#234,.F.);
#1111=ADVANCED_FACE('',(#265),#32,.T.);
#1112=ADVANCED_FACE('',(#266),#1088,.T.);
#1113=ADVANCED_FACE('',(#267),#33,.T.);
#1114=ADVANCED_FACE('',(#268),#1089,.T.);
#1115=ADVANCED_FACE('',(#269),#34,.T.);
#1116=ADVANCED_FACE('',(#270),#1090,.T.);
#1117=ADVANCED_FACE('',(#271),#35,.T.);
#1118=ADVANCED_FACE('',(#272),#1091,.T.);
#1119=ADVANCED_FACE('',(#273),#36,.F.);
#1120=ADVANCED_FACE('',(#274),#235,.F.);
#1121=ADVANCED_FACE('',(#275),#37,.F.);
#1122=ADVANCED_FACE('',(#276),#236,.F.);
#1123=ADVANCED_FACE('',(#277),#38,.T.);
#1124=ADVANCED_FACE('',(#278),#39,.T.);
#1125=ADVANCED_FACE('',(#279),#40,.T.);
#1126=ADVANCED_FACE('',(#280),#41,.T.);
#1127=ADVANCED_FACE('',(#281),#237,.F.);
#1128=ADVANCED_FACE('',(#282),#238,.F.);
#1129=ADVANCED_FACE('',(#283),#42,.T.);
#1130=ADVANCED_FACE('',(#284),#1092,.T.);
#1131=ADVANCED_FACE('',(#285),#43,.T.);
#1132=ADVANCED_FACE('',(#286),#1093,.T.);
#1133=ADVANCED_FACE('',(#287),#44,.T.);
#1134=ADVANCED_FACE('',(#288),#1094,.T.);
#1135=ADVANCED_FACE('',(#289),#45,.T.);
#1136=ADVANCED_FACE('',(#290),#1095,.T.);
#1137=ADVANCED_FACE('',(#291),#46,.T.);
#1138=ADVANCED_FACE('',(#292),#239,.T.);
#1139=ADVANCED_FACE('',(#293),#47,.T.);
#1140=ADVANCED_FACE('',(#294),#240,.T.);
#1141=ADVANCED_FACE('',(#295),#48,.F.);
#1142=ADVANCED_FACE('',(#296),#49,.F.);
#1143=ADVANCED_FACE('',(#297),#241,.F.);
#1144=ADVANCED_FACE('',(#298),#50,.F.);
#1145=ADVANCED_FACE('',(#299),#242,.F.);
#1146=ADVANCED_FACE('',(#300),#51,.F.);
#1147=ADVANCED_FACE('',(#301),#243,.F.);
#1148=ADVANCED_FACE('',(#302),#244,.F.);
#1149=ADVANCED_FACE('',(#303),#52,.F.);
#1150=ADVANCED_FACE('',(#304),#245,.F.);
#1151=ADVANCED_FACE('',(#305),#53,.F.);
#1152=ADVANCED_FACE('',(#306),#246,.F.);
#1153=ADVANCED_FACE('',(#307),#54,.F.);
#1154=ADVANCED_FACE('',(#308),#55,.F.);
#1155=ADVANCED_FACE('',(#309),#247,.T.);
#1156=ADVANCED_FACE('',(#310),#56,.T.);
#1157=ADVANCED_FACE('',(#311),#248,.T.);
#1158=ADVANCED_FACE('',(#312),#57,.T.);
#1159=ADVANCED_FACE('',(#313,#62,#63,#64,#65,#66,#67,#68,#69),#249,.F.);
#1160=CLOSED_SHELL('',(#1096,#1097,#1098,#1099,#1100,#1101,#1102,#1103,
#1104,#1105,#1106,#1107,#1108,#1109,#1110,#1111,#1112,#1113,#1114,#1115,
#1116,#1117,#1118,#1119,#1120,#1121,#1122,#1123,#1124,#1125,#1126,#1127,
#1128,#1129,#1130,#1131,#1132,#1133,#1134,#1135,#1136,#1137,#1138,#1139,
#1140,#1141,#1142,#1143,#1144,#1145,#1146,#1147,#1148,#1149,#1150,#1151,
#1152,#1153,#1154,#1155,#1156,#1157,#1158,#1159));
#1161=DERIVED_UNIT_ELEMENT(#1163,1.);
#1162=DERIVED_UNIT_ELEMENT(#2116,-3.);
#1163=(
MASS_UNIT()
NAMED_UNIT(*)
SI_UNIT(.KILO.,.GRAM.)
);
#1164=DERIVED_UNIT((#1161,#1162));
#1165=MEASURE_REPRESENTATION_ITEM('density measure',
POSITIVE_RATIO_MEASURE(7850.),#1164);
#1166=PROPERTY_DEFINITION_REPRESENTATION(#1171,#1168);
#1167=PROPERTY_DEFINITION_REPRESENTATION(#1172,#1169);
#1168=REPRESENTATION('material name',(#1170),#2113);
#1169=REPRESENTATION('density',(#1165),#2113);
#1170=DESCRIPTIVE_REPRESENTATION_ITEM('Steel','Steel');
#1171=PROPERTY_DEFINITION('material property','material name',#2123);
#1172=PROPERTY_DEFINITION('material property','density of part',#2123);
#1173=AXIS2_PLACEMENT_3D('',#1698,#1321,#1322);
#1174=AXIS2_PLACEMENT_3D('',#1699,#1323,#1324);
#1175=AXIS2_PLACEMENT_3D('',#1701,#1325,#1326);
#1176=AXIS2_PLACEMENT_3D('',#1703,#1327,#1328);
#1177=AXIS2_PLACEMENT_3D('',#1705,#1329,#1330);
#1178=AXIS2_PLACEMENT_3D('',#1706,#1331,#1332);
#1179=AXIS2_PLACEMENT_3D('',#1707,#1333,#1334);
#1180=AXIS2_PLACEMENT_3D('',#1710,#1335,#1336);
#1181=AXIS2_PLACEMENT_3D('',#1714,#1338,#1339);
#1182=AXIS2_PLACEMENT_3D('',#1716,#1340,#1341);
#1183=AXIS2_PLACEMENT_3D('',#1718,#1342,#1343);
#1184=AXIS2_PLACEMENT_3D('',#1720,#1344,#1345);
#1185=AXIS2_PLACEMENT_3D('',#1724,#1347,#1348);
#1186=AXIS2_PLACEMENT_3D('',#1726,#1349,#1350);
#1187=AXIS2_PLACEMENT_3D('',#1728,#1351,#1352);
#1188=AXIS2_PLACEMENT_3D('',#1730,#1353,#1354);
#1189=AXIS2_PLACEMENT_3D('',#1734,#1356,#1357);
#1190=AXIS2_PLACEMENT_3D('',#1736,#1358,#1359);
#1191=AXIS2_PLACEMENT_3D('',#1738,#1360,#1361);
#1192=AXIS2_PLACEMENT_3D('',#1742,#1363,#1364);
#1193=AXIS2_PLACEMENT_3D('',#1743,#1365,#1366);
#1194=AXIS2_PLACEMENT_3D('',#1748,#1368,#1369);
#1195=AXIS2_PLACEMENT_3D('',#1752,#1371,#1372);
#1196=AXIS2_PLACEMENT_3D('',#1756,#1374,#1375);
#1197=AXIS2_PLACEMENT_3D('',#1759,#1377,#1378);
#1198=AXIS2_PLACEMENT_3D('',#1772,#1384,#1385);
#1199=AXIS2_PLACEMENT_3D('',#1776,#1387,#1388);
#1200=AXIS2_PLACEMENT_3D('',#1780,#1390,#1391);
#1201=AXIS2_PLACEMENT_3D('',#1783,#1393,#1394);
#1202=AXIS2_PLACEMENT_3D('',#1784,#1395,#1396);
#1203=AXIS2_PLACEMENT_3D('',#1787,#1398,#1399);
#1204=AXIS2_PLACEMENT_3D('',#1788,#1400,#1401);
#1205=AXIS2_PLACEMENT_3D('',#1790,#1402,#1403);
#1206=AXIS2_PLACEMENT_3D('',#1793,#1405,#1406);
#1207=AXIS2_PLACEMENT_3D('',#1794,#1407,#1408);
#1208=AXIS2_PLACEMENT_3D('',#1796,#1409,#1410);
#1209=AXIS2_PLACEMENT_3D('',#1797,#1411,#1412);
#1210=AXIS2_PLACEMENT_3D('',#1798,#1413,#1414);
#1211=AXIS2_PLACEMENT_3D('',#1800,#1415,#1416);
#1212=AXIS2_PLACEMENT_3D('',#1802,#1418,#1419);
#1213=AXIS2_PLACEMENT_3D('',#1804,#1420,#1421);
#1214=AXIS2_PLACEMENT_3D('',#1805,#1422,#1423);
#1215=AXIS2_PLACEMENT_3D('',#1806,#1424,#1425);
#1216=AXIS2_PLACEMENT_3D('',#1808,#1426,#1427);
#1217=AXIS2_PLACEMENT_3D('',#1810,#1429,#1430);
#1218=AXIS2_PLACEMENT_3D('',#1812,#1431,#1432);
#1219=AXIS2_PLACEMENT_3D('',#1813,#1433,#1434);
#1220=AXIS2_PLACEMENT_3D('',#1814,#1435,#1436);
#1221=AXIS2_PLACEMENT_3D('',#1816,#1437,#1438);
#1222=AXIS2_PLACEMENT_3D('',#1818,#1440,#1441);
#1223=AXIS2_PLACEMENT_3D('',#1819,#1442,#1443);
#1224=AXIS2_PLACEMENT_3D('',#1820,#1444,#1445);
#1225=AXIS2_PLACEMENT_3D('',#1824,#1447,#1448);
#1226=AXIS2_PLACEMENT_3D('',#1826,#1450,#1451);
#1227=AXIS2_PLACEMENT_3D('',#1830,#1454,#1455);
#1228=AXIS2_PLACEMENT_3D('',#1833,#1457,#1458);
#1229=AXIS2_PLACEMENT_3D('',#1834,#1459,#1460);
#1230=AXIS2_PLACEMENT_3D('',#1838,#1463,#1464);
#1231=AXIS2_PLACEMENT_3D('',#1840,#1465,#1466);
#1232=AXIS2_PLACEMENT_3D('',#1843,#1468,#1469);
#1233=AXIS2_PLACEMENT_3D('',#1844,#1470,#1471);
#1234=AXIS2_PLACEMENT_3D('',#1846,#1472,#1473);
#1235=AXIS2_PLACEMENT_3D('',#1847,#1474,#1475);
#1236=AXIS2_PLACEMENT_3D('',#1848,#1476,#1477);
#1237=AXIS2_PLACEMENT_3D('',#1850,#1478,#1479);
#1238=AXIS2_PLACEMENT_3D('',#1852,#1481,#1482);
#1239=AXIS2_PLACEMENT_3D('',#1854,#1483,#1484);
#1240=AXIS2_PLACEMENT_3D('',#1855,#1485,#1486);
#1241=AXIS2_PLACEMENT_3D('',#1856,#1487,#1488);
#1242=AXIS2_PLACEMENT_3D('',#1858,#1489,#1490);
#1243=AXIS2_PLACEMENT_3D('',#1860,#1492,#1493);
#1244=AXIS2_PLACEMENT_3D('',#1862,#1494,#1495);
#1245=AXIS2_PLACEMENT_3D('',#1863,#1496,#1497);
#1246=AXIS2_PLACEMENT_3D('',#1864,#1498,#1499);
#1247=AXIS2_PLACEMENT_3D('',#1866,#1500,#1501);
#1248=AXIS2_PLACEMENT_3D('',#1868,#1503,#1504);
#1249=AXIS2_PLACEMENT_3D('',#1869,#1505,#1506);
#1250=AXIS2_PLACEMENT_3D('',#1870,#1507,#1508);
#1251=AXIS2_PLACEMENT_3D('',#1874,#1510,#1511);
#1252=AXIS2_PLACEMENT_3D('',#1876,#1513,#1514);
#1253=AXIS2_PLACEMENT_3D('',#1880,#1517,#1518);
#1254=AXIS2_PLACEMENT_3D('',#1883,#1520,#1521);
#1255=AXIS2_PLACEMENT_3D('',#1884,#1522,#1523);
#1256=AXIS2_PLACEMENT_3D('',#1888,#1526,#1527);
#1257=AXIS2_PLACEMENT_3D('',#1890,#1528,#1529);
#1258=AXIS2_PLACEMENT_3D('',#1893,#1531,#1532);
#1259=AXIS2_PLACEMENT_3D('',#1894,#1533,#1534);
#1260=AXIS2_PLACEMENT_3D('',#1896,#1535,#1536);
#1261=AXIS2_PLACEMENT_3D('',#1898,#1538,#1539);
#1262=AXIS2_PLACEMENT_3D('',#1901,#1541,#1542);
#1263=AXIS2_PLACEMENT_3D('',#1902,#1543,#1544);
#1264=AXIS2_PLACEMENT_3D('',#1904,#1546,#1547);
#1265=AXIS2_PLACEMENT_3D('',#1910,#1551,#1552);
#1266=AXIS2_PLACEMENT_3D('',#1914,#1555,#1556);
#1267=AXIS2_PLACEMENT_3D('',#1916,#1557,#1558);
#1268=AXIS2_PLACEMENT_3D('',#1919,#1560,#1561);
#1269=AXIS2_PLACEMENT_3D('',#1920,#1562,#1563);
#1270=AXIS2_PLACEMENT_3D('',#1945,#1564,#1565);
#1271=AXIS2_PLACEMENT_3D('',#1946,#1566,#1567);
#1272=AXIS2_PLACEMENT_3D('',#1947,#1568,#1569);
#1273=AXIS2_PLACEMENT_3D('',#1949,#1570,#1571);
#1274=AXIS2_PLACEMENT_3D('',#1951,#1573,#1574);
#1275=AXIS2_PLACEMENT_3D('',#1976,#1575,#1576);
#1276=AXIS2_PLACEMENT_3D('',#1977,#1577,#1578);
#1277=AXIS2_PLACEMENT_3D('',#1978,#1579,#1580);
#1278=AXIS2_PLACEMENT_3D('',#1980,#1581,#1582);
#1279=AXIS2_PLACEMENT_3D('',#1982,#1584,#1585);
#1280=AXIS2_PLACEMENT_3D('',#2002,#1586,#1587);
#1281=AXIS2_PLACEMENT_3D('',#2003,#1588,#1589);
#1282=AXIS2_PLACEMENT_3D('',#2004,#1590,#1591);
#1283=AXIS2_PLACEMENT_3D('',#2006,#1592,#1593);
#1284=AXIS2_PLACEMENT_3D('',#2008,#1595,#1596);
#1285=AXIS2_PLACEMENT_3D('',#2027,#1597,#1598);
#1286=AXIS2_PLACEMENT_3D('',#2028,#1599,#1600);
#1287=AXIS2_PLACEMENT_3D('',#2032,#1602,#1603);
#1288=AXIS2_PLACEMENT_3D('',#2034,#1605,#1606);
#1289=AXIS2_PLACEMENT_3D('',#2038,#1609,#1610);
#1290=AXIS2_PLACEMENT_3D('',#2041,#1612,#1613);
#1291=AXIS2_PLACEMENT_3D('',#2042,#1614,#1615);
#1292=AXIS2_PLACEMENT_3D('',#2046,#1618,#1619);
#1293=AXIS2_PLACEMENT_3D('',#2049,#1621,#1622);
#1294=AXIS2_PLACEMENT_3D('',#2050,#1623,#1624);
#1295=AXIS2_PLACEMENT_3D('',#2053,#1626,#1627);
#1296=AXIS2_PLACEMENT_3D('',#2054,#1628,#1629);
#1297=AXIS2_PLACEMENT_3D('',#2060,#1633,#1634);
#1298=AXIS2_PLACEMENT_3D('',#2063,#1636,#1637);
#1299=AXIS2_PLACEMENT_3D('',#2064,#1638,#1639);
#1300=AXIS2_PLACEMENT_3D('',#2066,#1641,#1642);
#1301=AXIS2_PLACEMENT_3D('',#2067,#1643,#1644);
#1302=AXIS2_PLACEMENT_3D('',#2068,#1645,#1646);
#1303=AXIS2_PLACEMENT_3D('',#2072,#1649,#1650);
#1304=AXIS2_PLACEMENT_3D('',#2074,#1652,#1653);
#1305=AXIS2_PLACEMENT_3D('',#2077,#1655,#1656);
#1306=AXIS2_PLACEMENT_3D('',#2078,#1657,#1658);
#1307=AXIS2_PLACEMENT_3D('',#2082,#1661,#1662);
#1308=AXIS2_PLACEMENT_3D('',#2085,#1664,#1665);
#1309=AXIS2_PLACEMENT_3D('',#2086,#1666,#1667);
#1310=AXIS2_PLACEMENT_3D('',#2088,#1669,#1670);
#1311=AXIS2_PLACEMENT_3D('',#2091,#1672,#1673);
#1312=AXIS2_PLACEMENT_3D('',#2092,#1674,#1675);
#1313=AXIS2_PLACEMENT_3D('',#2095,#1677,#1678);
#1314=AXIS2_PLACEMENT_3D('',#2096,#1679,#1680);
#1315=AXIS2_PLACEMENT_3D('',#2100,#1683,#1684);
#1316=AXIS2_PLACEMENT_3D('',#2103,#1686,#1687);
#1317=AXIS2_PLACEMENT_3D('',#2104,#1688,#1689);
#1318=AXIS2_PLACEMENT_3D('',#2108,#1692,#1693);
#1319=AXIS2_PLACEMENT_3D('',#2109,#1694,#1695);
#1320=AXIS2_PLACEMENT_3D('',#2110,#1696,#1697);
#1321=DIRECTION('axis',(0.,0.,1.));
#1322=DIRECTION('refdir',(1.,0.,0.));
#1323=DIRECTION('center_axis',(0.,-1.,0.));
#1324=DIRECTION('ref_axis',(0.,0.,-1.));
#1325=DIRECTION('center_axis',(0.,1.,0.));
#1326=DIRECTION('ref_axis',(-1.,0.,0.));
#1327=DIRECTION('center_axis',(-1.,0.,0.));
#1328=DIRECTION('ref_axis',(0.,0.,1.));
#1329=DIRECTION('center_axis',(0.,-1.,0.));
#1330=DIRECTION('ref_axis',(-1.,0.,0.));
#1331=DIRECTION('center_axis',(0.,-1.,0.));
#1332=DIRECTION('ref_axis',(-1.,0.,0.));
#1333=DIRECTION('center_axis',(0.,1.,0.));
#1334=DIRECTION('ref_axis',(1.,0.,0.));
#1335=DIRECTION('center_axis',(0.,-1.,0.));
#1336=DIRECTION('ref_axis',(0.707106781186548,0.,-0.707106781186547));
#1337=DIRECTION('',(1.,0.,0.));
#1338=DIRECTION('center_axis',(0.,-1.,0.));
#1339=DIRECTION('ref_axis',(-0.707106781186547,0.,-0.707106781186548));
#1340=DIRECTION('center_axis',(0.,-1.,0.));
#1341=DIRECTION('ref_axis',(-1.,0.,0.));
#1342=DIRECTION('center_axis',(0.,-1.,0.));
#1343=DIRECTION('ref_axis',(-1.,0.,0.));
#1344=DIRECTION('center_axis',(0.,-1.,0.));
#1345=DIRECTION('ref_axis',(-0.707106781186547,0.,-0.707106781186548));
#1346=DIRECTION('',(0.,0.,-1.));
#1347=DIRECTION('center_axis',(0.,-1.,0.));
#1348=DIRECTION('ref_axis',(-0.707106781186548,0.,0.707106781186547));
#1349=DIRECTION('center_axis',(0.,-1.,0.));
#1350=DIRECTION('ref_axis',(-1.,0.,0.));
#1351=DIRECTION('center_axis',(0.,-1.,0.));
#1352=DIRECTION('ref_axis',(-1.,0.,0.));
#1353=DIRECTION('center_axis',(0.,-1.,0.));
#1354=DIRECTION('ref_axis',(-0.707106781186548,0.,0.707106781186547));
#1355=DIRECTION('',(-1.,0.,0.));
#1356=DIRECTION('center_axis',(0.,-1.,0.));
#1357=DIRECTION('ref_axis',(0.707106781186548,0.,0.707106781186547));
#1358=DIRECTION('center_axis',(0.,-1.,0.));
#1359=DIRECTION('ref_axis',(-1.,0.,0.));
#1360=DIRECTION('center_axis',(0.,-1.,0.));
#1361=DIRECTION('ref_axis',(0.707106781186548,0.,0.707106781186547));
#1362=DIRECTION('',(0.,0.,1.));
#1363=DIRECTION('center_axis',(0.,-1.,0.));
#1364=DIRECTION('ref_axis',(0.707106781186548,0.,-0.707106781186547));
#1365=DIRECTION('center_axis',(0.,-1.,0.));
#1366=DIRECTION('ref_axis',(-1.,0.,0.));
#1367=DIRECTION('',(2.22044604925031E-16,0.,1.));
#1368=DIRECTION('center_axis',(0.,1.,0.));
#1369=DIRECTION('ref_axis',(-0.707106781186547,0.,-0.707106781186548));
#1370=DIRECTION('',(-1.,0.,8.07434927000114E-17));
#1371=DIRECTION('center_axis',(0.,1.,0.));
#1372=DIRECTION('ref_axis',(0.707106781186548,0.,-0.707106781186547));
#1373=DIRECTION('',(0.,0.,-1.));
#1374=DIRECTION('center_axis',(0.,1.,0.));
#1375=DIRECTION('ref_axis',(0.707106781186548,0.,0.707106781186547));
#1376=DIRECTION('',(1.,0.,1.58603289232165E-16));
#1377=DIRECTION('center_axis',(0.,1.,0.));
#1378=DIRECTION('ref_axis',(-0.707106781186548,0.,0.707106781186547));
#1379=DIRECTION('',(1.,0.,0.));
#1380=DIRECTION('',(0.,0.,1.));
#1381=DIRECTION('',(-1.,0.,0.));
#1382=DIRECTION('',(0.,0.,-1.));
#1383=DIRECTION('',(0.,0.,-1.));
#1384=DIRECTION('center_axis',(0.,1.,0.));
#1385=DIRECTION('ref_axis',(0.707106781186545,0.,0.70710678118655));
#1386=DIRECTION('',(1.,0.,2.11471052309554E-16));
#1387=DIRECTION('center_axis',(0.,1.,0.));
#1388=DIRECTION('ref_axis',(-0.707106781186546,0.,0.707106781186549));
#1389=DIRECTION('',(-6.34413156928661E-16,0.,1.));
#1390=DIRECTION('center_axis',(0.,1.,0.));
#1391=DIRECTION('ref_axis',(-0.70710678118655,0.,-0.707106781186545));
#1392=DIRECTION('',(-1.,0.,0.));
#1393=DIRECTION('center_axis',(0.,1.,0.));
#1394=DIRECTION('ref_axis',(0.707106781186548,0.,-0.707106781186548));
#1395=DIRECTION('center_axis',(0.,-1.,0.));
#1396=DIRECTION('ref_axis',(-1.,0.,0.));
#1397=DIRECTION('',(0.,-1.,0.));
#1398=DIRECTION('center_axis',(0.,1.,0.));
#1399=DIRECTION('ref_axis',(-1.,0.,0.));
#1400=DIRECTION('center_axis',(-2.22044604925031E-16,0.,-1.));
#1401=DIRECTION('ref_axis',(0.707106781186546,0.707106781186549,0.));
#1402=DIRECTION('center_axis',(0.,0.,-1.));
#1403=DIRECTION('ref_axis',(0.,1.,0.));
#1404=DIRECTION('',(-2.22044604925031E-16,0.,-1.));
#1405=DIRECTION('center_axis',(0.,0.,1.));
#1406=DIRECTION('ref_axis',(1.,0.,0.));
#1407=DIRECTION('center_axis',(0.,-1.,0.));
#1408=DIRECTION('ref_axis',(0.,0.,-1.));
#1409=DIRECTION('center_axis',(-1.,0.,0.));
#1410=DIRECTION('ref_axis',(0.,0.,1.));
#1411=DIRECTION('center_axis',(0.,-1.,0.));
#1412=DIRECTION('ref_axis',(-0.707106781186547,0.,-0.707106781186548));
#1413=DIRECTION('center_axis',(1.,0.,-8.07434927000114E-17));
#1414=DIRECTION('ref_axis',(0.,0.707106781186547,0.707106781186548));
#1415=DIRECTION('center_axis',(-1.,0.,0.));
#1416=DIRECTION('ref_axis',(0.,0.,1.));
#1417=DIRECTION('',(1.,0.,-8.07434927000114E-17));
#1418=DIRECTION('center_axis',(0.,-1.,0.));
#1419=DIRECTION('ref_axis',(0.,0.,-1.));
#1420=DIRECTION('center_axis',(2.2204460492503E-15,0.,-1.));
#1421=DIRECTION('ref_axis',(-1.,0.,-2.2204460492503E-15));
#1422=DIRECTION('center_axis',(0.,-1.,0.));
#1423=DIRECTION('ref_axis',(0.707106781186548,0.,-0.707106781186547));
#1424=DIRECTION('center_axis',(0.,0.,1.));
#1425=DIRECTION('ref_axis',(-0.707106781186546,0.707106781186549,0.));
#1426=DIRECTION('center_axis',(0.,0.,-1.));
#1427=DIRECTION('ref_axis',(-1.,0.,0.));
#1428=DIRECTION('',(0.,0.,1.));
#1429=DIRECTION('center_axis',(0.,-1.,0.));
#1430=DIRECTION('ref_axis',(0.,0.,-1.));
#1431=DIRECTION('center_axis',(1.,0.,0.));
#1432=DIRECTION('ref_axis',(0.,0.,-1.));
#1433=DIRECTION('center_axis',(0.,-1.,0.));
#1434=DIRECTION('ref_axis',(0.707106781186548,0.,0.707106781186547));
#1435=DIRECTION('center_axis',(-1.,0.,-1.58603289232165E-16));
#1436=DIRECTION('ref_axis',(0.,0.707106781186549,-0.707106781186546));
#1437=DIRECTION('center_axis',(1.,0.,0.));
#1438=DIRECTION('ref_axis',(0.,0.,-1.));
#1439=DIRECTION('',(-1.,0.,-1.58603289232165E-16));
#1440=DIRECTION('center_axis',(0.,-1.,0.));
#1441=DIRECTION('ref_axis',(0.,0.,-1.));
#1442=DIRECTION('center_axis',(0.,-1.,0.));
#1443=DIRECTION('ref_axis',(-0.707106781186548,0.,0.707106781186547));
#1444=DIRECTION('center_axis',(0.,-1.,0.));
#1445=DIRECTION('ref_axis',(1.,0.,4.44089209850063E-16));
#1446=DIRECTION('',(0.,-1.,0.));
#1447=DIRECTION('center_axis',(0.,1.,0.));
#1448=DIRECTION('ref_axis',(1.,0.,4.44089209850063E-16));
#1449=DIRECTION('',(0.,-1.,0.));
#1450=DIRECTION('center_axis',(-8.07434927000114E-17,0.,-1.));
#1451=DIRECTION('ref_axis',(1.,0.,-8.07434927000114E-17));
#1452=DIRECTION('',(0.,-1.,0.));
#1453=DIRECTION('',(-1.,0.,8.07434927000114E-17));
#1454=DIRECTION('center_axis',(0.,-1.,0.));
#1455=DIRECTION('ref_axis',(4.44089209850063E-16,0.,-1.));
#1456=DIRECTION('',(0.,-1.,0.));
#1457=DIRECTION('center_axis',(0.,1.,0.));
#1458=DIRECTION('ref_axis',(4.44089209850063E-16,0.,-1.));
#1459=DIRECTION('center_axis',(-1.,0.,2.22044604925031E-16));
#1460=DIRECTION('ref_axis',(-2.22044604925031E-16,0.,-1.));
#1461=DIRECTION('',(0.,-1.,0.));
#1462=DIRECTION('',(2.22044604925031E-16,0.,1.));
#1463=DIRECTION('center_axis',(0.,0.,1.));
#1464=DIRECTION('ref_axis',(-0.707106781186546,0.707106781186549,0.));
#1465=DIRECTION('center_axis',(0.,0.,1.));
#1466=DIRECTION('ref_axis',(0.,1.,0.));
#1467=DIRECTION('',(0.,0.,1.));
#1468=DIRECTION('center_axis',(0.,0.,-1.));
#1469=DIRECTION('ref_axis',(-1.,0.,0.));
#1470=DIRECTION('center_axis',(0.,-1.,0.));
#1471=DIRECTION('ref_axis',(0.,0.,-1.));
#1472=DIRECTION('center_axis',(1.,0.,4.44089209850062E-15));
#1473=DIRECTION('ref_axis',(4.44089209850062E-15,0.,-1.));
#1474=DIRECTION('center_axis',(0.,-1.,0.));
#1475=DIRECTION('ref_axis',(0.707106781186545,0.,0.70710678118655));
#1476=DIRECTION('center_axis',(-1.,0.,-2.11471052309554E-16));
#1477=DIRECTION('ref_axis',(0.,0.707106781186549,-0.707106781186546));
#1478=DIRECTION('center_axis',(1.,0.,0.));
#1479=DIRECTION('ref_axis',(0.,0.,-1.));
#1480=DIRECTION('',(-1.,0.,-2.11471052309554E-16));
#1481=DIRECTION('center_axis',(0.,-1.,0.));
#1482=DIRECTION('ref_axis',(0.,0.,-1.));
#1483=DIRECTION('center_axis',(4.44089209850063E-15,0.,1.));
#1484=DIRECTION('ref_axis',(1.,0.,-4.44089209850063E-15));
#1485=DIRECTION('center_axis',(0.,-1.,0.));
#1486=DIRECTION('ref_axis',(-0.707106781186546,0.,0.707106781186549));
#1487=DIRECTION('center_axis',(6.34413156928661E-16,0.,-1.));
#1488=DIRECTION('ref_axis',(0.707106781186548,0.707106781186547,0.));
#1489=DIRECTION('center_axis',(0.,0.,1.));
#1490=DIRECTION('ref_axis',(1.,0.,0.));
#1491=DIRECTION('',(6.34413156928661E-16,0.,-1.));
#1492=DIRECTION('center_axis',(0.,-1.,0.));
#1493=DIRECTION('ref_axis',(0.,0.,-1.));
#1494=DIRECTION('center_axis',(-1.,0.,-4.44089209850062E-15));
#1495=DIRECTION('ref_axis',(-4.44089209850062E-15,0.,1.));
#1496=DIRECTION('center_axis',(0.,-1.,0.));
#1497=DIRECTION('ref_axis',(-0.70710678118655,0.,-0.707106781186545));
#1498=DIRECTION('center_axis',(1.,0.,0.));
#1499=DIRECTION('ref_axis',(0.,0.707106781186546,0.707106781186549));
#1500=DIRECTION('center_axis',(-1.,0.,0.));
#1501=DIRECTION('ref_axis',(0.,0.,1.));
#1502=DIRECTION('',(1.,0.,0.));
#1503=DIRECTION('center_axis',(0.,-1.,0.));
#1504=DIRECTION('ref_axis',(0.,0.,-1.));
#1505=DIRECTION('center_axis',(0.,-1.,0.));
#1506=DIRECTION('ref_axis',(0.707106781186548,0.,-0.707106781186548));
#1507=DIRECTION('center_axis',(0.,-1.,0.));
#1508=DIRECTION('ref_axis',(-1.,0.,4.44089209850062E-15));
#1509=DIRECTION('',(0.,-1.,0.));
#1510=DIRECTION('center_axis',(0.,1.,0.));
#1511=DIRECTION('ref_axis',(-1.,0.,4.44089209850062E-15));
#1512=DIRECTION('',(0.,-1.,0.));
#1513=DIRECTION('center_axis',(-2.11471052309554E-16,0.,1.));
#1514=DIRECTION('ref_axis',(-1.,0.,-2.11471052309554E-16));
#1515=DIRECTION('',(0.,-1.,0.));
#1516=DIRECTION('',(1.,0.,2.11471052309554E-16));
#1517=DIRECTION('center_axis',(0.,-1.,0.));
#1518=DIRECTION('ref_axis',(-4.44089209850062E-15,0.,1.));
#1519=DIRECTION('',(0.,-1.,0.));
#1520=DIRECTION('center_axis',(0.,1.,0.));
#1521=DIRECTION('ref_axis',(-4.44089209850062E-15,0.,1.));
#1522=DIRECTION('center_axis',(1.,0.,0.));
#1523=DIRECTION('ref_axis',(0.,0.,1.));
#1524=DIRECTION('',(0.,-1.,0.));
#1525=DIRECTION('',(0.,0.,-1.));
#1526=DIRECTION('center_axis',(-1.,0.,0.));
#1527=DIRECTION('ref_axis',(0.,0.707106781186555,-0.70710678118654));
#1528=DIRECTION('center_axis',(-0.707106781186548,0.,0.707106781186548));
#1529=DIRECTION('ref_axis',(0.707106781186548,0.,0.707106781186548));
#1530=DIRECTION('',(-1.,0.,0.));
#1531=DIRECTION('center_axis',(-0.707106781186546,1.57009245868377E-15,
-0.707106781186549));
#1532=DIRECTION('ref_axis',(-0.707106781186549,1.57009245868378E-15,0.707106781186546));
#1533=DIRECTION('center_axis',(0.,0.,1.));
#1534=DIRECTION('ref_axis',(-0.707106781186546,0.707106781186549,0.));
#1535=DIRECTION('center_axis',(0.707106781186548,0.,0.707106781186548));
#1536=DIRECTION('ref_axis',(0.707106781186548,0.,-0.707106781186548));
#1537=DIRECTION('',(0.,0.,1.));
#1538=DIRECTION('center_axis',(0.,0.,-1.));
#1539=DIRECTION('ref_axis',(0.707106781186548,0.707106781186547,0.));
#1540=DIRECTION('',(0.,0.,-1.));
#1541=DIRECTION('center_axis',(-0.707106781186546,0.,0.707106781186549));
#1542=DIRECTION('ref_axis',(0.707106781186549,0.,0.707106781186546));
#1543=DIRECTION('center_axis',(1.,0.,0.));
#1544=DIRECTION('ref_axis',(0.,0.707106781186549,0.707106781186546));
#1545=DIRECTION('',(1.,0.,0.));
#1546=DIRECTION('center_axis',(-1.,0.,0.));
#1547=DIRECTION('ref_axis',(0.,0.,-1.));
#1548=DIRECTION('',(0.,-1.,0.));
#1549=DIRECTION('',(0.,0.,1.));
#1550=DIRECTION('',(0.,-1.,0.));
#1551=DIRECTION('center_axis',(0.,0.,1.));
#1552=DIRECTION('ref_axis',(-1.,0.,0.));
#1553=DIRECTION('',(0.,-1.,0.));
#1554=DIRECTION('',(1.,0.,0.));
#1555=DIRECTION('center_axis',(1.,0.,0.));
#1556=DIRECTION('ref_axis',(0.,0.707106781186549,0.707106781186546));
#1557=DIRECTION('center_axis',(1.,0.,0.));
#1558=DIRECTION('ref_axis',(0.,1.,0.));
#1559=DIRECTION('',(1.,0.,0.));
#1560=DIRECTION('center_axis',(-1.,0.,4.44089209850064E-15));
#1561=DIRECTION('ref_axis',(4.44089209850064E-15,0.,1.));
#1562=DIRECTION('center_axis',(0.,1.,0.));
#1563=DIRECTION('ref_axis',(0.,0.,1.));
#1564=DIRECTION('center_axis',(0.,1.,0.));
#1565=DIRECTION('ref_axis',(0.707106781186548,0.,0.707106781186547));
#1566=DIRECTION('center_axis',(0.,0.,1.));
#1567=DIRECTION('ref_axis',(1.,0.,0.));
#1568=DIRECTION('center_axis',(0.,0.,-1.));
#1569=DIRECTION('ref_axis',(0.707106781186549,0.707106781186546,0.));
#1570=DIRECTION('center_axis',(-1.11022302462516E-15,0.,1.));
#1571=DIRECTION('ref_axis',(1.,0.,1.11022302462516E-15));
#1572=DIRECTION('',(0.,0.,-1.));
#1573=DIRECTION('center_axis',(0.,1.,0.));
#1574=DIRECTION('ref_axis',(0.,0.,1.));
#1575=DIRECTION('center_axis',(0.,1.,0.));
#1576=DIRECTION('ref_axis',(0.707106781186548,0.,-0.707106781186547));
#1577=DIRECTION('center_axis',(1.,0.,0.));
#1578=DIRECTION('ref_axis',(0.,0.,-1.));
#1579=DIRECTION('center_axis',(-1.,0.,0.));
#1580=DIRECTION('ref_axis',(0.,0.707106781186547,-0.707106781186548));
#1581=DIRECTION('center_axis',(1.,0.,-2.22044604925031E-15));
#1582=DIRECTION('ref_axis',(-2.22044604925031E-15,0.,-1.));
#1583=DIRECTION('',(-1.,0.,0.));
#1584=DIRECTION('center_axis',(0.,1.,0.));
#1585=DIRECTION('ref_axis',(0.,0.,1.));
#1586=DIRECTION('center_axis',(0.,1.,0.));
#1587=DIRECTION('ref_axis',(-0.707106781186547,0.,-0.707106781186548));
#1588=DIRECTION('center_axis',(5.55111512312578E-16,0.,-1.));
#1589=DIRECTION('ref_axis',(-1.,0.,-5.55111512312578E-16));
#1590=DIRECTION('center_axis',(0.,0.,1.));
#1591=DIRECTION('ref_axis',(-0.707106781186547,0.707106781186548,0.));
#1592=DIRECTION('center_axis',(0.,0.,-1.));
#1593=DIRECTION('ref_axis',(-1.,0.,0.));
#1594=DIRECTION('',(0.,0.,1.));
#1595=DIRECTION('center_axis',(0.,1.,0.));
#1596=DIRECTION('ref_axis',(0.,0.,1.));
#1597=DIRECTION('center_axis',(0.,1.,0.));
#1598=DIRECTION('ref_axis',(-0.707106781186548,0.,0.707106781186547));
#1599=DIRECTION('center_axis',(0.,1.,0.));
#1600=DIRECTION('ref_axis',(1.,0.,0.));
#1601=DIRECTION('',(0.,1.,0.));
#1602=DIRECTION('center_axis',(0.,1.,0.));
#1603=DIRECTION('ref_axis',(1.,0.,0.));
#1604=DIRECTION('',(0.,1.,0.));
#1605=DIRECTION('center_axis',(1.,0.,0.));
#1606=DIRECTION('ref_axis',(0.,0.,-1.));
#1607=DIRECTION('',(0.,1.,0.));
#1608=DIRECTION('',(0.,0.,1.));
#1609=DIRECTION('center_axis',(0.,1.,0.));
#1610=DIRECTION('ref_axis',(1.,0.,0.));
#1611=DIRECTION('',(0.,1.,0.));
#1612=DIRECTION('center_axis',(0.,1.,0.));
#1613=DIRECTION('ref_axis',(1.,0.,0.));
#1614=DIRECTION('center_axis',(0.,0.,1.));
#1615=DIRECTION('ref_axis',(1.,0.,0.));
#1616=DIRECTION('',(0.,1.,0.));
#1617=DIRECTION('',(-1.,0.,0.));
#1618=DIRECTION('center_axis',(0.,-1.,0.));
#1619=DIRECTION('ref_axis',(-1.,0.,0.));
#1620=DIRECTION('',(0.,-1.,0.));
#1621=DIRECTION('center_axis',(0.,1.,0.));
#1622=DIRECTION('ref_axis',(-1.,0.,0.));
#1623=DIRECTION('center_axis',(0.,-1.,0.));
#1624=DIRECTION('ref_axis',(-1.,0.,0.));
#1625=DIRECTION('',(0.,-1.,0.));
#1626=DIRECTION('center_axis',(0.,1.,0.));
#1627=DIRECTION('ref_axis',(-1.,0.,0.));
#1628=DIRECTION('center_axis',(0.,0.,-1.));
#1629=DIRECTION('ref_axis',(1.,0.,0.));
#1630=DIRECTION('',(0.,-1.,0.));
#1631=DIRECTION('',(-1.,0.,0.));
#1632=DIRECTION('',(0.,-1.,0.));
#1633=DIRECTION('center_axis',(0.,-1.,0.));
#1634=DIRECTION('ref_axis',(4.44089209850066E-15,0.,-1.));
#1635=DIRECTION('',(0.,-1.,0.));
#1636=DIRECTION('center_axis',(0.,1.,0.));
#1637=DIRECTION('ref_axis',(4.44089209850066E-15,0.,-1.));
#1638=DIRECTION('center_axis',(-1.,0.,-6.34413156928661E-16));
#1639=DIRECTION('ref_axis',(6.34413156928661E-16,0.,-1.));
#1640=DIRECTION('',(-6.34413156928661E-16,0.,1.));
#1641=DIRECTION('center_axis',(0.,-1.,0.));
#1642=DIRECTION('ref_axis',(1.,0.,0.));
#1643=DIRECTION('center_axis',(0.,1.,0.));
#1644=DIRECTION('ref_axis',(1.,0.,0.));
#1645=DIRECTION('center_axis',(1.,0.,0.));
#1646=DIRECTION('ref_axis',(0.,0.,1.));
#1647=DIRECTION('',(0.,-1.,0.));
#1648=DIRECTION('',(0.,0.,-1.));
#1649=DIRECTION('center_axis',(0.,0.,-1.));
#1650=DIRECTION('ref_axis',(1.,0.,0.));
#1651=DIRECTION('',(-1.,0.,0.));
#1652=DIRECTION('center_axis',(0.,-1.,0.));
#1653=DIRECTION('ref_axis',(-1.,0.,1.11022302462516E-15));
#1654=DIRECTION('',(0.,-1.,0.));
#1655=DIRECTION('center_axis',(0.,1.,0.));
#1656=DIRECTION('ref_axis',(-1.,0.,1.11022302462516E-15));
#1657=DIRECTION('center_axis',(-1.58603289232165E-16,0.,1.));
#1658=DIRECTION('ref_axis',(-1.,0.,-1.58603289232165E-16));
#1659=DIRECTION('',(0.,-1.,0.));
#1660=DIRECTION('',(1.,0.,1.58603289232165E-16));
#1661=DIRECTION('center_axis',(0.,-1.,0.));
#1662=DIRECTION('ref_axis',(0.,0.,1.));
#1663=DIRECTION('',(0.,-1.,0.));
#1664=DIRECTION('center_axis',(0.,1.,0.));
#1665=DIRECTION('ref_axis',(0.,0.,1.));
#1666=DIRECTION('center_axis',(1.,0.,0.));
#1667=DIRECTION('ref_axis',(0.,0.,1.));
#1668=DIRECTION('',(0.,0.,-1.));
#1669=DIRECTION('center_axis',(0.,-1.,0.));
#1670=DIRECTION('ref_axis',(-1.,0.,0.));
#1671=DIRECTION('',(0.,-1.,0.));
#1672=DIRECTION('center_axis',(0.,1.,0.));
#1673=DIRECTION('ref_axis',(-1.,0.,0.));
#1674=DIRECTION('center_axis',(0.,-1.,0.));
#1675=DIRECTION('ref_axis',(-1.,0.,0.));
#1676=DIRECTION('',(0.,-1.,0.));
#1677=DIRECTION('center_axis',(0.,1.,0.));
#1678=DIRECTION('ref_axis',(-1.,0.,0.));
#1679=DIRECTION('center_axis',(0.,0.,-1.));
#1680=DIRECTION('ref_axis',(-1.,0.,0.));
#1681=DIRECTION('',(1.,0.,0.));
#1682=DIRECTION('',(0.,1.,0.));
#1683=DIRECTION('center_axis',(0.,1.,0.));
#1684=DIRECTION('ref_axis',(1.,0.,0.));
#1685=DIRECTION('',(0.,1.,0.));
#1686=DIRECTION('center_axis',(0.,1.,0.));
#1687=DIRECTION('ref_axis',(1.,0.,0.));
#1688=DIRECTION('center_axis',(-1.,0.,0.));
#1689=DIRECTION('ref_axis',(0.,0.,1.));
#1690=DIRECTION('',(0.,1.,0.));
#1691=DIRECTION('',(0.,0.,-1.));
#1692=DIRECTION('center_axis',(0.,1.,0.));
#1693=DIRECTION('ref_axis',(1.,0.,0.));
#1694=DIRECTION('center_axis',(0.,1.,0.));
#1695=DIRECTION('ref_axis',(1.,0.,0.));
#1696=DIRECTION('center_axis',(0.,1.,0.));
#1697=DIRECTION('ref_axis',(1.,0.,0.));
#1698=CARTESIAN_POINT('',(0.,0.,0.));
#1699=CARTESIAN_POINT('Origin',(61.7592248875,3.,38.4908781971));
#1700=CARTESIAN_POINT('',(61.7592248875,4.,44.4908781971));
#1701=CARTESIAN_POINT('Origin',(61.7592248875,4.,38.4908781971));
#1702=CARTESIAN_POINT('',(61.7592248875,3.,43.4908781971));
#1703=CARTESIAN_POINT('Origin',(61.7592248875,3.,44.4908781971));
#1704=CARTESIAN_POINT('',(66.7592248875,3.,38.4908781971));
#1705=CARTESIAN_POINT('Origin',(61.7592248875,3.,38.4908781971));
#1706=CARTESIAN_POINT('Origin',(61.7592248875,3.,38.4908781971));
#1707=CARTESIAN_POINT('Origin',(40.25,4.,56.5));
#1708=CARTESIAN_POINT('',(75.,4.,2.));
#1709=CARTESIAN_POINT('',(75.2515499326265,4.,2.00905132787725));
#1710=CARTESIAN_POINT('Origin',(75.,4.,5.5));
#1711=CARTESIAN_POINT('',(5.50000000000001,4.,2.));
#1712=CARTESIAN_POINT('',(57.625,4.,2.));
#1713=CARTESIAN_POINT('',(5.24844856377661,4.,2.00905143622339));
#1714=CARTESIAN_POINT('Origin',(5.5,4.,5.5));
#1715=CARTESIAN_POINT('',(6.35,4.,4.));
#1716=CARTESIAN_POINT('Origin',(4.,4.,4.));
#1717=CARTESIAN_POINT('',(2.0090514362234,4.,5.2484485637766));
#1718=CARTESIAN_POINT('Origin',(4.,4.,4.));
#1719=CARTESIAN_POINT('',(2.,4.,5.5));
#1720=CARTESIAN_POINT('Origin',(5.5,4.,5.5));
#1721=CARTESIAN_POINT('',(2.,4.,107.5));
#1722=CARTESIAN_POINT('',(2.,4.,31.));
#1723=CARTESIAN_POINT('',(2.0090514362234,4.,107.751551436223));
#1724=CARTESIAN_POINT('Origin',(5.5,4.,107.5));
#1725=CARTESIAN_POINT('',(6.35,4.,109.));
#1726=CARTESIAN_POINT('Origin',(4.,4.,109.));
#1727=CARTESIAN_POINT('',(5.24844856377661,4.,110.990948563777));
#1728=CARTESIAN_POINT('Origin',(4.,4.,109.));
#1729=CARTESIAN_POINT('',(5.5,4.,111.));
#1730=CARTESIAN_POINT('Origin',(5.5,4.,107.5));
#1731=CARTESIAN_POINT('',(75.,4.,111.));
#1732=CARTESIAN_POINT('',(22.875,4.,111.));
#1733=CARTESIAN_POINT('',(75.2515514362234,4.,110.990948563777));
#1734=CARTESIAN_POINT('Origin',(75.,4.,107.5));
#1735=CARTESIAN_POINT('',(78.4909485637766,4.,107.751551436223));
#1736=CARTESIAN_POINT('Origin',(76.5,4.,109.));
#1737=CARTESIAN_POINT('',(78.5,4.,107.5));
#1738=CARTESIAN_POINT('Origin',(75.,4.,107.5));
#1739=CARTESIAN_POINT('',(78.5,4.,5.5));
#1740=CARTESIAN_POINT('',(78.5,4.,82.));
#1741=CARTESIAN_POINT('',(78.4909483909915,4.,5.24844616593231));
#1742=CARTESIAN_POINT('Origin',(75.,4.,5.5));
#1743=CARTESIAN_POINT('Origin',(76.4999983236194,4.,4.));
#1744=CARTESIAN_POINT('',(6.75,4.,14.0000001341105));
#1745=CARTESIAN_POINT('',(6.75,4.,24.0000001341105));
#1746=CARTESIAN_POINT('',(6.75000000000001,4.,40.2500000670552));
#1747=CARTESIAN_POINT('',(12.75,4.,8.00000013411045));
#1748=CARTESIAN_POINT('Origin',(12.75,4.,14.0000001341104));
#1749=CARTESIAN_POINT('',(67.75,4.,8.00000013411045));
#1750=CARTESIAN_POINT('',(26.5,4.,8.00000013411045));
#1751=CARTESIAN_POINT('',(73.75,4.,14.0000001341105));
#1752=CARTESIAN_POINT('Origin',(67.75,4.,14.0000001341104));
#1753=CARTESIAN_POINT('',(73.75,4.,23.0000001341105));
#1754=CARTESIAN_POINT('',(73.75,4.,35.2500000670552));
#1755=CARTESIAN_POINT('',(67.75,4.,29.0000001341105));
#1756=CARTESIAN_POINT('Origin',(67.75,4.,23.0000001341105));
#1757=CARTESIAN_POINT('',(11.75,4.,29.0000001341105));
#1758=CARTESIAN_POINT('',(54.,4.,29.0000001341105));
#1759=CARTESIAN_POINT('Origin',(11.75,4.,24.0000001341104));
#1760=CARTESIAN_POINT('',(17.,4.,99.5));
#1761=CARTESIAN_POINT('',(63.5,4.,99.5));
#1762=CARTESIAN_POINT('',(51.375,4.,99.5));
#1763=CARTESIAN_POINT('',(17.,4.,53.));
#1764=CARTESIAN_POINT('',(17.,4.,77.5));
#1765=CARTESIAN_POINT('',(63.5,4.,53.));
#1766=CARTESIAN_POINT('',(29.125,4.,53.));
#1767=CARTESIAN_POINT('',(63.5,4.,55.25));
#1768=CARTESIAN_POINT('',(41.8000002682,4.,38.9000005066));
#1769=CARTESIAN_POINT('',(41.8000002682,4.,34.9000005066));
#1770=CARTESIAN_POINT('',(41.8000002682,4.,45.7000002533));
#1771=CARTESIAN_POINT('',(39.8000002682,4.,40.9000005066));
#1772=CARTESIAN_POINT('Origin',(39.8000002682,4.,38.9000005066));
#1773=CARTESIAN_POINT('',(18.8000002682,4.,40.9000005066));
#1774=CARTESIAN_POINT('',(40.0250001341,4.,40.9000005066));
#1775=CARTESIAN_POINT('',(16.8000002682,4.,38.9000005066));
#1776=CARTESIAN_POINT('Origin',(18.8000002682,4.,38.9000005066));
#1777=CARTESIAN_POINT('',(16.8000002682,4.,35.4000005066));
#1778=CARTESIAN_POINT('',(16.8000002682,4.,47.7000002533));
#1779=CARTESIAN_POINT('',(19.3000002682,4.,32.9000005066));
#1780=CARTESIAN_POINT('Origin',(19.3000002682,4.,35.4000005066));
#1781=CARTESIAN_POINT('',(39.8000002682,4.,32.9000005066));
#1782=CARTESIAN_POINT('',(29.7750001341,4.,32.9000005066));
#1783=CARTESIAN_POINT('Origin',(39.8000002682,4.,34.9000005066));
#1784=CARTESIAN_POINT('Origin',(61.7592248875,4.,38.4908781971));
#1785=CARTESIAN_POINT('',(66.7592248875,0.,38.4908781971));
#1786=CARTESIAN_POINT('',(66.7592248875,4.,38.4908781971));
#1787=CARTESIAN_POINT('Origin',(61.7592248875,0.,38.4908781971));
#1788=CARTESIAN_POINT('Origin',(6.75000000000001,3.,40.2500000670552));
#1789=CARTESIAN_POINT('',(7.75,3.,24.0000001341105));
#1790=CARTESIAN_POINT('Origin',(6.75,3.,24.0000001341105));
#1791=CARTESIAN_POINT('',(7.75,3.,14.0000001341105));
#1792=CARTESIAN_POINT('',(7.75,3.,40.2500000670552));
#1793=CARTESIAN_POINT('Origin',(6.75,3.,14.0000001341105));
#1794=CARTESIAN_POINT('Origin',(12.75,3.,14.0000001341104));
#1795=CARTESIAN_POINT('',(12.75,3.,9.00000013411045));
#1796=CARTESIAN_POINT('Origin',(12.75,3.,8.00000013411045));
#1797=CARTESIAN_POINT('Origin',(12.75,3.,14.0000001341104));
#1798=CARTESIAN_POINT('Origin',(26.5,3.,8.00000013411045));
#1799=CARTESIAN_POINT('',(67.75,3.,9.00000013411045));
#1800=CARTESIAN_POINT('Origin',(67.75,3.,8.00000013411045));
#1801=CARTESIAN_POINT('',(26.5,3.,9.00000013411045));
#1802=CARTESIAN_POINT('Origin',(67.75,3.,14.0000001341104));
#1803=CARTESIAN_POINT('',(72.75,3.,14.0000001341104));
#1804=CARTESIAN_POINT('Origin',(73.75,3.,14.0000001341105));
#1805=CARTESIAN_POINT('Origin',(67.75,3.,14.0000001341104));
#1806=CARTESIAN_POINT('Origin',(73.75,3.,35.2500000670552));
#1807=CARTESIAN_POINT('',(72.75,3.,23.0000001341105));
#1808=CARTESIAN_POINT('Origin',(73.75,3.,23.0000001341105));
#1809=CARTESIAN_POINT('',(72.75,3.,35.2500000670552));
#1810=CARTESIAN_POINT('Origin',(67.75,3.,23.0000001341105));
#1811=CARTESIAN_POINT('',(67.75,3.,28.0000001341105));
#1812=CARTESIAN_POINT('Origin',(67.75,3.,29.0000001341105));
#1813=CARTESIAN_POINT('Origin',(67.75,3.,23.0000001341105));
#1814=CARTESIAN_POINT('Origin',(54.,3.,29.0000001341105));
#1815=CARTESIAN_POINT('',(11.75,3.,28.0000001341105));
#1816=CARTESIAN_POINT('Origin',(11.75,3.,29.0000001341105));
#1817=CARTESIAN_POINT('',(54.,3.,28.0000001341105));
#1818=CARTESIAN_POINT('Origin',(11.75,3.,24.0000001341104));
#1819=CARTESIAN_POINT('Origin',(11.75,3.,24.0000001341104));
#1820=CARTESIAN_POINT('Origin',(67.75,4.,14.0000001341104));
#1821=CARTESIAN_POINT('',(67.75,0.,9.00000013411045));
#1822=CARTESIAN_POINT('',(67.75,4.,9.00000013411045));
#1823=CARTESIAN_POINT('',(72.75,0.,14.0000001341104));
#1824=CARTESIAN_POINT('Origin',(67.75,0.,14.0000001341104));
#1825=CARTESIAN_POINT('',(72.75,4.,14.0000001341104));
#1826=CARTESIAN_POINT('Origin',(12.75,4.,9.00000013411045));
#1827=CARTESIAN_POINT('',(12.75,0.,9.00000013411045));
#1828=CARTESIAN_POINT('',(12.75,4.,9.00000013411045));
#1829=CARTESIAN_POINT('',(26.5,0.,9.00000013411045));
#1830=CARTESIAN_POINT('Origin',(12.75,4.,14.0000001341104));
#1831=CARTESIAN_POINT('',(7.75,0.,14.0000001341105));
#1832=CARTESIAN_POINT('',(7.75,4.,14.0000001341105));
#1833=CARTESIAN_POINT('Origin',(12.75,0.,14.0000001341104));
#1834=CARTESIAN_POINT('Origin',(7.75,4.,24.0000001341105));
#1835=CARTESIAN_POINT('',(7.75,0.,24.0000001341105));
#1836=CARTESIAN_POINT('',(7.75,4.,24.0000001341105));
#1837=CARTESIAN_POINT('',(7.75000000000001,0.,40.2500000670552));
#1838=CARTESIAN_POINT('Origin',(41.8000002682,3.,45.7000002533));
#1839=CARTESIAN_POINT('',(40.8000002682,3.,34.9000005066));
#1840=CARTESIAN_POINT('Origin',(41.8000002682,3.,34.9000005066));
#1841=CARTESIAN_POINT('',(40.8000002682,3.,38.9000005066));
#1842=CARTESIAN_POINT('',(40.8000002682,3.,45.7000002533));
#1843=CARTESIAN_POINT('Origin',(41.8000002682,3.,38.9000005066));
#1844=CARTESIAN_POINT('Origin',(39.8000002682,3.,38.9000005066));
#1845=CARTESIAN_POINT('',(39.8000002682,3.,39.9000005066));
#1846=CARTESIAN_POINT('Origin',(39.8000002682,3.,40.9000005066));
#1847=CARTESIAN_POINT('Origin',(39.8000002682,3.,38.9000005066));
#1848=CARTESIAN_POINT('Origin',(40.0250001341,3.,40.9000005066));
#1849=CARTESIAN_POINT('',(18.8000002682,3.,39.9000005066));
#1850=CARTESIAN_POINT('Origin',(18.8000002682,3.,40.9000005066));
#1851=CARTESIAN_POINT('',(40.0250001341,3.,39.9000005066));
#1852=CARTESIAN_POINT('Origin',(18.8000002682,3.,38.9000005066));
#1853=CARTESIAN_POINT('',(17.8000002682,3.,38.9000005066));
#1854=CARTESIAN_POINT('Origin',(16.8000002682,3.,38.9000005066));
#1855=CARTESIAN_POINT('Origin',(18.8000002682,3.,38.9000005066));
#1856=CARTESIAN_POINT('Origin',(16.8000002682,3.,47.7000002533));
#1857=CARTESIAN_POINT('',(17.8000002682,3.,35.4000005066));
#1858=CARTESIAN_POINT('Origin',(16.8000002682,3.,35.4000005066));
#1859=CARTESIAN_POINT('',(17.8000002682,3.,47.7000002533));
#1860=CARTESIAN_POINT('Origin',(19.3000002682,3.,35.4000005066));
#1861=CARTESIAN_POINT('',(19.3000002682,3.,33.9000005066));
#1862=CARTESIAN_POINT('Origin',(19.3000002682,3.,32.9000005066));
#1863=CARTESIAN_POINT('Origin',(19.3000002682,3.,35.4000005066));
#1864=CARTESIAN_POINT('Origin',(29.7750001341,3.,32.9000005066));
#1865=CARTESIAN_POINT('',(39.8000002682,3.,33.9000005066));
#1866=CARTESIAN_POINT('Origin',(39.8000002682,3.,32.9000005066));
#1867=CARTESIAN_POINT('',(29.7750001341,3.,33.9000005066));
#1868=CARTESIAN_POINT('Origin',(39.8000002682,3.,34.9000005066));
#1869=CARTESIAN_POINT('Origin',(39.8000002682,3.,34.9000005066));
#1870=CARTESIAN_POINT('Origin',(18.8000002682,4.,38.9000005066));
#1871=CARTESIAN_POINT('',(18.8000002682,0.,39.9000005066));
#1872=CARTESIAN_POINT('',(18.8000002682,4.,39.9000005066));
#1873=CARTESIAN_POINT('',(17.8000002682,0.,38.9000005066));
#1874=CARTESIAN_POINT('Origin',(18.8000002682,0.,38.9000005066));
#1875=CARTESIAN_POINT('',(17.8000002682,4.,38.9000005066));
#1876=CARTESIAN_POINT('Origin',(39.8000002682,4.,39.9000005066));
#1877=CARTESIAN_POINT('',(39.8000002682,0.,39.9000005066));
#1878=CARTESIAN_POINT('',(39.8000002682,4.,39.9000005066));
#1879=CARTESIAN_POINT('',(40.0250001341,0.,39.9000005066));
#1880=CARTESIAN_POINT('Origin',(39.8000002682,4.,38.9000005066));
#1881=CARTESIAN_POINT('',(40.8000002682,0.,38.9000005066));
#1882=CARTESIAN_POINT('',(40.8000002682,4.,38.9000005066));
#1883=CARTESIAN_POINT('Origin',(39.8000002682,0.,38.9000005066));
#1884=CARTESIAN_POINT('Origin',(40.8000002682,4.,34.9000005066));
#1885=CARTESIAN_POINT('',(40.8000002682,0.,34.9000005066));
#1886=CARTESIAN_POINT('',(40.8000002682,4.,34.9000005066));
#1887=CARTESIAN_POINT('',(40.8000002682,0.,45.7000002533));
#1888=CARTESIAN_POINT('Origin',(51.375,3.,99.5));
#1889=CARTESIAN_POINT('',(62.5,3.,98.5));
#1890=CARTESIAN_POINT('Origin',(63.5,3.,99.5));
#1891=CARTESIAN_POINT('',(18.,3.,98.5));
#1892=CARTESIAN_POINT('',(51.375,3.,98.5));
#1893=CARTESIAN_POINT('Origin',(17.,3.,99.5));
#1894=CARTESIAN_POINT('Origin',(63.5,3.,55.25));
#1895=CARTESIAN_POINT('',(62.5,3.,54.));
#1896=CARTESIAN_POINT('Origin',(63.5,3.,53.));
#1897=CARTESIAN_POINT('',(62.5,3.,55.25));
#1898=CARTESIAN_POINT('Origin',(17.,3.,77.5));
#1899=CARTESIAN_POINT('',(18.,3.,54.));
#1900=CARTESIAN_POINT('',(18.,3.,77.5));
#1901=CARTESIAN_POINT('Origin',(17.,3.,53.));
#1902=CARTESIAN_POINT('Origin',(29.125,3.,53.));
#1903=CARTESIAN_POINT('',(29.125,3.,54.));
#1904=CARTESIAN_POINT('Origin',(18.,4.,98.5));
#1905=CARTESIAN_POINT('',(18.,0.,98.5));
#1906=CARTESIAN_POINT('',(18.,4.,98.5));
#1907=CARTESIAN_POINT('',(18.,0.,54.));
#1908=CARTESIAN_POINT('',(18.,0.,77.5));
#1909=CARTESIAN_POINT('',(18.,4.,54.));
#1910=CARTESIAN_POINT('Origin',(62.5,4.,98.5));
#1911=CARTESIAN_POINT('',(62.5,0.,98.5));
#1912=CARTESIAN_POINT('',(62.5,4.,98.5));
#1913=CARTESIAN_POINT('',(51.375,0.,98.5));
#1914=CARTESIAN_POINT('Origin',(22.875,2.,111.));
#1915=CARTESIAN_POINT('',(5.5,2.,113.));
#1916=CARTESIAN_POINT('Origin',(5.5,2.,111.));
#1917=CARTESIAN_POINT('',(75.,2.,113.));
#1918=CARTESIAN_POINT('',(22.875,2.,113.));
#1919=CARTESIAN_POINT('Origin',(75.,2.,111.));
#1920=CARTESIAN_POINT('Origin',(75.,2.,107.5));
#1921=CARTESIAN_POINT('',(78.85,3.89755561646575,109.));
#1922=CARTESIAN_POINT('Ctrl Pts',(78.4909485637766,4.,107.751551436223));
#1923=CARTESIAN_POINT('Ctrl Pts',(78.6507954788647,4.,108.006465411258));
#1924=CARTESIAN_POINT('Ctrl Pts',(78.759974330373,3.97681107909885,108.289427723765));
#1925=CARTESIAN_POINT('Ctrl Pts',(78.8376757192025,3.93073645407021,108.722005789642));
#1926=CARTESIAN_POINT('Ctrl Pts',(78.85,3.91435465600673,108.861038008191));
#1927=CARTESIAN_POINT('Ctrl Pts',(78.85,3.89755561646575,109.));
#1928=CARTESIAN_POINT('Ctrl Pts',(78.85,3.89755561646575,109.));
#1929=CARTESIAN_POINT('Ctrl Pts',(78.85,3.87692175041029,109.170683753603));
#1930=CARTESIAN_POINT('Ctrl Pts',(78.8314050585872,3.85565933553777,109.341261671187));
#1931=CARTESIAN_POINT('Ctrl Pts',(78.7291446325749,3.80147732552293,109.802477801564));
#1932=CARTESIAN_POINT('Ctrl Pts',(78.6080397875892,3.77277400424319,110.081819423149));
#1933=CARTESIAN_POINT('Ctrl Pts',(78.2868070480658,3.74612416649738,110.549083416404));
#1934=CARTESIAN_POINT('Ctrl Pts',(78.1017094685786,3.74502268698695,110.73980227157));
#1935=CARTESIAN_POINT('Ctrl Pts',(77.6396679946099,3.7677385832848,111.078153008722));
#1936=CARTESIAN_POINT('Ctrl Pts',(77.3584945836247,3.79542056222359,111.208929730718));
#1937=CARTESIAN_POINT('Ctrl Pts',(76.7866734836714,3.86166862388916,111.349487148671));
#1938=CARTESIAN_POINT('Ctrl Pts',(76.5026080734984,3.89849825266766,111.366894042721));
#1939=CARTESIAN_POINT('Ctrl Pts',(75.9412616272957,3.96202942351524,111.300087807112));
#1940=CARTESIAN_POINT('Ctrl Pts',(75.6678540952917,3.98834454962525,111.216039767597));
#1941=CARTESIAN_POINT('Ctrl Pts',(75.3596073487732,3.99896457134799,111.055723202178));
#1942=CARTESIAN_POINT('Ctrl Pts',(75.3048583385242,4.,111.0243753066));
#1943=CARTESIAN_POINT('Ctrl Pts',(75.2515514362234,4.,110.990948563777));
#1944=CARTESIAN_POINT('',(80.5,2.,107.5));
#1945=CARTESIAN_POINT('Origin',(75.,2.,107.5));
#1946=CARTESIAN_POINT('Origin',(78.5,2.,107.5));
#1947=CARTESIAN_POINT('Origin',(78.5,2.,82.));
#1948=CARTESIAN_POINT('',(80.5,2.,5.5));
#1949=CARTESIAN_POINT('Origin',(78.5,2.,5.5));
#1950=CARTESIAN_POINT('',(80.5,2.,82.));
#1951=CARTESIAN_POINT('Origin',(75.,2.,5.5));
#1952=CARTESIAN_POINT('',(78.8499983236194,3.89755613661733,4.00000000000001));
#1953=CARTESIAN_POINT('Ctrl Pts',(75.2515499326265,4.,2.00905132787725));
#1954=CARTESIAN_POINT('Ctrl Pts',(75.5064639485878,4.,1.84920441794709));
#1955=CARTESIAN_POINT('Ctrl Pts',(75.7894263047746,3.97681110711549,1.74002558386756));
#1956=CARTESIAN_POINT('Ctrl Pts',(76.390859086581,3.91275158937012,1.63199392143725));
#1957=CARTESIAN_POINT('Ctrl Pts',(76.7049515149567,3.87167261469686,1.63837270903626));
#1958=CARTESIAN_POINT('Ctrl Pts',(77.3024763384376,3.80147772542148,1.77085545214189));
#1959=CARTESIAN_POINT('Ctrl Pts',(77.5818178905587,3.77277450271856,1.89196029567637));
#1960=CARTESIAN_POINT('Ctrl Pts',(78.0490820127275,3.74612479017736,2.21319315301676));
#1961=CARTESIAN_POINT('Ctrl Pts',(78.239801005148,3.74502336716023,2.39829093806697));
#1962=CARTESIAN_POINT('Ctrl Pts',(78.5781517485232,3.76773935997756,2.8603327523736));
#1963=CARTESIAN_POINT('Ctrl Pts',(78.708928388089,3.79542135054939,3.14150625715978));
#1964=CARTESIAN_POINT('Ctrl Pts',(78.8272804739343,3.8512035394328,3.62299160659829));
#1965=CARTESIAN_POINT('Ctrl Pts',(78.8499983236194,3.87474895742621,3.81133810981443));
#1966=CARTESIAN_POINT('Ctrl Pts',(78.8499983236194,3.89755613661733,4.00000000000003));
#1967=CARTESIAN_POINT('Ctrl Pts',(78.8499983236194,3.89755613661733,4.00000000000003));
#1968=CARTESIAN_POINT('Ctrl Pts',(78.8499983236194,3.90875721025574,4.09265572506907));
#1969=CARTESIAN_POINT('Ctrl Pts',(78.8445188508811,3.91977545144505,4.18538809838237));
#1970=CARTESIAN_POINT('Ctrl Pts',(78.8000858870962,3.96202986192002,4.55873936467708));
#1971=CARTESIAN_POINT('Ctrl Pts',(78.7160377374564,3.98834484394903,4.83214683681344));
#1972=CARTESIAN_POINT('Ctrl Pts',(78.5557216447175,3.99896461424064,5.14039236657129));
#1973=CARTESIAN_POINT('Ctrl Pts',(78.5243744003082,4.,5.19514029074346));
#1974=CARTESIAN_POINT('Ctrl Pts',(78.4909483909915,4.,5.24844616593231));
#1975=CARTESIAN_POINT('',(75.,2.,2.22044604925031E-15));
#1976=CARTESIAN_POINT('Origin',(75.,2.,5.5));
#1977=CARTESIAN_POINT('Origin',(75.,2.,2.));
#1978=CARTESIAN_POINT('Origin',(57.625,2.,2.));
#1979=CARTESIAN_POINT('',(5.5,2.,0.));
#1980=CARTESIAN_POINT('Origin',(5.50000000000001,2.,2.));
#1981=CARTESIAN_POINT('',(57.625,2.,0.));
#1982=CARTESIAN_POINT('Origin',(5.5,2.,5.5));
#1983=CARTESIAN_POINT('Ctrl Pts',(2.00905143622339,4.,5.2484485637766));
#1984=CARTESIAN_POINT('Ctrl Pts',(1.91834055288452,4.,5.10378845671051));
#1985=CARTESIAN_POINT('Ctrl Pts',(1.84340749950129,3.99241814530271,4.94923297090227));
#1986=CARTESIAN_POINT('Ctrl Pts',(1.68206091083561,3.95770607334588,4.49565189969163));
#1987=CARTESIAN_POINT('Ctrl Pts',(1.63716872852824,3.92039923309726,4.18662581557032));
#1988=CARTESIAN_POINT('Ctrl Pts',(1.66909932242109,3.84520734871176,3.57072040149537));
#1989=CARTESIAN_POINT('Ctrl Pts',(1.74541037397733,3.80795933701573,3.26851195284635));
#1990=CARTESIAN_POINT('Ctrl Pts',(1.9960016020414,3.76028722623375,2.74258259110363));
#1991=CARTESIAN_POINT('Ctrl Pts',(2.15559604070108,3.74776712926783,2.518167658884));
#1992=CARTESIAN_POINT('Ctrl Pts',(2.55324846237112,3.74887870533899,2.12647942865733));
#1993=CARTESIAN_POINT('Ctrl Pts',(2.78929702114458,3.7634787690351,1.96611798704658));
#1994=CARTESIAN_POINT('Ctrl Pts',(3.30431456086018,3.81250964381176,1.73787358746799));
#1995=CARTESIAN_POINT('Ctrl Pts',(3.5785037690791,3.84613509279032,1.67129030242039));
#1996=CARTESIAN_POINT('Ctrl Pts',(4.11606477030209,3.9118040547693,1.63860104797381));
#1997=CARTESIAN_POINT('Ctrl Pts',(4.37596277969139,3.94338252821609,1.66575395234764));
#1998=CARTESIAN_POINT('Ctrl Pts',(4.84560704136049,3.98656874971052,1.79565309062786));
#1999=CARTESIAN_POINT('Ctrl Pts',(5.05525189796674,4.,1.88790511213191));
#2000=CARTESIAN_POINT('Ctrl Pts',(5.24844856377661,4.,2.0090514362234));
#2001=CARTESIAN_POINT('',(0.,2.,5.5));
#2002=CARTESIAN_POINT('Origin',(5.5,2.,5.5));
#2003=CARTESIAN_POINT('Origin',(2.,2.,5.5));
#2004=CARTESIAN_POINT('Origin',(2.,2.,31.));
#2005=CARTESIAN_POINT('',(0.,2.,107.5));
#2006=CARTESIAN_POINT('Origin',(2.,2.,107.5));
#2007=CARTESIAN_POINT('',(0.,2.,31.));
#2008=CARTESIAN_POINT('Origin',(5.5,2.,107.5));
#2009=CARTESIAN_POINT('Ctrl Pts',(5.24844856377661,4.,110.990948563777));
#2010=CARTESIAN_POINT('Ctrl Pts',(5.10378845671049,4.,111.081659447115));
#2011=CARTESIAN_POINT('Ctrl Pts',(4.94923297090221,3.99241814530271,111.156592500499));
#2012=CARTESIAN_POINT('Ctrl Pts',(4.49565189969167,3.95770607334588,111.317939089164));
#2013=CARTESIAN_POINT('Ctrl Pts',(4.18662581557043,3.92039923309727,111.362831271472));
#2014=CARTESIAN_POINT('Ctrl Pts',(3.57072040149531,3.84520734871175,111.330900677579));
#2015=CARTESIAN_POINT('Ctrl Pts',(3.26851195284633,3.80795933701573,111.254589626023));
#2016=CARTESIAN_POINT('Ctrl Pts',(2.74258259110359,3.76028722623375,111.003998397959));
#2017=CARTESIAN_POINT('Ctrl Pts',(2.51816765888398,3.74776712926784,110.844403959299));
#2018=CARTESIAN_POINT('Ctrl Pts',(2.12647942865737,3.74887870533899,110.446751537629));
#2019=CARTESIAN_POINT('Ctrl Pts',(1.96611798704661,3.76347876903509,110.210702978856));
#2020=CARTESIAN_POINT('Ctrl Pts',(1.73787358746798,3.81250964381176,109.69568543914));
#2021=CARTESIAN_POINT('Ctrl Pts',(1.67129030242039,3.84613509279032,109.421496230921));
#2022=CARTESIAN_POINT('Ctrl Pts',(1.63860104797382,3.9118040547693,108.883935229698));
#2023=CARTESIAN_POINT('Ctrl Pts',(1.66575395234764,3.94338252821609,108.624037220309));
#2024=CARTESIAN_POINT('Ctrl Pts',(1.79565309062788,3.98656874971053,108.154392958639));
#2025=CARTESIAN_POINT('Ctrl Pts',(1.88790511213194,4.,107.944748102033));
#2026=CARTESIAN_POINT('Ctrl Pts',(2.0090514362234,4.,107.751551436223));
#2027=CARTESIAN_POINT('Origin',(5.5,2.,107.5));
#2028=CARTESIAN_POINT('Origin',(75.,0.,5.5));
#2029=CARTESIAN_POINT('',(80.5,0.,5.5));
#2030=CARTESIAN_POINT('',(80.5,0.,5.5));
#2031=CARTESIAN_POINT('',(75.,0.,2.22044604925031E-15));
#2032=CARTESIAN_POINT('Origin',(75.,0.,5.5));
#2033=CARTESIAN_POINT('',(75.,0.,2.22044604925031E-15));
#2034=CARTESIAN_POINT('Origin',(80.5,0.,107.5));
#2035=CARTESIAN_POINT('',(80.5,0.,107.5));
#2036=CARTESIAN_POINT('',(80.5,0.,107.5));
#2037=CARTESIAN_POINT('',(80.5,0.,0.));
#2038=CARTESIAN_POINT('Origin',(75.,0.,107.5));
#2039=CARTESIAN_POINT('',(75.,0.,113.));
#2040=CARTESIAN_POINT('',(75.,0.,113.));
#2041=CARTESIAN_POINT('Origin',(75.,0.,107.5));
#2042=CARTESIAN_POINT('Origin',(5.5,0.,113.));
#2043=CARTESIAN_POINT('',(5.5,0.,113.));
#2044=CARTESIAN_POINT('',(5.5,0.,113.));
#2045=CARTESIAN_POINT('',(80.5,0.,113.));
#2046=CARTESIAN_POINT('Origin',(4.,4.,4.));
#2047=CARTESIAN_POINT('',(6.35,0.,4.));
#2048=CARTESIAN_POINT('',(6.35,4.,4.));
#2049=CARTESIAN_POINT('Origin',(4.,0.,4.));
#2050=CARTESIAN_POINT('Origin',(4.,4.,109.));
#2051=CARTESIAN_POINT('',(6.35,0.,109.));
#2052=CARTESIAN_POINT('',(6.35,4.,109.));
#2053=CARTESIAN_POINT('Origin',(4.,0.,109.));
#2054=CARTESIAN_POINT('Origin',(19.3000002682,4.,33.9000005066));
#2055=CARTESIAN_POINT('',(19.3000002682,0.,33.9000005066));
#2056=CARTESIAN_POINT('',(19.3000002682,4.,33.9000005066));
#2057=CARTESIAN_POINT('',(39.8000002682,0.,33.9000005066));
#2058=CARTESIAN_POINT('',(29.7750001341,0.,33.9000005066));
#2059=CARTESIAN_POINT('',(39.8000002682,4.,33.9000005066));
#2060=CARTESIAN_POINT('Origin',(19.3000002682,4.,35.4000005066));
#2061=CARTESIAN_POINT('',(17.8000002682,0.,35.4000005066));
#2062=CARTESIAN_POINT('',(17.8000002682,4.,35.4000005066));
#2063=CARTESIAN_POINT('Origin',(19.3000002682,0.,35.4000005066));
#2064=CARTESIAN_POINT('Origin',(17.8000002682,4.,38.9000005066));
#2065=CARTESIAN_POINT('',(17.8000002682,0.,47.7000002533));
#2066=CARTESIAN_POINT('Origin',(39.8000002682,4.,34.9000005066));
#2067=CARTESIAN_POINT('Origin',(39.8000002682,0.,34.9000005066));
#2068=CARTESIAN_POINT('Origin',(62.5,4.,54.));
#2069=CARTESIAN_POINT('',(62.5,0.,54.));
#2070=CARTESIAN_POINT('',(62.5,4.,54.));
#2071=CARTESIAN_POINT('',(62.5,0.,55.25));
#2072=CARTESIAN_POINT('Origin',(18.,4.,54.));
#2073=CARTESIAN_POINT('',(29.125,0.,54.));
#2074=CARTESIAN_POINT('Origin',(11.75,4.,24.0000001341104));
#2075=CARTESIAN_POINT('',(11.75,0.,28.0000001341105));
#2076=CARTESIAN_POINT('',(11.75,4.,28.0000001341105));
#2077=CARTESIAN_POINT('Origin',(11.75,0.,24.0000001341104));
#2078=CARTESIAN_POINT('Origin',(67.75,4.,28.0000001341105));
#2079=CARTESIAN_POINT('',(67.75,0.,28.0000001341105));
#2080=CARTESIAN_POINT('',(67.75,4.,28.0000001341105));
#2081=CARTESIAN_POINT('',(54.,0.,28.0000001341105));
#2082=CARTESIAN_POINT('Origin',(67.75,4.,23.0000001341105));
#2083=CARTESIAN_POINT('',(72.75,0.,23.0000001341105));
#2084=CARTESIAN_POINT('',(72.75,4.,23.0000001341105));
#2085=CARTESIAN_POINT('Origin',(67.75,0.,23.0000001341105));
#2086=CARTESIAN_POINT('Origin',(72.75,4.,14.0000001341104));
#2087=CARTESIAN_POINT('',(72.75,0.,35.2500000670552));
#2088=CARTESIAN_POINT('Origin',(76.5,4.,109.));
#2089=CARTESIAN_POINT('',(78.85,0.,109.));
#2090=CARTESIAN_POINT('',(78.85,4.,109.));
#2091=CARTESIAN_POINT('Origin',(76.5,0.,109.));
#2092=CARTESIAN_POINT('Origin',(76.4999983236194,4.,4.));
#2093=CARTESIAN_POINT('',(78.8499983236194,0.,4.));
#2094=CARTESIAN_POINT('',(78.8499983236194,4.,4.));
#2095=CARTESIAN_POINT('Origin',(76.4999983236194,0.,4.));
#2096=CARTESIAN_POINT('Origin',(75.,0.,0.));
#2097=CARTESIAN_POINT('',(5.5,0.,0.));
#2098=CARTESIAN_POINT('',(0.,0.,0.));
#2099=CARTESIAN_POINT('',(5.5,0.,0.));
#2100=CARTESIAN_POINT('Origin',(5.5,0.,107.5));
#2101=CARTESIAN_POINT('',(0.,0.,107.5));
#2102=CARTESIAN_POINT('',(0.,0.,107.5));
#2103=CARTESIAN_POINT('Origin',(5.5,0.,107.5));
#2104=CARTESIAN_POINT('Origin',(0.,0.,5.50000000000001));
#2105=CARTESIAN_POINT('',(0.,0.,5.5));
#2106=CARTESIAN_POINT('',(0.,0.,5.5));
#2107=CARTESIAN_POINT('',(0.,0.,113.));
#2108=CARTESIAN_POINT('Origin',(5.5,0.,5.5));
#2109=CARTESIAN_POINT('Origin',(5.5,0.,5.5));
#2110=CARTESIAN_POINT('Origin',(40.25,0.,56.5));
#2111=UNCERTAINTY_MEASURE_WITH_UNIT(LENGTH_MEASURE(0.01),#2115,
'DISTANCE_ACCURACY_VALUE',
'Maximum model space distance between geometric entities at asserted c
onnectivities');
#2112=UNCERTAINTY_MEASURE_WITH_UNIT(LENGTH_MEASURE(0.01),#2115,
'DISTANCE_ACCURACY_VALUE',
'Maximum model space distance between geometric entities at asserted c
onnectivities');
#2113=(
GEOMETRIC_REPRESENTATION_CONTEXT(3)
GLOBAL_UNCERTAINTY_ASSIGNED_CONTEXT((#2111))
GLOBAL_UNIT_ASSIGNED_CONTEXT((#2115,#2117,#2118))
REPRESENTATION_CONTEXT('','3D')
);
#2114=(
GEOMETRIC_REPRESENTATION_CONTEXT(3)
GLOBAL_UNCERTAINTY_ASSIGNED_CONTEXT((#2112))
GLOBAL_UNIT_ASSIGNED_CONTEXT((#2115,#2117,#2118))
REPRESENTATION_CONTEXT('','3D')
);
#2115=(
LENGTH_UNIT()
NAMED_UNIT(*)
SI_UNIT(.MILLI.,.METRE.)
);
#2116=(
LENGTH_UNIT()
NAMED_UNIT(*)
SI_UNIT($,.METRE.)
);
#2117=(
NAMED_UNIT(*)
PLANE_ANGLE_UNIT()
SI_UNIT($,.RADIAN.)
);
#2118=(
NAMED_UNIT(*)
SI_UNIT($,.STERADIAN.)
SOLID_ANGLE_UNIT()
);
#2119=SHAPE_DEFINITION_REPRESENTATION(#2120,#2121);
#2120=PRODUCT_DEFINITION_SHAPE('',$,#2123);
#2121=SHAPE_REPRESENTATION('',(#1173),#2113);
#2122=PRODUCT_DEFINITION_CONTEXT('part definition',#2127,'design');
#2123=PRODUCT_DEFINITION('2026-08-25-07-34-07-549','top case',#2124,#2122);
#2124=PRODUCT_DEFINITION_FORMATION('',$,#2129);
#2125=PRODUCT_RELATED_PRODUCT_CATEGORY('top case','top case',(#2129));
#2126=APPLICATION_PROTOCOL_DEFINITION('international standard',
'automotive_design',2009,#2127);
#2127=APPLICATION_CONTEXT(
'Core Data for Automotive Mechanical Design Process');
#2128=PRODUCT_CONTEXT('part definition',#2127,'mechanical');
#2129=PRODUCT('2026-08-25-07-34-07-549','top case',$,(#2128));
#2130=PRESENTATION_STYLE_ASSIGNMENT((#2131));
#2131=SURFACE_STYLE_USAGE(.BOTH.,#2132);
#2132=SURFACE_SIDE_STYLE('',(#2133));
#2133=SURFACE_STYLE_FILL_AREA(#2134);
#2134=FILL_AREA_STYLE('Steel - Satin',(#2135));
#2135=FILL_AREA_STYLE_COLOUR('Steel - Satin',#2136);
#2136=COLOUR_RGB('Steel - Satin',0.627450980392157,0.627450980392157,0.627450980392157);
ENDSEC;
END-ISO-10303-21;
